{
.appVersion = "3133";
.formatVersion = 3;
DisplayStrings = (
""
);
axes = (
{
name = Weight;
tag = wght;
},
{
name = Width;
tag = wdth;
}
);
classes = (
{
automatic = 1;
code = "A Aacute Acircumflex Adieresis Agrave Aring Atilde AE B C Ccedilla D Eth E Eacute Ecircumflex Edieresis Egrave F G H I Iacute Icircumflex Idieresis Igrave J K L M N Ntilde O Oacute Ocircumflex Odieresis Ograve Oslash Otilde OE P Thorn Q R S Scaron T U Uacute Ucircumflex Udieresis Ugrave V W X Y Yacute Ydieresis Z Zcaron";
name = Uppercase;
}
);
customParameters = (
{
name = "EditView Line Height";
value = 1100;
},
{
name = "Axis Mappings";
value = {
wdth = {
100 = 100;
125 = 125;
};
wght = {
100 = 100;
300 = 300;
400 = 550;
700 = 900;
};
};
},
{
name = "Use Line Breaks";
value = 1;
},
{
name = "Use Typo Metrics";
value = 1;
},
{
name = fsType;
value = (
);
},
{
name = "Export morx Table";
value = 1;
},
{
name = "Variable Font Origin";
value = "2660E96A-9963-4076-AFCB-E451BC6EE103";
},
{
name = "Export Mac Name Table Entries";
value = 0;
},
{
name = "Don't use Production Names";
value = 1;
}
);
date = "2022-03-23 12:33:01 +0000";
familyName = Kalnia;
featurePrefixes = (
{
automatic = 1;
code = "languagesystem DFLT dflt;

languagesystem latn dflt;
";
name = Languagesystems;
}
);
features = (
{
automatic = 1;
code = "feature sups;
feature frac;
feature ordn;
";
tag = aalt;
},
{
automatic = 1;
code = "lookup ccmp_latn_1 {
	sub fi by f i;
	sub fl by f l;
} ccmp_latn_1;

script latn;
lookup ccmp_latn_1;
";
tag = ccmp;
},
{
automatic = 1;
code = "sub one by onesuperior;
sub two by twosuperior;
sub three by threesuperior;
sub four by foursuperior;
";
tag = sups;
},
{
automatic = 1;
code = "sub one slash four by onequarter;
sub one slash two by onehalf;
sub three slash four by threequarters;
";
tag = frac;
},
{
automatic = 1;
code = "sub [zero one two three four five six seven eight nine] [A a]' by ordfeminine;
sub [zero one two three four five six seven eight nine] [O o]' by ordmasculine;
";

glyphs = (
{
color = 1;
glyphname = A;
kernLeft = A;
kernRight = AA;
lastChange = "2022-08-05 06:06:17 +0000";
layers = (
{
layerId = "2660E96A-9963-4076-AFCB-E451BC6EE103";
shapes = (
{
closed = 1;
nodes = (
(378,0,l),
(378,10,l),
(262,23,o),
(212,105,o),
(212,222,cs),
(212,300,o),
(235,407,o),
(281,521,cs),
(285,531,l),
(298,531,l),
(502,19,l),
(432,5,l),
(432,0,l),
(815,0,l),
(815,10,l),
(767,20,l),
(493,708,l),
(341,708,l),
(56,20,l),
(5,10,l),
(5,0,l)
);
},
{
closed = 1;
nodes = (
(402,285,l),
(402,315,l),
(172,295,l),
(172,285,l)
);
}
);
width = 820;
},
{
layerId = "DF54607F-DD82-41E6-B2E3-81CA6D0E5C47";
shapes = (
{
closed = 1;
nodes = (
(574,0,l),
(574,10,l),
(423,19,o),
(301,83,o),
(301,235,cs),
(301,317,o),
(333,428,o),
(412,533,cs),
(418,541,l),
(439,541,l),
(773,19,l),
(703,5,l),
(703,0,l),
(1246,0,l),
(1246,10,l),
(1198,20,l),
(758,708,l),
(514,708,l),
(57,20,l),
(5,10,l),
(5,0,l)
);
},
{
closed = 1;
nodes = (
(612,285,l),
(612,315,l),
(243,295,l),
(243,285,l)
);
}
);
width = 1251;
},
{
layerId = "A5088515-37FF-452F-BD44-18A7A5EF88F0";
shapes = (
{
closed = 1;
nodes = (
(217,0,l),
(217,10,l),
(146,10,o),
(122,21,o),
(122,54,cs),
(122,66,o),
(126,84,o),
(134,103,c),
(350,680,l),
(359,680,l),
(604,24,l),
(533,10,l),
(533,0,l),
(689,0,l),
(689,10,l),
(619,25,l),
(363,708,l),
(345,708,l),
(90,25,l),
(20,10,l),
(20,0,l)
);
},
{
closed = 1;
nodes = (
(511,290,l),
(511,305,l),
(195,300,l),
(195,290,l)
);
}
);
width = 709;
},
{
layerId = "35A90D60-3AD4-435C-9F8B-D1CA483F6F66";
shapes = (
{
closed = 1;
nodes = (
(332,0,l),
(332,10,l),
(223,10,o),
(187,21,o),
(187,53,cs),
(187,65,o),
(193,83,o),
(205,103,c),
(534,680,l),
(549,680,l),
(922,24,l),
(814,10,l),
(814,0,l),
(1044,0,l),
(1044,10,l),
(937,25,l),
(547,708,l),
(535,708,l),
(147,25,l),
(40,10,l),
(40,0,l)
);
},
{
closed = 1;
nodes = (
(773,290,l),
(773,305,l),
(307,300,l),
(307,290,l)
);
}
);
width = 1084;
}
);
unicode = 65;
},
{
color = 1;
glyphname = AE;
kernLeft = A;
kernRight = E;
lastChange = "2022-08-05 06:06:17 +0000";
layers = (
{
layerId = "2660E96A-9963-4076-AFCB-E451BC6EE103";
shapes = (
{
closed = 1;
nodes = (
(348,0,l),
(348,10,l),
(279,36,o),
(247,93,o),
(247,167,cs),
(247,282,o),
(302,447,o),
(414,667,c),
(420,678,l),
(465,666,l),
(465,708,l),
(347,708,l),
(347,698,l),
(397,684,l),
(58,25,l),
(5,10,l),
(5,0,l)
);
},
{
closed = 1;
nodes = (
(455,315,l),
(455,345,l),
(261,325,l),
(261,315,l)
);
},
{
closed = 1;
nodes = (
(797,692,o),
(847,659,o),
(880,598,cs),
(975,424,l),
(985,424,l),
(1020,708,l),
(388,708,l),
(388,698,l),
(438,683,l),
(438,25,l),
(388,10,l),
(388,0,l),
(1020,0,l),
(985,284,l),
(975,284,l),
(906,138,ls),
(870,62,o),
(810,16,o),
(765,16,cs),
(683,15,l),
(683,356,l),
(693,356,l),
(839,246,l),
(849,246,l),
(849,506,l),
(839,506,l),
(833,486,o),
(811,439,o),
(777,405,cs),
(757,384,o),
(731,368,o),
(703,366,c),
(683,366,l),
(683,693,l),
(765,692,ls)
);
}
);
width = 1070;
},
{
layerId = "DF54607F-DD82-41E6-B2E3-81CA6D0E5C47";
shapes = (
{
closed = 1;
nodes = (
(578,0,l),
(578,10,l),
(471,17,o),
(363,57,o),
(365,164,cs),
(365,292,o),
(509,482,o),
(643,670,c),
(649,678,l),
(675,673,l),
(675,708,l),
(543,708,l),
(543,698,l),
(616,684,l),
(61,20,l),
(5,10,l),
(5,0,l)
);
},
{
closed = 1;
nodes = (
(686,285,l),
(686,315,l),
(357,295,l),
(357,285,l)
);
},
{
closed = 1;
nodes = (
(1431,692,o),
(1533,657,o),
(1623,579,cs),
(1800,424,l),
(1810,424,l),
(1884,708,l),
(618,708,l),
(618,698,l),
(668,688,l),
(668,20,l),
(618,10,l),
(618,0,l),
(1884,0,l),
(1810,284,l),
(1800,284,l),
(1652,140,ls),
(1565,55,o),
(1451,16,o),
(1343,16,cs),
(1188,15,l),
(1188,356,l),
(1200,356,l),
(1511,246,l),
(1521,246,l),
(1521,506,l),
(1511,506,l),
(1499,488,o),
(1454,449,o),
(1393,416,cs),
(1343,390,o),
(1282,368,o),
(1221,366,c),
(1188,366,l),
(1188,693,l),
(1343,692,ls)
);
}
);
width = 1934;
},
{
layerId = "A5088515-37FF-452F-BD44-18A7A5EF88F0";
shapes = (
{
closed = 1;
nodes = (
(226,0,l),
(226,10,l),
(153,10,o),
(128,21,o),
(128,52,cs),
(128,65,o),
(133,83,o),
(143,103,c),
(419,680,l),
(432,676,l),
(432,708,l),
(354,708,l),
(354,698,l),
(407,687,l),
(90,25,l),
(20,10,l),
(20,0,l)
);
},
{
closed = 1;
nodes = (
(430,290,l),
(430,305,l),
(227,300,l),
(227,290,l)
);
},
{
closed = 1;
nodes = (
(822,693,o),
(838,679,o),
(833,635,c),
(817,484,l),
(832,484,l),
(866,708,l),
(354,708,l),
(354,698,l),
(424,683,l),
(424,25,l),
(354,10,l),
(354,0,l),
(866,0,l),
(832,243,l),
(817,243,l),
(839,83,l),
(846,32,o),
(834,15,o),
(789,15,cs),
(439,15,l),
(439,353,l),
(659,353,l),
(665,256,l),
(675,256,l),
(675,498,l),
(665,498,l),
(665,436,o),
(662,399,o),
(656,385,cs),
(651,374,o),
(641,368,o),
(628,368,c),
(439,368,l),
(439,693,l),
(772,693,ls)
);
}
);
width = 941;
},
{
layerId = "35A90D60-3AD4-435C-9F8B-D1CA483F6F66";
shapes = (
{
closed = 1;
nodes = (
(328,0,l),
(328,10,l),
(224,10,o),
(189,20,o),
(188,51,cs),
(188,64,o),
(195,81,o),
(210,103,c),
(603,680,l),
(622,676,l),
(622,708,l),
(516,708,l),
(516,698,l),
(591,687,l),
(140,25,l),
(40,10,l),
(40,0,l)
);
},
{
closed = 1;
nodes = (
(619,290,l),
(619,305,l),
(337,300,l),
(337,290,l)
);
},
{
closed = 1;
nodes = (
(1300,693,o),
(1316,676,o),
(1310,625,c),
(1293,484,l),
(1308,484,l),
(1342,708,l),
(506,708,l),
(506,698,l),
(610,683,l),
(610,25,l),
(501,10,l),
(501,0,l),
(1342,0,l),
(1308,243,l),
(1293,243,l),
(1314,91,l),
(1322,34,o),
(1310,15,o),
(1265,15,cs),
(625,15,l),
(625,353,l),
(995,353,l),
(1001,256,l),
(1011,256,l),
(1011,498,l),
(1001,498,l),
(1001,434,o),
(997,392,o),
(990,381,cs),
(985,372,o),
(976,368,o),
(964,368,cs),
(625,368,l),
(625,693,l),
(1248,693,ls)
);
}
);
width = 1457;
}
);
metricLeft = A;
metricRight = E;
unicode = 198;
},
{
color = 4;
glyphname = B;
kernLeft = HH;
kernRight = B;
lastChange = "2022-08-05 06:06:17 +0000";
layers = (
{
layerId = "2660E96A-9963-4076-AFCB-E451BC6EE103";
shapes = (
{
closed = 1;
nodes = (
(20,708,l),
(20,698,l),
(70,683,l),
(70,25,l),
(20,10,l),
(20,0,l),
(441,0,ls),
(638,0,o),
(746,58,o),
(746,192,cs),
(746,326,o),
(584,370,o),
(438,370,c),
(438,380,l),
(553,380,o),
(720,423,o),
(720,554,cs),
(720,655,o),
(625,708,o),
(463,708,cs)
);
},
{
closed = 1;
nodes = (
(465,691,o),
(505,638,o),
(505,554,cs),
(505,427,o),
(449,384,o),
(379,382,cs),
(309,380,l),
(309,370,l),
(379,367,l),
(467,367,o),
(515,324,o),
(515,208,cs),
(515,59,o),
(452,16,o),
(394,14,cs),
(383,14,o),
(329,15,o),
(315,20,c),
(315,686,l),
(322,690,o),
(379,692,o),
(405,692,cs)
);
}
);
width = 776;
},
{
layerId = "DF54607F-DD82-41E6-B2E3-81CA6D0E5C47";
shapes = (
{
closed = 1;
nodes = (
(20,708,l),
(20,698,l),
(70,683,l),
(70,25,l),
(20,10,l),
(20,0,l),
(716,0,ls),
(1073,0,o),
(1335,80,o),
(1335,192,cs),
(1335,296,o),
(1092,370,o),
(783,370,c),
(783,380,l),
(1100,380,o),
(1309,445,o),
(1309,554,cs),
(1309,651,o),
(1091,708,o),
(738,708,cs)
);
},
{
closed = 1;
nodes = (
(740,691,o),
(780,638,o),
(780,554,cs),
(780,427,o),
(724,384,o),
(654,382,cs),
(584,380,l),
(584,370,l),
(654,367,l),
(742,367,o),
(790,324,o),
(790,208,cs),
(790,59,o),
(727,16,o),
(669,14,cs),
(658,14,o),
(604,15,o),
(590,20,c),
(590,686,l),
(597,690,o),
(654,692,o),
(680,692,cs)
);
}
);
width = 1365;
},
{
layerId = "A5088515-37FF-452F-BD44-18A7A5EF88F0";
shapes = (
{
closed = 1;
nodes = (
(80,708,l),
(80,698,l),
(150,683,l),
(150,25,l),
(80,10,l),
(80,0,l),
(361,0,l),
(528,2,o),
(609,63,o),
(609,187,cs),
(609,314,o),
(530,361,o),
(424,369,c),
(424,374,l),
(501,384,o),
(564,437,o),
(564,537,cs),
(564,652,o),
(495,708,o),
(355,708,cs)
);
},
{
closed = 1;
nodes = (
(485,692,o),
(549,641,o),
(549,537,cs),
(549,458,o),
(503,377,o),
(360,377,c),
(157,374,l),
(157,364,l),
(360,361,l),
(530,361,o),
(594,298,o),
(594,187,cs),
(594,72,o),
(517,15,o),
(361,15,cs),
(310,15,o),
(209,18,o),
(165,24,c),
(165,683,l),
(213,691,o),
(301,692,o),
(355,692,cs)
);
}
);
width = 669;
},
{
layerId = "35A90D60-3AD4-435C-9F8B-D1CA483F6F66";
shapes = (
{
closed = 1;
nodes = (
(100,708,l),
(100,698,l),
(209,683,l),
(209,25,l),
(100,10,l),
(100,0,l),
(546,0,l),
(819,2,o),
(953,63,o),
(953,187,cs),
(953,314,o),
(823,361,o),
(649,369,c),
(649,374,l),
(775,384,o),
(879,437,o),
(879,537,cs),
(879,652,o),
(766,708,o),
(536,708,cs)
);
},
{
closed = 1;
nodes = (
(750,692,o),
(864,641,o),
(864,537,cs),
(864,458,o),
(780,377,o),
(544,377,c),
(210,374,l),
(210,364,l),
(544,361,l),
(823,361,o),
(938,298,o),
(938,187,cs),
(938,72,o),
(803,15,o),
(546,15,cs),
(462,15,o),
(296,18,o),
(224,24,c),
(224,683,l),
(302,691,o),
(447,692,o),
(536,692,cs)
);
}
);
width = 1023;
}
);
metricLeft = H;
unicode = 66;
},
{
color = 1;
glyphname = C;
kernLeft = OO;
kernRight = C;
lastChange = "2022-08-05 06:06:17 +0000";
layers = (
{
layerId = "2660E96A-9963-4076-AFCB-E451BC6EE103";
shapes = (
{
closed = 1;
nodes = (
(690,134,l),
(649,105,o),
(601,93,o),
(552,93,cs),
(348,93,o),
(272,263,o),
(272,428,cs),
(271,574,o),
(309,711,o),
(374,711,cs),
(441,711,o),
(502,645,o),
(558,513,cs),
(621,364,l),
(641,364,l),
(701,660,l),
(644,685,o),
(535,723,o),
(425,723,cs),
(178,723,o),
(30,584,o),
(30,352,cs),
(30,120,o),
(198,-17,o),
(403,-15,cs),
(509,-14,o),
(618,21,o),
(700,127,c)
);
}
);
width = 731;
},
{
layerId = "DF54607F-DD82-41E6-B2E3-81CA6D0E5C47";
shapes = (
{
closed = 1;
nodes = (
(1211,134,l),
(1138,105,o),
(1052,93,o),
(964,93,cs),
(712,93,o),
(533,232,o),
(532,448,cs),
(531,618,o),
(594,711,o),
(726,711,cs),
(819,711,o),
(906,647,o),
(989,518,cs),
(1088,364,l),
(1124,364,l),
(1231,660,l),
(1129,685,o),
(944,723,o),
(747,723,cs),
(296,723,o),
(30,585,o),
(30,352,cs),
(30,135,o),
(307,-17,o),
(698,-15,cs),
(887,-14,o),
(1082,21,o),
(1229,127,c)
);
}
);
width = 1261;
},
{
layerId = "A5088515-37FF-452F-BD44-18A7A5EF88F0";
shapes = (
{
closed = 1;
nodes = (
(633,144,l),
(578,53,o),
(484,0,o),
(379,0,cs),
(201,0,o),
(96,130,o),
(95,350,cs),
(94,560,o),
(215,708,o),
(387,708,cs),
(558,708,o),
(624,652,o),
(604,525,cs),
(582,384,l),
(598,384,l),
(645,616,l),
(590,688,o),
(505,723,o),
(387,723,cs),
(207,723,o),
(80,568,o),
(80,350,cs),
(80,121,o),
(191,-15,o),
(379,-15,cs),
(496,-15,o),
(594,41,o),
(643,137,c)
);
}
);
width = 725;
},
{
layerId = "35A90D60-3AD4-435C-9F8B-D1CA483F6F66";
shapes = (
{
closed = 1;
nodes = (
(986,144,l),
(897,53,o),
(744,0,o),
(574,0,cs),
(287,0,o),
(107,130,o),
(105,350,cs),
(104,560,o),
(309,708,o),
(587,708,cs),
(846,708,o),
(988,634,o),
(953,517,cs),
(914,384,l),
(929,384,l),
(1005,616,l),
(916,688,o),
(778,723,o),
(587,723,cs),
(296,723,o),
(90,568,o),
(90,350,cs),
(90,121,o),
(270,-15,o),
(574,-15,cs),
(764,-15,o),
(923,41,o),
(1002,137,c)
);
}
);
width = 1095;
}
);
metricLeft = O;
metricRight = O;
unicode = 67;
},
{
color = 4;
glyphname = D;
kernLeft = HH;
kernRight = O;
lastChange = "2022-08-05 06:06:17 +0000";
layers = (
{
layerId = "2660E96A-9963-4076-AFCB-E451BC6EE103";
shapes = (
{
closed = 1;
nodes = (
(20,708,l),
(20,698,l),
(70,693,l),
(70,20,l),
(20,10,l),
(20,0,l),
(437,0,ls),
(637,0,o),
(785,133,o),
(785,361,cs),
(785,584,o),
(630,708,o),
(437,708,cs)
);
},
{
closed = 1;
nodes = (
(483,692,o),
(535,566,o),
(535,377,cs),
(535,146,o),
(483,15,o),
(377,15,c),
(335,15,l),
(315,35,l),
(315,689,l),
(334,691,o),
(360,692,o),
(377,692,cs)
);
}
);
width = 815;
},
{
layerId = "DF54607F-DD82-41E6-B2E3-81CA6D0E5C47";
shapes = (
{
closed = 1;
nodes = (
(20,708,l),
(20,698,l),
(70,683,l),
(70,20,l),
(20,10,l),
(20,0,l),
(712,0,ls),
(1110,0,o),
(1345,134,o),
(1345,361,cs),
(1345,579,o),
(1110,708,o),
(712,708,cs)
);
},
{
closed = 1;
nodes = (
(758,692,o),
(810,566,o),
(810,377,cs),
(810,146,o),
(758,15,o),
(652,15,c),
(610,15,l),
(590,35,l),
(590,689,l),
(609,691,o),
(635,692,o),
(652,692,cs)
);
}
);
width = 1375;
},
{
layerId = "A5088515-37FF-452F-BD44-18A7A5EF88F0";
shapes = (
{
closed = 1;
nodes = (
(80,708,l),
(80,698,l),
(150,683,l),
(150,25,l),
(80,10,l),
(80,0,l),
(351,0,l),
(556,0,o),
(656,117,o),
(656,357,cs),
(656,593,o),
(554,708,o),
(346,708,c)
);
},
{
closed = 1;
nodes = (
(544,692,o),
(641,582,o),
(641,357,cs),
(641,127,o),
(546,15,o),
(351,15,c),
(185,15,l),
(165,35,l),
(165,683,l),
(194,691,o),
(247,692,o),
(346,692,c)
);
}
);
width = 736;
},
{
layerId = "35A90D60-3AD4-435C-9F8B-D1CA483F6F66";
shapes = (
{
closed = 1;
nodes = (
(100,708,l),
(100,698,l),
(209,683,l),
(209,25,l),
(100,10,l),
(100,0,l),
(535,0,l),
(879,0,o),
(1037,117,o),
(1037,357,cs),
(1037,593,o),
(876,708,o),
(527,708,c)
);
},
{
closed = 1;
nodes = (
(859,692,o),
(1022,582,o),
(1022,357,cs),
(1022,127,o),
(862,15,o),
(535,15,c),
(257,15,l),
(224,35,l),
(224,683,l),
(272,691,o),
(361,692,o),
(527,692,c)
);
}
);
width = 1127;
}
);
metricLeft = H;
metricRight = O;
unicode = 68;
},
{
color = 5;
glyphname = Eth;
kernLeft = HH;
kernRight = O;
lastChange = "2022-08-05 06:06:17 +0000";
layers = (
{
hints = (
{
horizontal = 1;
place = (34535, 100);
place = (34535, 100);
type = Stem;
},
{
horizontal = 1;
place = (366.355, 0);
place = (366.355, 0);
type = Stem;
}
);
layerId = "2660E96A-9963-4076-AFCB-E451BC6EE103";
shapes = (
{
closed = 1;
nodes = (
(24,350,l),
(387,350,l),
(387,365,l),
(24,365,l)
);
},
{
ref = D;
}
);
width = 815;
},
{
hints = (
{
horizontal = 1;
place = (34535, 100);
place = (34535, 100);
type = Stem;
},
{
horizontal = 1;
place = (366.355, 0);
place = (366.355, 0);
type = Stem;
}
);
layerId = "DF54607F-DD82-41E6-B2E3-81CA6D0E5C47";
shapes = (
{
closed = 1;
nodes = (
(24,350,l),
(666,350,l),
(666,365,l),
(24,365,l)
);
},
{
ref = D;
}
);
width = 1375;
},
{
hints = (
{
horizontal = 1;
place = (34535, 100);
place = (34535, 100);
type = Stem;
},
{
horizontal = 1;
place = (366.355, 0);
place = (366.355, 0);
type = Stem;
}
);
layerId = "A5088515-37FF-452F-BD44-18A7A5EF88F0";
shapes = (
{
closed = 1;
nodes = (
(100,350,l),
(357,350,l),
(357,365,l),
(100,365,l)
);
},
{
ref = D;
}
);
width = 736;
},
{
hints = (
{
horizontal = 1;
place = (34535, 100);
place = (34535, 100);
type = Stem;
},
{
horizontal = 1;
place = (366.355, 0);
place = (366.355, 0);
type = Stem;
}
);
layerId = "35A90D60-3AD4-435C-9F8B-D1CA483F6F66";
shapes = (
{
closed = 1;
nodes = (
(100,350,l),
(530,350,l),
(530,365,l),
(100,365,l)
);
},
{
ref = D;
}
);
width = 1127;
}
);
metricLeft = D;
metricRight = D;
unicode = 208;
},
{
color = 1;
glyphname = E;
kernLeft = HH;
kernRight = E;
lastChange = "2022-08-05 06:06:17 +0000";
layers = (
{
layerId = "2660E96A-9963-4076-AFCB-E451BC6EE103";
shapes = (
{
closed = 1;
nodes = (
(652,0,l),
(617,284,l),
(607,284,l),
(538,138,ls),
(502,62,o),
(442,16,o),
(397,16,c),
(315,15,l),
(315,356,l),
(325,356,l),
(471,246,l),
(481,246,l),
(481,506,l),
(471,506,l),
(465,485,o),
(442,438,o),
(408,404,cs),
(387,383,o),
(363,368,o),
(335,366,c),
(315,366,l),
(315,693,l),
(397,692,l),
(429,692,o),
(479,659,o),
(512,598,cs),
(607,424,l),
(617,424,l),
(652,708,l),
(20,708,l),
(20,698,l),
(70,683,l),
(70,25,l),
(20,10,l),
(20,0,l)
);
}
);
width = 702;
},
{
layerId = "DF54607F-DD82-41E6-B2E3-81CA6D0E5C47";
shapes = (
{
closed = 1;
nodes = (
(1286,0,l),
(1212,284,l),
(1202,284,l),
(1054,140,ls),
(967,55,o),
(853,16,o),
(745,16,c),
(590,15,l),
(590,356,l),
(602,356,l),
(913,246,l),
(923,246,l),
(923,506,l),
(913,506,l),
(901,488,o),
(856,449,o),
(795,416,cs),
(745,390,o),
(685,368,o),
(623,366,c),
(590,366,l),
(590,693,l),
(745,692,l),
(833,692,o),
(935,657,o),
(1025,579,cs),
(1202,424,l),
(1212,424,l),
(1286,708,l),
(20,708,l),
(20,698,l),
(70,688,l),
(70,20,l),
(20,10,l),
(20,0,l)
);
}
);
width = 1336;
},
{
layerId = "A5088515-37FF-452F-BD44-18A7A5EF88F0";
shapes = (
{
closed = 1;
nodes = (
(592,0,l),
(558,243,l),
(543,243,l),
(565,83,l),
(572,32,o),
(560,15,o),
(515,15,c),
(165,15,l),
(165,353,l),
(385,353,l),
(391,256,l),
(401,256,l),
(401,498,l),
(391,498,l),
(391,433,o),
(388,395,o),
(382,385,cs),
(376,374,o),
(366,368,o),
(354,368,c),
(165,368,l),
(165,693,l),
(498,693,l),
(548,693,o),
(564,679,o),
(559,635,c),
(543,484,l),
(558,484,l),
(592,708,l),
(80,708,l),
(80,698,l),
(150,683,l),
(150,25,l),
(80,10,l),
(80,0,l)
);
}
);
width = 667;
},
{
layerId = "35A90D60-3AD4-435C-9F8B-D1CA483F6F66";
shapes = (
{
closed = 1;
nodes = (
(941,0,l),
(907,243,l),
(892,243,l),
(913,91,l),
(921,34,o),
(909,15,o),
(864,15,cs),
(224,15,l),
(224,353,l),
(594,353,l),
(600,256,l),
(610,256,l),
(610,498,l),
(600,498,l),
(600,434,o),
(596,392,o),
(589,381,cs),
(585,373,o),
(575,368,o),
(563,368,cs),
(224,368,l),
(224,693,l),
(847,693,ls),
(899,693,o),
(915,676,o),
(909,625,c),
(892,484,l),
(907,484,l),
(941,708,l),
(100,708,l),
(100,698,l),
(209,683,l),
(209,25,l),
(100,10,l),
(100,0,l)
);
}
);
width = 1056;
}
);
metricLeft = H;
unicode = 69;
},
{
color = 0;
glyphname = F;
kernLeft = HH;
kernRight = F;
lastChange = "2022-08-05 06:06:17 +0000";
layers = (
{
layerId = "2660E96A-9963-4076-AFCB-E451BC6EE103";
shapes = (
{
closed = 1;
nodes = (
(365,0,l),
(365,10,l),
(315,20,l),
(315,356,l),
(325,356,l),
(481,246,l),
(491,246,l),
(491,506,l),
(481,506,l),
(475,485,o),
(442,438,o),
(408,404,cs),
(387,383,o),
(363,366,o),
(335,366,cs),
(315,366,l),
(315,693,l),
(397,692,ls),
(429,692,o),
(479,659,o),
(512,598,cs),
(607,424,l),
(617,424,l),
(652,708,l),
(20,708,l),
(20,698,l),
(70,683,l),
(70,25,l),
(20,10,l),
(20,0,l)
);
}
);
width = 652;
},
{
layerId = "DF54607F-DD82-41E6-B2E3-81CA6D0E5C47";
shapes = (
{
closed = 1;
nodes = (
(630,0,l),
(630,10,l),
(590,20,l),
(590,356,l),
(602,356,l),
(933,246,l),
(943,246,l),
(943,506,l),
(933,506,l),
(923,492,o),
(864,450,o),
(792,415,cs),
(737,388,o),
(674,366,o),
(623,366,cs),
(590,366,l),
(590,693,l),
(745,692,ls),
(833,691,o),
(935,657,o),
(1025,579,cs),
(1202,424,l),
(1212,424,l),
(1286,708,l),
(20,708,l),
(20,698,l),
(70,688,l),
(70,20,l),
(20,10,l),
(20,0,l)
);
}
);
width = 1276;
},
{
layerId = "A5088515-37FF-452F-BD44-18A7A5EF88F0";
shapes = (
{
closed = 1;
nodes = (
(235,0,l),
(235,10,l),
(165,25,l),
(165,353,l),
(405,353,l),
(411,256,l),
(421,256,l),
(421,498,l),
(411,498,l),
(411,433,o),
(408,395,o),
(402,385,cs),
(396,374,o),
(386,368,o),
(374,368,cs),
(165,368,l),
(165,693,l),
(498,693,ls),
(548,693,o),
(564,679,o),
(559,635,cs),
(543,484,l),
(558,484,l),
(592,708,l),
(80,708,l),
(80,698,l),
(150,683,l),
(150,25,l),
(80,10,l),
(80,0,l)
);
}
);
width = 598;
},
{
layerId = "35A90D60-3AD4-435C-9F8B-D1CA483F6F66";
shapes = (
{
closed = 1;
nodes = (
(342,0,l),
(342,10,l),
(224,25,l),
(224,353,l),
(614,353,l),
(620,256,l),
(630,256,l),
(630,498,l),
(620,498,l),
(620,434,o),
(616,392,o),
(609,381,cs),
(605,373,o),
(595,368,o),
(583,368,cs),
(224,368,l),
(224,693,l),
(847,693,ls),
(899,693,o),
(915,676,o),
(909,625,cs),
(892,484,l),
(907,484,l),
(941,708,l),
(100,708,l),
(100,698,l),
(209,683,l),
(209,25,l),
(100,10,l),
(100,0,l)
);
}
);
width = 996;
}
);
metricLeft = H;
unicode = 70;
},
{
color = 1;
glyphname = G;
kernLeft = OO;
kernRight = G;
lastChange = "2022-08-05 06:06:17 +0000";
layers = (
{
layerId = "2660E96A-9963-4076-AFCB-E451BC6EE103";
shapes = (
{
closed = 1;
nodes = (
(485,271,l),
(485,0,l),
(483,0,o),
(481,0,o),
(478,0,cs),
(320,0,o),
(272,294,o),
(272,428,c),
(271,574,o),
(309,711,o),
(374,711,cs),
(441,711,o),
(486,666,o),
(561,509,cs),
(621,384,l),
(641,384,l),
(701,660,l),
(644,685,o),
(535,723,o),
(425,723,cs),
(178,723,o),
(30,584,o),
(30,352,cs),
(30,120,o),
(198,-17,o),
(403,-15,cs),
(509,-14,o),
(648,21,o),
(730,127,c),
(730,306,l),
(365,306,l),
(365,296,l)
);
}
);
width = 760;
},
{
layerId = "DF54607F-DD82-41E6-B2E3-81CA6D0E5C47";
shapes = (
{
closed = 1;
nodes = (
(972,271,l),
(972,0,l),
(965,0,o),
(958,0,o),
(951,0,cs),
(630,0,o),
(562,275,o),
(562,408,c),
(560,554,o),
(608,711,o),
(743,711,cs),
(881,711,o),
(970,668,o),
(1120,518,cs),
(1254,384,l),
(1296,384,l),
(1460,660,l),
(1342,685,o),
(1076,723,o),
(848,723,cs),
(337,723,o),
(30,584,o),
(30,352,cs),
(30,120,o),
(378,-17,o),
(803,-15,cs),
(1022,-14,o),
(1322,21,o),
(1492,127,c),
(1492,306,l),
(724,306,l),
(724,296,l)
);
}
);
width = 1522;
},
{
layerId = "A5088515-37FF-452F-BD44-18A7A5EF88F0";
shapes = (
{
closed = 1;
nodes = (
(608,281,l),
(608,48,l),
(529,15,o),
(457,0,o),
(394,0,cs),
(209,0,o),
(96,135,o),
(95,370,cs),
(94,568,o),
(211,708,o),
(378,708,cs),
(531,708,o),
(635,646,o),
(612,505,cs),
(592,384,l),
(608,384,l),
(655,616,l),
(580,687,o),
(498,723,o),
(378,723,cs),
(203,723,o),
(80,577,o),
(80,370,cs),
(80,128,o),
(195,-15,o),
(389,-15,cs),
(467,-15,o),
(557,9,o),
(623,47,c),
(623,306,l),
(498,306,l),
(498,296,l)
);
}
);
width = 735;
},
{
layerId = "35A90D60-3AD4-435C-9F8B-D1CA483F6F66";
shapes = (
{
closed = 1;
nodes = (
(939,281,l),
(939,48,l),
(814,15,o),
(699,0,o),
(597,0,cs),
(297,0,o),
(106,134,o),
(105,370,cs),
(103,568,o),
(298,708,o),
(564,708,cs),
(794,708,o),
(978,636,o),
(954,542,cs),
(914,384,l),
(930,384,l),
(1005,616,l),
(886,687,o),
(755,723,o),
(564,723,cs),
(286,723,o),
(90,577,o),
(90,370,cs),
(90,128,o),
(273,-15,o),
(582,-15,cs),
(719,-15,o),
(842,6,o),
(954,47,c),
(954,306,l),
(755,306,l),
(755,296,l)
);
}
);
width = 1095;
}
);
metricLeft = O;
metricRight = O;
unicode = 71;
},
{
color = 1;
glyphname = H;
kernLeft = HH;
kernRight = H;
lastChange = "2022-08-05 06:06:17 +0000";
layers = (
{
layerId = "2660E96A-9963-4076-AFCB-E451BC6EE103";
shapes = (
{
closed = 1;
nodes = (
(495,708,l),
(495,698,l),
(535,688,l),
(535,20,l),
(495,10,l),
(495,0,l),
(830,0,l),
(830,10,l),
(780,20,l),
(780,688,l),
(830,698,l),
(830,708,l)
);
},
{
closed = 1;
nodes = (
(20,708,l),
(20,698,l),
(70,688,l),
(70,20,l),
(20,10,l),
(20,0,l),
(355,0,l),
(355,10,l),
(315,20,l),
(315,688,l),
(355,698,l),
(355,708,l)
);
},
{
closed = 1;
nodes = (
(303,340,l),
(303,330,l),
(545,330,l),
(545,360,l)
);
}
);
width = 850;
},
{
layerId = "DF54607F-DD82-41E6-B2E3-81CA6D0E5C47";
shapes = (
{
closed = 1;
nodes = (
(770,708,l),
(770,698,l),
(810,688,l),
(810,20,l),
(770,10,l),
(770,0,l),
(1380,0,l),
(1380,10,l),
(1330,20,l),
(1330,688,l),
(1380,698,l),
(1380,708,l)
);
},
{
closed = 1;
nodes = (
(20,708,l),
(20,698,l),
(70,688,l),
(70,20,l),
(20,10,l),
(20,0,l),
(630,0,l),
(630,10,l),
(590,20,l),
(590,688,l),
(630,698,l),
(630,708,l)
);
},
{
closed = 1;
nodes = (
(578,340,l),
(578,330,l),
(820,330,l),
(820,360,l)
);
}
);
width = 1400;
},
{
layerId = "A5088515-37FF-452F-BD44-18A7A5EF88F0";
shapes = (
{
closed = 1;
nodes = (
(545,708,l),
(545,698,l),
(615,683,l),
(615,25,l),
(545,10,l),
(545,0,l),
(700,0,l),
(700,10,l),
(630,25,l),
(630,683,l),
(700,698,l),
(700,708,l)
);
},
{
closed = 1;
nodes = (
(80,708,l),
(80,698,l),
(150,683,l),
(150,25,l),
(80,10,l),
(80,0,l),
(235,0,l),
(235,10,l),
(165,25,l),
(165,683,l),
(235,698,l),
(235,708,l)
);
},
{
closed = 1;
nodes = (
(159,342,l),
(159,332,l),
(620,332,l),
(620,348,l)
);
}
);
width = 780;
},
{
layerId = "35A90D60-3AD4-435C-9F8B-D1CA483F6F66";
shapes = (
{
closed = 1;
nodes = (
(836,708,l),
(836,693,l),
(945,683,l),
(945,25,l),
(836,10,l),
(836,0,l),
(1070,0,l),
(1070,10,l),
(960,25,l),
(960,683,l),
(1070,698,l),
(1070,708,l)
);
},
{
closed = 1;
nodes = (
(100,708,l),
(100,698,l),
(210,683,l),
(210,25,l),
(100,10,l),
(100,0,l),
(334,0,l),
(334,10,l),
(225,25,l),
(225,683,l),
(334,693,l),
(334,708,l)
);
},
{
closed = 1;
nodes = (
(217,342,l),
(217,332,l),
(948,332,l),
(948,348,l)
);
}
);
width = 1170;
}
);
unicode = 72;
},
{
color = 4;
glyphname = I;
kernLeft = HH;
kernRight = H;
lastChange = "2022-08-05 06:06:17 +0000";
layers = (
{
layerId = "2660E96A-9963-4076-AFCB-E451BC6EE103";
shapes = (
{
closed = 1;
nodes = (
(20,708,l),
(20,698,l),
(70,688,l),
(70,20,l),
(20,10,l),
(20,0,l),
(365,0,l),
(365,10,l),
(315,20,l),
(315,688,l),
(365,698,l),
(365,708,l)
);
}
);
width = 385;
},
{
layerId = "DF54607F-DD82-41E6-B2E3-81CA6D0E5C47";
shapes = (
{
closed = 1;
nodes = (
(20,708,l),
(20,698,l),
(70,688,l),
(70,20,l),
(20,10,l),
(20,0,l),
(640,0,l),
(640,10,l),
(590,20,l),
(590,688,l),
(640,698,l),
(640,708,l)
);
}
);
width = 660;
},
{
layerId = "A5088515-37FF-452F-BD44-18A7A5EF88F0";
shapes = (
{
closed = 1;
nodes = (
(80,708,l),
(80,698,l),
(150,683,l),
(150,25,l),
(80,10,l),
(80,0,l),
(235,0,l),
(235,10,l),
(165,25,l),
(165,683,l),
(235,698,l),
(235,708,l)
);
}
);
width = 315;
},
{
layerId = "35A90D60-3AD4-435C-9F8B-D1CA483F6F66";
shapes = (
{
closed = 1;
nodes = (
(100,708,l),
(100,698,l),
(209,683,l),
(209,25,l),
(100,10,l),
(100,0,l),
(334,0,l),
(334,10,l),
(224,25,l),
(224,683,l),
(334,698,l),
(334,708,l)
);
}
);
width = 434;
}
);
metricLeft = H;
metricRight = H;
unicode = 73;
},
{
color = 4;
glyphname = J;
kernLeft = J;
kernRight = JJ;
lastChange = "2022-08-05 06:06:17 +0000";
layers = (
{
layerId = "2660E96A-9963-4076-AFCB-E451BC6EE103";
shapes = (
{
closed = 1;
nodes = (
(449,-15,o),
(537,34,o),
(537,225,c),
(537,708,l),
(202,708,l),
(202,698,l),
(292,688,l),
(292,262,l),
(316,28,o),
(253,3,o),
(191,1,cs),
(152,0,o),
(116,16,o),
(116,28,cs),
(116,49,o),
(159,57,o),
(196,77,cs),
(224,92,o),
(248,114,o),
(248,154,cs),
(248,195,o),
(202,223,o),
(144,223,cs),
(76,223,o),
(1,196,o),
(1,121,cs),
(1,36,o),
(102,-15,o),
(272,-15,c)
);
}
);
width = 597;
},
{
layerId = "DF54607F-DD82-41E6-B2E3-81CA6D0E5C47";
shapes = (
{
closed = 1;
nodes = (
(901,-15,o),
(1088,34,o),
(1088,225,c),
(1088,708,l),
(478,708,l),
(478,698,l),
(568,688,l),
(568,262,l),
(599,28,o),
(536,2,o),
(404,0,cs),
(321,-1,o),
(245,16,o),
(245,28,cs),
(245,47,o),
(319,55,o),
(391,72,cs),
(459,87,o),
(525,109,o),
(525,154,cs),
(525,195,o),
(427,223,o),
(304,223,cs),
(160,223,o),
(1,196,o),
(1,121,cs),
(1,36,o),
(215,-15,o),
(526,-15,c)
);
}
);
width = 1148;
},
{
layerId = "A5088515-37FF-452F-BD44-18A7A5EF88F0";
shapes = (
{
closed = 1;
nodes = (
(278,-15,o),
(325,63,o),
(315,222,c),
(315,708,l),
(200,708,l),
(200,698,l),
(300,683,l),
(300,222,l),
(310,73,o),
(268,0,o),
(179,0,cs),
(97,0,o),
(62,61,o),
(62,70,cs),
(62,109,o),
(103,99,o),
(133,107,cs),
(157,113,o),
(168,130,o),
(167,154,cs),
(165,183,o),
(137,195,o),
(110,195,cs),
(63,195,o),
(45,160,o),
(45,119,cs),
(45,66,o),
(89,-15,o),
(179,-15,cs)
);
}
);
width = 396;
},
{
layerId = "35A90D60-3AD4-435C-9F8B-D1CA483F6F66";
shapes = (
{
closed = 1;
nodes = (
(563,-15,o),
(638,63,o),
(626,222,c),
(626,708,l),
(393,708,l),
(393,698,l),
(611,683,l),
(611,222,l),
(622,73,o),
(542,0,o),
(347,0,cs),
(177,0,o),
(102,61,o),
(102,70,cs),
(102,109,o),
(181,99,o),
(247,107,cs),
(299,113,o),
(311,130,o),
(311,154,cs),
(311,183,o),
(255,195,o),
(197,195,cs),
(94,195,o),
(65,160,o),
(65,119,cs),
(65,66,o),
(161,-15,o),
(347,-15,cs)
);
}
);
width = 757;
}
);
unicode = 74;
},
{
color = 4;
glyphname = K;
kernLeft = HH;
kernRight = K;
lastChange = "2022-08-05 06:06:17 +0000";
layers = (
{
layerId = "2660E96A-9963-4076-AFCB-E451BC6EE103";
shapes = (
{
closed = 1;
nodes = (
(644,-15,o),
(698,-14,o),
(745,22,c),
(745,32,l),
(739,32,o),
(733,34,o),
(727,38,cs),
(693,60,o),
(653,132,o),
(629,189,cs),
(578,307,o),
(508,346,o),
(351,346,c),
(351,351,l),
(397,351,o),
(505,395,o),
(588,471,cs),
(650,527,o),
(699,601,o),
(699,688,c),
(749,698,l),
(749,708,l),
(395,708,l),
(395,698,l),
(452,698,o),
(477,661,o),
(477,611,cs),
(477,571,o),
(464,522,o),
(442,478,cs),
(416,424,o),
(379,378,o),
(339,364,cs),
(331,361,o),
(323,360,o),
(315,360,c),
(315,708,l),
(20,708,l),
(20,698,l),
(70,688,l),
(70,20,l),
(20,10,l),
(20,0,l),
(365,0,l),
(365,10,l),
(315,20,l),
(315,346,l),
(332,346,l),
(369,218,o),
(405,130,o),
(439,78,cs),
(485,9,o),
(535,-15,o),
(603,-15,cs)
);
}
);
width = 764;
},
{
layerId = "DF54607F-DD82-41E6-B2E3-81CA6D0E5C47";
shapes = (
{
closed = 1;
nodes = (
(1260,-15,o),
(1375,-14,o),
(1475,22,c),
(1475,32,l),
(1466,32,o),
(1456,34,o),
(1446,37,cs),
(1371,61,o),
(1274,166,o),
(1191,233,cs),
(1087,318,o),
(969,346,o),
(719,346,c),
(719,351,l),
(859,351,o),
(1015,384,o),
(1154,444,cs),
(1297,506,o),
(1377,594,o),
(1377,688,c),
(1428,698,l),
(1428,708,l),
(761,708,l),
(761,698,l),
(827,698,o),
(862,665,o),
(862,619,cs),
(862,576,o),
(840,520,o),
(805,473,cs),
(759,413,o),
(690,371,o),
(624,362,cs),
(613,361,o),
(602,360,o),
(591,360,c),
(591,708,l),
(20,708,l),
(20,698,l),
(71,688,l),
(71,20,l),
(20,10,l),
(20,0,l),
(641,0,l),
(641,10,l),
(591,20,l),
(591,346,l),
(608,346,l),
(686,220,o),
(756,134,o),
(835,78,cs),
(932,9,o),
(1029,-15,o),
(1173,-15,cs)
);
}
);
width = 1490;
},
{
layerId = "A5088515-37FF-452F-BD44-18A7A5EF88F0";
shapes = (
{
closed = 1;
nodes = (
(637,-15,o),
(648,-13,o),
(660,-4,c),
(660,6,l),
(652,2,o),
(644,0,o),
(637,0,cs),
(605,0,o),
(573,45,o),
(510,180,cs),
(457,294,o),
(400,341,o),
(305,351,c),
(305,356,l),
(366,371,o),
(420,418,o),
(461,474,cs),
(514,546,o),
(545,632,o),
(541,683,c),
(608,698,l),
(608,708,l),
(455,708,l),
(455,698,l),
(498,698,o),
(522,684,o),
(522,658,cs),
(522,618,o),
(495,547,o),
(450,484,cs),
(401,417,o),
(332,360,o),
(255,358,cs),
(225,357,o),
(195,357,o),
(165,356,c),
(165,708,l),
(80,708,l),
(80,698,l),
(150,683,l),
(150,25,l),
(80,10,l),
(80,0,l),
(235,0,l),
(235,10,l),
(165,25,l),
(165,343,l),
(241,343,ls),
(372,343,o),
(436,300,o),
(495,171,cs),
(561,32,o),
(594,-15,o),
(627,-15,cs)
);
}
);
width = 665;
},
{
layerId = "35A90D60-3AD4-435C-9F8B-D1CA483F6F66";
shapes = (
{
closed = 1;
nodes = (
(981,-15,o),
(999,-13,o),
(1018,-4,c),
(1018,6,l),
(1005,2,o),
(992,0,o),
(981,0,cs),
(924,0,o),
(871,45,o),
(768,180,cs),
(712,255,o),
(649,338,o),
(449,351,c),
(449,356,l),
(540,373,o),
(629,416,o),
(697,475,cs),
(773,540,o),
(827,626,o),
(827,683,c),
(935,698,l),
(935,708,l),
(689,708,l),
(689,698,l),
(762,698,o),
(803,683,o),
(803,657,cs),
(803,612,o),
(747,532,o),
(675,475,cs),
(595,411,o),
(461,360,o),
(369,358,cs),
(320,357,o),
(272,357,o),
(224,356,c),
(224,708,l),
(100,708,l),
(100,698,l),
(209,683,l),
(209,25,l),
(100,10,l),
(100,0,l),
(337,0,l),
(337,10,l),
(224,25,l),
(224,343,l),
(346,343,ls),
(615,343,o),
(689,258,o),
(753,171,cs),
(858,32,o),
(911,-15,o),
(965,-15,cs)
);
}
);
width = 1088;
}
);
metricLeft = H;
unicode = 75;
},
{
color = 4;
glyphname = L;
kernLeft = HH;
kernRight = L;
lastChange = "2022-08-05 06:06:17 +0000";
layers = (
{
layerId = "2660E96A-9963-4076-AFCB-E451BC6EE103";
shapes = (
{
closed = 1;
nodes = (
(632,0,l),
(597,304,l),
(577,304,l),
(525,180,ls),
(475,61,o),
(434,16,o),
(377,16,c),
(315,15,l),
(315,688,l),
(366,698,l),
(366,708,l),
(20,708,l),
(20,698,l),
(70,688,l),
(70,20,l),
(20,10,l),
(20,0,l)
);
}
);
width = 647;
},
{
layerId = "DF54607F-DD82-41E6-B2E3-81CA6D0E5C47";
shapes = (
{
closed = 1;
nodes = (
(1153,0,l),
(1118,404,l),
(1098,404,l),
(988,248,ls),
(869,80,o),
(762,16,o),
(602,16,c),
(590,15,l),
(590,688,l),
(641,698,l),
(641,708,l),
(20,708,l),
(20,698,l),
(70,688,l),
(70,20,l),
(20,10,l),
(20,0,l)
);
}
);
width = 1168;
},
{
layerId = "A5088515-37FF-452F-BD44-18A7A5EF88F0";
shapes = (
{
closed = 1;
nodes = (
(552,0,l),
(528,243,l),
(513,243,l),
(520,115,ls),
(524,42,o),
(503,15,o),
(467,15,c),
(165,15,l),
(165,688,l),
(235,698,l),
(235,708,l),
(80,708,l),
(80,698,l),
(150,688,l),
(150,20,l),
(80,10,l),
(80,0,l)
);
}
);
width = 602;
},
{
layerId = "35A90D60-3AD4-435C-9F8B-D1CA483F6F66";
shapes = (
{
closed = 1;
nodes = (
(855,0,l),
(831,243,l),
(816,243,l),
(823,130,ls),
(828,46,o),
(808,15,o),
(770,15,cs),
(224,15,l),
(224,688,l),
(334,698,l),
(334,708,l),
(100,708,l),
(100,698,l),
(209,688,l),
(209,20,l),
(100,10,l),
(100,0,l)
);
}
);
width = 952;
}
);
metricLeft = H;
unicode = 76;
},
{
color = 1;
glyphname = M;
kernLeft = HH;
kernRight = H;
lastChange = "2022-08-05 06:06:17 +0000";
layers = (
{
layerId = "2660E96A-9963-4076-AFCB-E451BC6EE103";
shapes = (
{
closed = 1;
nodes = (
(294,0,l),
(294,10,l),
(154,60,o),
(100,408,o),
(100,561,cs),
(100,566,l),
(115,566,l),
(370,0,l),
(506,0,l),
(663,592,l),
(678,592,l),
(677,20,l),
(617,10,l),
(617,0,l),
(982,0,l),
(982,10,l),
(932,20,l),
(932,688,l),
(982,698,l),
(982,708,l),
(648,708,l),
(549,216,l),
(561,238,l),
(524,238,l),
(543,215,l),
(334,708,l),
(14,708,l),
(14,698,l),
(85,686,l),
(85,20,l),
(5,10,l),
(5,0,l)
);
}
);
width = 987;
},
{
layerId = "DF54607F-DD82-41E6-B2E3-81CA6D0E5C47";
shapes = (
{
closed = 1;
nodes = (
(393,0,l),
(393,10,l),
(200,53,o),
(95,359,o),
(95,561,cs),
(95,566,l),
(118,566,l),
(509,0,l),
(789,0,l),
(981,592,l),
(1004,592,l),
(1004,20,l),
(943,10,l),
(943,0,l),
(1575,0,l),
(1575,10,l),
(1524,20,l),
(1524,688,l),
(1601,698,l),
(1601,708,l),
(988,708,l),
(845,219,l),
(858,238,l),
(830,238,l),
(853,218,l),
(534,708,l),
(19,708,l),
(19,698,l),
(85,686,l),
(85,20,l),
(5,10,l),
(5,0,l)
);
}
);
width = 1606;
},
{
layerId = "A5088515-37FF-452F-BD44-18A7A5EF88F0";
shapes = (
{
closed = 1;
nodes = (
(305,0,l),
(305,10,l),
(187,10,o),
(165,22,o),
(165,122,c),
(165,610,l),
(182,610,l),
(471,0,l),
(497,0,l),
(760,610,l),
(776,610,l),
(776,25,l),
(706,10,l),
(706,0,l),
(861,0,l),
(861,10,l),
(791,25,l),
(791,683,l),
(861,698,l),
(861,708,l),
(787,708,l),
(486,12,l),
(495,21,l),
(472,21,l),
(481,12,l),
(151,708,l),
(80,708,l),
(80,698,l),
(150,683,l),
(150,25,l),
(80,10,l),
(80,0,l)
);
}
);
width = 911;
},
{
layerId = "35A90D60-3AD4-435C-9F8B-D1CA483F6F66";
shapes = (
{
closed = 1;
nodes = (
(407,0,l),
(407,10,l),
(236,10,o),
(204,22,o),
(204,122,c),
(204,622,l),
(228,622,l),
(645,0,l),
(664,0,l),
(1037,622,l),
(1056,622,l),
(1056,25,l),
(947,10,l),
(947,0,l),
(1181,0,l),
(1181,10,l),
(1071,25,l),
(1071,683,l),
(1181,698,l),
(1181,708,l),
(1071,708,l),
(653,12,l),
(664,21,l),
(644,21,l),
(655,12,l),
(189,708,l),
(80,708,l),
(80,698,l),
(189,683,l),
(189,25,l),
(80,10,l),
(80,0,l)
);
}
);
width = 1261;
}
);
metricLeft = N;
metricRight = N;
unicode = 77;
},
{
color = 1;
glyphname = N;
kernLeft = HH;
kernRight = N;
lastChange = "2022-08-05 06:06:17 +0000";
layers = (
{
layerId = "2660E96A-9963-4076-AFCB-E451BC6EE103";
shapes = (
{
closed = 1;
nodes = (
(354,0,l),
(354,10,l),
(163,126,o),
(90,330,o),
(90,569,cs),
(90,574,l),
(105,574,l),
(536,0,l),
(667,0,l),
(667,688,l),
(751,698,l),
(751,708,l),
(432,708,l),
(432,698,l),
(576,623,o),
(652,441,o),
(652,267,cs),
(652,262,l),
(635,262,l),
(307,708,l),
(5,708,l),
(5,698,l),
(50,672,o),
(75,639,o),
(75,605,c),
(75,20,l),
(5,10,l),
(5,0,l)
);
}
);
width = 756;
},
{
layerId = "DF54607F-DD82-41E6-B2E3-81CA6D0E5C47";
shapes = (
{
closed = 1;
nodes = (
(636,0,l),
(636,10,l),
(360,132,o),
(92,260,o),
(92,569,cs),
(92,574,l),
(104,574,l),
(906,0,l),
(1224,0,l),
(1224,688,l),
(1308,698,l),
(1308,708,l),
(754,708,l),
(754,698,l),
(947,628,o),
(1207,472,o),
(1207,267,cs),
(1207,262,l),
(1195,262,l),
(568,708,l),
(5,708,l),
(5,698,l),
(52,671,o),
(75,640,o),
(75,605,c),
(75,20,l),
(5,10,l),
(5,0,l)
);
}
);
width = 1313;
},
{
layerId = "A5088515-37FF-452F-BD44-18A7A5EF88F0";
shapes = (
{
closed = 1;
nodes = (
(295,0,l),
(295,10,l),
(198,10,o),
(165,30,o),
(165,89,c),
(165,620,l),
(175,620,l),
(682,0,l),
(692,0,l),
(692,683,l),
(762,698,l),
(762,708,l),
(547,708,l),
(547,698,l),
(645,697,o),
(677,672,o),
(677,600,c),
(677,40,l),
(666,40,l),
(123,708,l),
(80,708,l),
(80,698,l),
(119,686,o),
(150,654,o),
(150,626,c),
(150,25,l),
(80,10,l),
(80,0,l)
);
}
);
width = 812;
},
{
layerId = "35A90D60-3AD4-435C-9F8B-D1CA483F6F66";
shapes = (
{
closed = 1;
nodes = (
(399,0,l),
(399,10,l),
(253,10,o),
(204,30,o),
(204,89,c),
(204,620,l),
(219,620,l),
(979,0,l),
(987,0,l),
(987,683,l),
(1097,698,l),
(1097,708,l),
(777,708,l),
(777,698,l),
(923,697,o),
(972,672,o),
(972,600,c),
(972,33,l),
(961,33,l),
(134,708,l),
(80,708,l),
(80,698,l),
(141,685,o),
(189,653,o),
(189,626,c),
(189,25,l),
(80,10,l),
(80,0,l)
);
}
);
width = 1177;
}
);
unicode = 78;
},
{
color = 4;
glyphname = O;
kernLeft = OO;
kernRight = O;
lastChange = "2022-08-05 06:06:17 +0000";
layers = (
{
layerId = "2660E96A-9963-4076-AFCB-E451BC6EE103";
shapes = (
{
closed = 1;
nodes = (
(182,723,o),
(30,576,o),
(30,352,cs),
(30,107,o),
(190,-15,o),
(402,-15,cs),
(612,-15,o),
(770,103,o),
(770,351,cs),
(770,614,o),
(605,723,o),
(402,723,cs)
);
},
{
closed = 1;
nodes = (
(488,713,o),
(520,616,o),
(520,357,cs),
(520,96,o),
(488,-3,o),
(402,-3,cs),
(316,-3,o),
(280,104,o),
(280,356,cs),
(280,611,o),
(316,713,o),
(402,713,cs)
);
}
);
width = 800;
},
{
layerId = "DF54607F-DD82-41E6-B2E3-81CA6D0E5C47";
shapes = (
{
closed = 1;
nodes = (
(308,723,o),
(30,570,o),
(30,354,cs),
(30,138,o),
(308,-15,o),
(686,-15,cs),
(1062,-15,o),
(1338,138,o),
(1338,354,cs),
(1338,570,o),
(1062,723,o),
(686,723,cs)
);
},
{
closed = 1;
nodes = (
(772,713,o),
(804,616,o),
(804,354,cs),
(804,96,o),
(772,-3,o),
(686,-3,cs),
(600,-3,o),
(564,104,o),
(564,354,cs),
(564,611,o),
(600,713,o),
(686,713,cs)
);
}
);
width = 1368;
},
{
layerId = "A5088515-37FF-452F-BD44-18A7A5EF88F0";
shapes = (
{
closed = 1;
nodes = (
(188,723,o),
(80,588,o),
(80,360,cs),
(80,124,o),
(188,-15,o),
(371,-15,cs),
(553,-15,o),
(660,124,o),
(660,360,cs),
(660,588,o),
(553,723,o),
(371,723,cs)
);
},
{
closed = 1;
nodes = (
(543,707,o),
(644,578,o),
(644,360,cs),
(644,134,o),
(543,1,o),
(371,1,cs),
(198,1,o),
(96,134,o),
(96,360,cs),
(96,578,o),
(198,707,o),
(371,707,cs)
);
}
);
width = 740;
},
{
layerId = "35A90D60-3AD4-435C-9F8B-D1CA483F6F66";
shapes = (
{
closed = 1;
nodes = (
(291,723,o),
(90,573,o),
(90,360,cs),
(90,140,o),
(291,-15,o),
(576,-15,cs),
(858,-15,o),
(1057,140,o),
(1057,360,cs),
(1057,573,o),
(858,723,o),
(576,723,cs)
);
},
{
closed = 1;
nodes = (
(849,707,o),
(1042,563,o),
(1042,360,cs),
(1042,150,o),
(849,1,o),
(576,1,cs),
(300,1,o),
(105,150,o),
(105,360,cs),
(105,563,o),
(300,707,o),
(576,707,cs)
);
}
);
width = 1147;
}
);
unicode = 79;
},
{
color = 5;
glyphname = Oslash;
kernLeft = OO;
kernRight = O;
lastChange = "2022-08-05 06:06:17 +0000";
layers = (
{
layerId = "2660E96A-9963-4076-AFCB-E451BC6EE103";
shapes = (
{
closed = 1;
nodes = (
(234,-92,l),
(250,-92,l),
(574,800,l),
(558,800,l)
);
},
{
ref = O;
}
);
width = 800;
},
{
layerId = "DF54607F-DD82-41E6-B2E3-81CA6D0E5C47";
shapes = (
{
closed = 1;
nodes = (
(508,-92,l),
(524,-92,l),
(848,800,l),
(832,800,l)
);
},
{
ref = O;
}
);
width = 1368;
},
{
layerId = "A5088515-37FF-452F-BD44-18A7A5EF88F0";
shapes = (
{
closed = 1;
nodes = (
(223,-92,l),
(239,-92,l),
(563,800,l),
(547,800,l)
);
},
{
ref = O;
}
);
width = 740;
},
{
layerId = "35A90D60-3AD4-435C-9F8B-D1CA483F6F66";
shapes = (
{
closed = 1;
nodes = (
(382,-92,l),
(398,-92,l),
(722,800,l),
(706,800,l)
);
},
{
alignment = -1;
ref = O;
}
);
width = 1147;
}
);
metricLeft = O;
metricRight = O;
unicode = 216;
},
{
color = 0;
glyphname = OE;
kernLeft = OO;
kernRight = E;
lastChange = "2022-08-05 06:06:17 +0000";
layers = (
{
layerId = "2660E96A-9963-4076-AFCB-E451BC6EE103";
shapes = (
{
closed = 1;
nodes = (
(306,12,o),
(280,124,o),
(280,366,cs),
(280,591,o),
(306,698,o),
(392,698,cs),
(393,698,o),
(394,698,o),
(395,698,cs),
(449,698,o),
(470,606,o),
(470,367,cs),
(470,101,o),
(451,12,o),
(395,12,cs),
(394,12,o),
(393,12,o),
(392,12,cs)
);
},
{
closed = 1;
nodes = (
(829,692,o),
(879,659,o),
(912,598,cs),
(1007,424,l),
(1017,424,l),
(1052,708,l),
(494,708,l),
(460,708,o),
(426,708,o),
(392,708,cs),
(172,708,o),
(30,556,o),
(30,362,cs),
(30,127,o),
(180,0,o),
(392,0,cs),
(426,0,o),
(460,0,o),
(494,0,c),
(1052,0,l),
(1017,284,l),
(1007,284,l),
(938,138,ls),
(902,62,o),
(842,17,o),
(797,16,cs),
(715,15,l),
(715,356,l),
(725,356,l),
(871,246,l),
(881,246,l),
(881,506,l),
(871,506,l),
(865,486,o),
(842,438,o),
(809,404,cs),
(788,384,o),
(763,368,o),
(735,366,c),
(715,366,l),
(715,693,l),
(797,692,ls)
);
}
);
width = 1102;
},
{
layerId = "DF54607F-DD82-41E6-B2E3-81CA6D0E5C47";
shapes = (
{
closed = 1;
nodes = (
(600,12,o),
(564,104,o),
(564,354,cs),
(564,611,o),
(600,698,o),
(686,698,cs),
(688,698,o),
(690,698,o),
(692,698,cs),
(773,698,o),
(804,603,o),
(804,354,cs),
(804,107,o),
(772,12,o),
(689,12,cs),
(688,12,o),
(687,12,o),
(686,12,cs)
);
},
{
closed = 1;
nodes = (
(1581,691,o),
(1683,657,o),
(1773,579,cs),
(1950,424,l),
(1960,424,l),
(2034,708,l),
(882,708,l),
(817,708,o),
(751,708,o),
(686,708,c),
(308,708,o),
(30,570,o),
(30,354,cs),
(30,138,o),
(308,0,o),
(686,0,c),
(751,0,o),
(817,0,o),
(882,0,c),
(2034,0,l),
(1960,284,l),
(1950,284,l),
(1802,140,ls),
(1715,55,o),
(1601,17,o),
(1493,16,cs),
(1338,15,l),
(1338,356,l),
(1350,356,l),
(1661,246,l),
(1671,246,l),
(1671,506,l),
(1661,506,l),
(1650,488,o),
(1606,448,o),
(1546,416,cs),
(1495,388,o),
(1434,366,o),
(1371,366,cs),
(1338,366,l),
(1338,693,l),
(1493,692,ls)
);
}
);
width = 2084;
},
{
layerId = "A5088515-37FF-452F-BD44-18A7A5EF88F0";
shapes = (
{
closed = 1;
nodes = (
(198,1,o),
(96,134,o),
(96,360,cs),
(96,578,o),
(198,707,o),
(371,707,cs),
(420,707,o),
(474,693,o),
(513,669,c),
(513,566,o),
(513,463,o),
(513,360,c),
(513,253,o),
(513,147,o),
(513,40,c),
(473,14,o),
(421,1,o),
(371,1,cs)
);
},
{
closed = 1;
nodes = (
(911,693,o),
(927,679,o),
(922,635,c),
(906,484,l),
(921,484,l),
(955,708,l),
(468,708,l),
(439,718,o),
(407,723,o),
(371,723,cs),
(188,723,o),
(80,588,o),
(80,360,cs),
(80,124,o),
(188,-15,o),
(371,-15,cs),
(405,-15,o),
(437,-10,o),
(466,0,c),
(955,0,l),
(921,243,l),
(906,243,l),
(928,83,l),
(935,32,o),
(923,15,o),
(878,15,cs),
(528,15,l),
(528,353,l),
(748,353,l),
(754,256,l),
(764,256,l),
(764,498,l),
(754,498,l),
(754,429,o),
(752,401,o),
(745,385,cs),
(740,374,o),
(730,368,o),
(717,368,cs),
(528,368,l),
(528,693,l),
(861,693,ls)
);
}
);
width = 1030;
},
{
layerId = "35A90D60-3AD4-435C-9F8B-D1CA483F6F66";
shapes = (
{
closed = 1;
nodes = (
(300,1,o),
(105,150,o),
(105,360,cs),
(105,563,o),
(300,707,o),
(576,707,cs),
(649,707,o),
(734,694,o),
(798,670,c),
(798,567,o),
(798,463,o),
(798,360,c),
(798,253,o),
(798,147,o),
(798,40,c),
(734,15,o),
(659,1,o),
(576,1,cs)
);
},
{
closed = 1;
nodes = (
(1488,693,o),
(1504,676,o),
(1498,625,c),
(1481,484,l),
(1496,484,l),
(1530,708,l),
(723,708,l),
(678,718,o),
(628,723,o),
(576,723,cs),
(291,723,o),
(90,573,o),
(90,360,cs),
(90,140,o),
(291,-15,o),
(576,-15,cs),
(628,-15,o),
(677,-10,o),
(723,0,c),
(1530,0,l),
(1496,243,l),
(1481,243,l),
(1502,91,l),
(1510,34,o),
(1498,15,o),
(1453,15,cs),
(813,15,l),
(813,353,l),
(1183,353,l),
(1189,256,l),
(1199,256,l),
(1199,498,l),
(1189,498,l),
(1189,433,o),
(1185,391,o),
(1179,381,cs),
(1174,372,o),
(1165,368,o),
(1152,368,cs),
(813,368,l),
(813,693,l),
(1436,693,ls)
);
}
);
width = 1645;
}
);
metricLeft = O;
metricRight = E;
unicode = 338;
},
{
color = 4;
glyphname = P;
kernLeft = HH;
kernRight = P;
lastChange = "2022-08-05 06:06:17 +0000";
layers = (
{
layerId = "2660E96A-9963-4076-AFCB-E451BC6EE103";
shapes = (
{
closed = 1;
nodes = (
(20,708,l),
(20,698,l),
(70,688,l),
(70,20,l),
(20,10,l),
(20,0,l),
(365,0,l),
(365,10,l),
(315,20,l),
(315,688,l),
(322,691,o),
(360,692,o),
(369,692,cs),
(468,692,o),
(495,605,o),
(495,514,cs),
(495,363,o),
(403,331,o),
(339,327,cs),
(322,326,o),
(316,328,o),
(309,331,c),
(308,314,l),
(322,312,o),
(355,310,o),
(381,311,c),
(567,311,o),
(745,368,o),
(745,524,cs),
(745,671,o),
(598,708,o),
(454,708,cs)
);
}
);
width = 775;
},
{
layerId = "DF54607F-DD82-41E6-B2E3-81CA6D0E5C47";
shapes = (
{
closed = 1;
nodes = (
(20,708,l),
(20,698,l),
(70,688,l),
(70,20,l),
(20,10,l),
(20,0,l),
(640,0,l),
(640,10,l),
(590,20,l),
(590,686,l),
(597,689,o),
(635,692,o),
(644,692,cs),
(729,692,o),
(770,634,o),
(770,514,cs),
(770,363,o),
(678,331,o),
(614,327,cs),
(597,326,o),
(591,328,o),
(584,331,c),
(583,314,l),
(597,312,o),
(630,310,o),
(656,311,c),
(1095,311,o),
(1310,381,o),
(1310,524,cs),
(1310,648,o),
(1119,708,o),
(729,708,cs)
);
}
);
width = 1340;
},
{
layerId = "A5088515-37FF-452F-BD44-18A7A5EF88F0";
shapes = (
{
closed = 1;
nodes = (
(80,708,l),
(80,698,l),
(150,683,l),
(150,25,l),
(80,10,l),
(80,0,l),
(235,0,l),
(235,10,l),
(165,25,l),
(165,683,l),
(223,693,o),
(281,692,o),
(345,692,cs),
(480,692,o),
(559,627,o),
(559,517,cs),
(559,400,o),
(479,331,o),
(343,331,cs),
(261,331,o),
(207,339,o),
(159,356,c),
(159,329,l),
(232,321,o),
(275,315,o),
(343,315,c),
(488,315,o),
(574,390,o),
(574,517,cs),
(574,637,o),
(489,708,o),
(345,708,c)
);
}
);
width = 614;
},
{
layerId = "35A90D60-3AD4-435C-9F8B-D1CA483F6F66";
shapes = (
{
closed = 1;
nodes = (
(100,708,l),
(100,698,l),
(209,683,l),
(209,25,l),
(100,10,l),
(100,0,l),
(334,0,l),
(334,10,l),
(224,25,l),
(224,683,l),
(324,693,o),
(424,692,o),
(535,692,cs),
(768,692,o),
(916,627,o),
(916,517,cs),
(916,400,o),
(767,331,o),
(531,331,cs),
(390,331,o),
(297,339,o),
(213,356,c),
(214,329,l),
(340,321,o),
(414,315,o),
(531,315,c),
(783,315,o),
(931,390,o),
(931,517,cs),
(931,637,o),
(784,708,o),
(535,708,c)
);
}
);
width = 1001;
}
);
metricLeft = H;
unicode = 80;
},
{
color = 4;
glyphname = Thorn;
kernLeft = HH;
kernRight = thorn;
lastChange = "2022-08-05 06:06:17 +0000";
layers = (
{
layerId = "2660E96A-9963-4076-AFCB-E451BC6EE103";
shapes = (
{
closed = 1;
nodes = (
(365,0,l),
(365,10,l),
(315,25,l),
(315,683,l),
(365,698,l),
(365,708,l),
(20,708,l),
(20,698,l),
(70,683,l),
(70,25,l),
(20,10,l),
(20,0,l)
);
},
{
closed = 1;
nodes = (
(568,185,o),
(745,238,o),
(745,394,cs),
(745,541,o),
(598,582,o),
(454,582,cs),
(402,582,o),
(338,576,o),
(305,574,c),
(305,558,l),
(322,561,o),
(360,562,o),
(369,562,cs),
(468,562,o),
(495,475,o),
(495,384,cs),
(495,261,o),
(407,196,o),
(333,196,cs),
(325,196,o),
(311,198,o),
(309,199,c),
(308,188,l),
(322,186,o),
(355,185,o),
(381,185,cs)
);
}
);
width = 775;
},
{
layerId = "DF54607F-DD82-41E6-B2E3-81CA6D0E5C47";
shapes = (
{
closed = 1;
nodes = (
(640,0,l),
(640,10,l),
(590,20,l),
(590,688,l),
(640,698,l),
(640,708,l),
(20,708,l),
(20,698,l),
(70,688,l),
(70,20,l),
(20,10,l),
(20,0,l)
);
},
{
closed = 1;
nodes = (
(1095,221,o),
(1310,291,o),
(1310,434,cs),
(1310,558,o),
(1119,618,o),
(729,618,cs),
(681,618,o),
(634,618,o),
(586,615,c),
(590,596,l),
(597,599,o),
(635,602,o),
(644,602,cs),
(729,602,o),
(770,544,o),
(770,424,cs),
(770,273,o),
(678,241,o),
(614,237,cs),
(597,236,o),
(591,238,o),
(584,241,c),
(583,224,l),
(597,222,o),
(630,220,o),
(656,221,c)
);
}
);
width = 1340;
},
{
layerId = "A5088515-37FF-452F-BD44-18A7A5EF88F0";
shapes = (
{
closed = 1;
nodes = (
(235,0,l),
(235,10,l),
(165,20,l),
(165,688,l),
(235,698,l),
(235,708,l),
(80,708,l),
(80,698,l),
(150,688,l),
(150,20,l),
(80,10,l),
(80,0,l)
);
},
{
closed = 1;
nodes = (
(490,185,o),
(574,260,o),
(574,387,cs),
(574,507,o),
(489,578,o),
(345,578,c),
(269,578,o),
(220,574,o),
(158,572,c),
(159,551,l),
(218,563,o),
(278,562,o),
(345,562,cs),
(480,562,o),
(559,497,o),
(559,387,cs),
(559,270,o),
(479,201,o),
(343,201,cs),
(261,201,o),
(207,209,o),
(159,226,c),
(159,199,l),
(232,191,o),
(275,185,o),
(343,185,cs)
);
}
);
width = 614;
},
{
layerId = "35A90D60-3AD4-435C-9F8B-D1CA483F6F66";
shapes = (
{
closed = 1;
nodes = (
(334,0,l),
(334,10,l),
(224,25,l),
(224,683,l),
(334,698,l),
(334,708,l),
(100,708,l),
(100,698,l),
(209,683,l),
(209,25,l),
(100,10,l),
(100,0,l)
);
},
{
closed = 1;
nodes = (
(780,180,o),
(928,255,o),
(928,382,cs),
(928,502,o),
(781,573,o),
(532,573,c),
(425,573,o),
(323,572,o),
(221,566,c),
(221,548,l),
(321,558,o),
(421,557,o),
(532,557,cs),
(765,557,o),
(913,492,o),
(913,382,cs),
(913,265,o),
(764,196,o),
(528,196,cs),
(387,196,o),
(294,204,o),
(210,221,c),
(211,194,l),
(337,186,o),
(411,180,o),
(528,180,c)
);
}
);
width = 998;
}
);
metricLeft = P;
metricRight = P;
unicode = 222;
},
{
color = 4;
glyphname = Q;
kernLeft = OO;
kernRight = O;
lastChange = "2022-08-05 06:06:17 +0000";
layers = (
{
layerId = "2660E96A-9963-4076-AFCB-E451BC6EE103";
shapes = (
{
closed = 1;
nodes = (
(389,-129,o),
(443,-215,o),
(529,-215,cs),
(625,-215,o),
(642,-89,o),
(645,-67,c),
(639,-65,l),
(635,-84,o),
(604,-120,o),
(532,-120,cs),
(468,-120,o),
(402,-91,o),
(384,-5,c),
(369,-5,l)
);
},
{
ref = O;
}
);
width = 800;
},
{
layerId = "DF54607F-DD82-41E6-B2E3-81CA6D0E5C47";
shapes = (
{
closed = 1;
nodes = (
(675,-129,o),
(767,-215,o),
(913,-215,cs),
(1076,-215,o),
(1105,-89,o),
(1111,-67,c),
(1100,-65,l),
(1093,-84,o),
(1041,-120,o),
(918,-120,cs),
(809,-120,o),
(697,-91,o),
(666,-5,c),
(640,-5,l)
);
},
{
ref = O;
}
);
width = 1368;
},
{
layerId = "A5088515-37FF-452F-BD44-18A7A5EF88F0";
shapes = (
{
closed = 1;
nodes = (
(413,-112,o),
(470,-165,o),
(554,-165,cs),
(616,-165,o),
(645,-132,o),
(655,-110,c),
(650,-105,l),
(650,-105,o),
(637,-151,o),
(554,-151,c),
(477,-151,o),
(424,-103,o),
(394,-5,c),
(380,-5,l)
);
},
{
ref = O;
}
);
width = 740;
},
{
layerId = "35A90D60-3AD4-435C-9F8B-D1CA483F6F66";
shapes = (
{
closed = 1;
nodes = (
(586,-112,o),
(666,-165,o),
(784,-165,cs),
(870,-165,o),
(911,-132,o),
(925,-110,c),
(918,-105,l),
(918,-105,o),
(900,-151,o),
(784,-151,c),
(676,-151,o),
(596,-103,o),
(554,-5,c),
(540,-5,l)
);
},
{
ref = O;
}
);
width = 1147;
}
);
metricLeft = O;
metricRight = O;
unicode = 81;
},
{
color = 4;
glyphname = R;
kernLeft = HH;
kernRight = R;
lastChange = "2022-08-05 06:06:17 +0000";
layers = (
{
layerId = "2660E96A-9963-4076-AFCB-E451BC6EE103";
shapes = (
{
closed = 1;
nodes = (
(656,-15,o),
(709,-8,o),
(745,22,c),
(745,32,l),
(738,32,o),
(731,35,o),
(724,41,cs),
(694,66,o),
(665,146,o),
(631,232,cs),
(597,320,o),
(511,354,o),
(363,354,c),
(363,364,l),
(549,374,o),
(725,407,o),
(725,544,cs),
(725,671,o),
(609,708,o),
(465,708,cs),
(20,708,l),
(20,698,l),
(70,689,l),
(70,20,l),
(20,10,l),
(20,0,l),
(365,0,l),
(365,10,l),
(315,20,l),
(315,353,l),
(340,353,l),
(378,236,o),
(413,145,o),
(437,98,cs),
(471,31,o),
(537,-15,o),
(625,-15,cs)
);
},
{
closed = 1;
nodes = (
(331,378,o),
(323,379,o),
(315,383,c),
(315,688,l),
(333,692,o),
(348,692,o),
(370,692,cs),
(446,692,o),
(489,637,o),
(489,538,cs),
(489,435,o),
(435,378,o),
(339,378,cs)
);
}
);
width = 750;
},
{
layerId = "DF54607F-DD82-41E6-B2E3-81CA6D0E5C47";
shapes = (
{
closed = 1;
nodes = (
(1244,-15,o),
(1357,-8,o),
(1433,22,c),
(1433,32,l),
(1422,32,o),
(1411,34,o),
(1400,37,cs),
(1334,57,o),
(1267,138,o),
(1191,232,cs),
(1126,312,o),
(944,354,o),
(662,354,c),
(662,364,l),
(1017,374,o),
(1391,407,o),
(1391,544,cs),
(1391,671,o),
(1144,708,o),
(839,708,cs),
(20,708,l),
(20,698,l),
(70,689,l),
(70,20,l),
(20,10,l),
(20,0,l),
(641,0,l),
(641,10,l),
(590,20,l),
(590,353,l),
(613,353,l),
(675,226,o),
(725,148,o),
(779,98,cs),
(851,31,o),
(991,-15,o),
(1178,-15,cs)
);
},
{
closed = 1;
nodes = (
(606,378,o),
(597,380,o),
(590,383,c),
(590,688,l),
(616,692,o),
(653,692,o),
(677,692,cs),
(843,692,o),
(890,617,o),
(890,538,cs),
(890,450,o),
(803,378,o),
(611,378,cs)
);
}
);
width = 1438;
},
{
layerId = "A5088515-37FF-452F-BD44-18A7A5EF88F0";
shapes = (
{
closed = 1;
nodes = (
(640,-15,o),
(651,-11,o),
(660,-4,c),
(660,6,l),
(652,2,o),
(644,0,o),
(637,0,cs),
(606,0,o),
(574,45,o),
(510,180,cs),
(462,283,o),
(423,332,o),
(378,345,c),
(378,350,l),
(467,364,o),
(574,416,o),
(574,532,cs),
(574,645,o),
(495,708,o),
(355,708,cs),
(80,708,l),
(80,698,l),
(150,683,l),
(150,25,l),
(80,10,l),
(80,0,l),
(235,0,l),
(235,10,l),
(165,25,l),
(165,343,l),
(324,343,l),
(390,343,o),
(443,291,o),
(498,171,cs),
(563,32,o),
(596,-15,o),
(630,-15,cs)
);
},
{
closed = 1;
nodes = (
(228,359,o),
(193,361,o),
(165,365,c),
(165,683,l),
(210,690,o),
(272,693,o),
(355,693,cs),
(486,693,o),
(559,635,o),
(559,532,cs),
(559,404,o),
(420,359,o),
(307,359,cs)
);
}
);
width = 665;
},
{
layerId = "35A90D60-3AD4-435C-9F8B-D1CA483F6F66";
shapes = (
{
closed = 1;
nodes = (
(973,-15,o),
(990,-13,o),
(1009,-4,c),
(1009,6,l),
(996,2,o),
(984,0,o),
(972,0,cs),
(890,0,o),
(845,67,o),
(761,180,cs),
(706,255,o),
(657,328,o),
(557,347,c),
(557,352,l),
(706,362,o),
(873,426,o),
(873,532,cs),
(873,650,o),
(758,708,o),
(525,708,cs),
(100,708,l),
(100,698,l),
(209,683,l),
(209,25,l),
(100,10,l),
(100,0,l),
(334,0,l),
(334,10,l),
(224,25,l),
(224,343,l),
(487,343,l),
(609,343,o),
(670,277,o),
(748,171,cs),
(816,79,o),
(871,-15,o),
(957,-15,cs)
);
},
{
closed = 1;
nodes = (
(324,359,o),
(268,361,o),
(224,365,c),
(224,683,l),
(295,690,o),
(394,693,o),
(525,693,cs),
(743,693,o),
(858,640,o),
(858,532,cs),
(858,414,o),
(628,359,o),
(449,359,cs)
);
}
);
width = 1034;
}
);
metricLeft = H;
unicode = 82;
},
{
color = 1;
glyphname = S;
kernLeft = SS;
kernRight = S;
lastChange = "2022-08-05 06:06:17 +0000";
layers = (
{
layerId = "2660E96A-9963-4076-AFCB-E451BC6EE103";
shapes = (
{
closed = 1;
nodes = (
(466,-15,o),
(650,30,o),
(650,186,cs),
(650,262,o),
(596,323,o),
(432,431,cs),
(267,541,o),
(212,590,o),
(212,630,cs),
(212,683,o),
(250,711,o),
(319,708,cs),
(382,706,o),
(433,654,o),
(508,502,cs),
(553,411,l),
(573,411,l),
(623,660,l),
(566,695,o),
(461,723,o),
(342,723,c),
(154,723,o),
(30,627,o),
(30,498,cs),
(30,429,o),
(90,364,o),
(271,235,cs),
(388,152,o),
(427,108,o),
(427,60,cs),
(427,22,o),
(402,0,o),
(358,0,c),
(297,0,o),
(233,43,o),
(176,139,cs),
(81,300,l),
(61,300,l),
(41,41,l),
(116,7,o),
(234,-15,o),
(332,-15,c)
);
}
);
width = 665;
},
{
background = {
shapes = (
{
closed = 1;
nodes = (
(839,-15,o),
(1180,30,o),
(1180,186,cs),
(1180,306,o),
(929,396,o),
(707,472,cs),
(528,532,o),
(368,582,o),
(368,630,cs),
(368,690,o),
(471,710,o),
(566,708,cs),
(652,706,o),
(760,649,o),
(859,579,cs),
(918,538,o),
(975,493,o),
(1021,452,cs),
(1067,411,l),
(1077,411,l),
(1140,660,l),
(1034,695,o),
(829,723,o),
(609,723,c),
(260,723,o),
(30,627,o),
(30,498,cs),
(30,391,o),
(237,301,o),
(431,227,cs),
(604,161,o),
(766,109,o),
(766,70,cs),
(766,24,o),
(731,0,o),
(638,0,c),
(508,0,o),
(392,59,o),
(268,149,cs),
(207,193,o),
(144,244,o),
(77,300,c),
(67,300,l),
(50,41,l),
(190,7,o),
(408,-15,o),
(590,-15,c)
);
}
);
};
layerId = "DF54607F-DD82-41E6-B2E3-81CA6D0E5C47";
shapes = (
{
closed = 1;
nodes = (
(839,-15,o),
(1180,30,o),
(1180,186,cs),
(1180,306,o),
(929,396,o),
(707,472,cs),
(528,532,o),
(368,582,o),
(368,630,cs),
(368,690,o),
(471,710,o),
(566,708,cs),
(665,705,o),
(809,637,o),
(962,503,cs),
(1067,411,l),
(1077,411,l),
(1140,660,l),
(1034,695,o),
(829,723,o),
(609,723,c),
(260,723,o),
(30,627,o),
(30,498,cs),
(30,391,o),
(237,301,o),
(431,227,cs),
(604,161,o),
(766,109,o),
(766,70,cs),
(766,24,o),
(731,0,o),
(638,0,c),
(508,0,o),
(388,54,o),
(268,149,cs),
(77,300,l),
(67,300,l),
(50,41,l),
(190,7,o),
(408,-15,o),
(590,-15,c)
);
}
);
width = 1195;
},
{
layerId = "A5088515-37FF-452F-BD44-18A7A5EF88F0";
shapes = (
{
closed = 1;
nodes = (
(503,-15,o),
(598,53,o),
(598,167,c),
(598,309,o),
(468,343,o),
(342,377,cs),
(222,408,o),
(105,439,o),
(105,561,c),
(105,653,o),
(189,708,o),
(331,708,cs),
(483,708,o),
(563,652,o),
(559,539,cs),
(556,451,l),
(566,451,l),
(586,630,l),
(528,683,o),
(438,723,o),
(331,723,cs),
(180,723,o),
(90,663,o),
(90,561,c),
(90,426,o),
(215,393,o),
(340,360,cs),
(462,327,o),
(583,295,o),
(583,167,c),
(583,62,o),
(494,0,o),
(343,0,cs),
(191,0,o),
(89,63,o),
(94,164,cs),
(100,280,l),
(90,280,l),
(70,81,l),
(155,20,o),
(253,-15,o),
(343,-15,cs)
);
}
);
width = 668;
},
{
layerId = "35A90D60-3AD4-435C-9F8B-D1CA483F6F66";
shapes = (
{
closed = 1;
nodes = (
(811,-15,o),
(968,53,o),
(968,167,c),
(968,299,o),
(755,336,o),
(545,373,cs),
(340,408,o),
(138,442,o),
(138,562,c),
(138,654,o),
(288,708,o),
(524,708,cs),
(778,708,o),
(934,653,o),
(918,557,cs),
(900,451,l),
(915,451,l),
(948,630,l),
(835,692,o),
(695,723,o),
(524,723,cs),
(272,723,o),
(123,663,o),
(123,561,c),
(123,433,o),
(334,396,o),
(544,360,cs),
(749,324,o),
(953,288,o),
(953,167,c),
(953,62,o),
(795,0,o),
(544,0,cs),
(285,0,o),
(109,62,o),
(122,159,cs),
(138,280,l),
(123,280,l),
(90,81,l),
(244,14,o),
(383,-15,o),
(544,-15,cs)
);
}
);
width = 1058;
}
);
unicode = 83;
},
{
color = 1;
glyphname = T;
kernLeft = T;
kernRight = TT;
lastChange = "2022-08-05 06:06:17 +0000";
layers = (
{
layerId = "2660E96A-9963-4076-AFCB-E451BC6EE103";
shapes = (
{
closed = 1;
nodes = (
(547,0,l),
(547,10,l),
(497,20,l),
(497,693,l),
(507,693,ls),
(547,693,o),
(591,643,o),
(629,554,cs),
(689,414,l),
(709,414,l),
(744,708,l),
(5,708,l),
(40,414,l),
(60,414,l),
(120,554,ls),
(157,643,o),
(201,693,o),
(242,693,cs),
(252,693,l),
(252,20,l),
(202,10,l),
(202,0,l)
);
}
);
width = 749;
},
{
layerId = "DF54607F-DD82-41E6-B2E3-81CA6D0E5C47";
shapes = (
{
closed = 1;
nodes = (
(1123,0,l),
(1123,10,l),
(1017,20,l),
(1017,693,l),
(1038,693,ls),
(1088,693,o),
(1171,643,o),
(1270,553,cs),
(1425,414,l),
(1435,414,l),
(1509,708,l),
(5,708,l),
(79,414,l),
(89,414,l),
(243,553,ls),
(342,643,o),
(426,693,o),
(476,693,cs),
(497,693,l),
(497,20,l),
(391,10,l),
(391,0,l)
);
}
);
width = 1514;
},
{
layerId = "A5088515-37FF-452F-BD44-18A7A5EF88F0";
shapes = (
{
closed = 1;
nodes = (
(428,0,l),
(428,10,l),
(358,25,l),
(358,693,l),
(526,693,ls),
(593,693,o),
(620,674,o),
(612,583,cs),
(602,464,l),
(617,464,l),
(641,708,l),
(60,708,l),
(84,464,l),
(99,464,l),
(90,589,ls),
(84,675,o),
(110,693,o),
(175,693,cs),
(343,693,l),
(343,25,l),
(273,10,l),
(273,0,l)
);
}
);
width = 701;
},
{
layerId = "35A90D60-3AD4-435C-9F8B-D1CA483F6F66";
shapes = (
{
closed = 1;
nodes = (
(658,0,l),
(658,10,l),
(548,25,l),
(548,693,l),
(861,693,ls),
(928,693,o),
(956,673,o),
(947,576,cs),
(937,464,l),
(952,464,l),
(976,708,l),
(105,708,l),
(129,464,l),
(144,464,l),
(136,578,ls),
(129,674,o),
(154,693,o),
(220,693,cs),
(533,693,l),
(533,25,l),
(424,10,l),
(424,0,l)
);
}
);
width = 1081;
}
);
unicode = 84;
},
{
color = 1;
glyphname = U;
kernLeft = UU;
kernRight = U;
lastChange = "2022-08-05 06:06:17 +0000";
layers = (
{
layerId = "2660E96A-9963-4076-AFCB-E451BC6EE103";
shapes = (
{
closed = 1;
nodes = (
(565,0,o),
(653,113,o),
(653,315,cs),
(653,689,l),
(723,698,l),
(723,708,l),
(418,708,l),
(418,698,l),
(534,608,o),
(633,413,o),
(633,287,cs),
(633,271,l),
(633,149,o),
(578,81,o),
(479,81,cs),
(375,81,o),
(317,171,o),
(315,332,c),
(315,689,l),
(375,698,l),
(375,708,l),
(20,708,l),
(20,698,l),
(70,689,l),
(70,303,l),
(71,108,o),
(181,0,o),
(387,0,cs)
);
}
);
width = 733;
},
{
layerId = "DF54607F-DD82-41E6-B2E3-81CA6D0E5C47";
shapes = (
{
closed = 1;
nodes = (
(1037,0,o),
(1198,113,o),
(1198,293,cs),
(1198,689,l),
(1247,698,l),
(1247,708,l),
(725,708,l),
(725,698,l),
(886,639,o),
(1181,477,o),
(1181,306,cs),
(1181,293,l),
(1181,160,o),
(1060,81,o),
(854,81,cs),
(689,81,o),
(590,174,o),
(586,332,c),
(586,689,l),
(623,698,l),
(623,708,l),
(20,708,l),
(20,698,l),
(66,689,l),
(66,293,l),
(68,108,o),
(302,0,o),
(739,0,cs)
);
}
);
width = 1257;
},
{
layerId = "A5088515-37FF-452F-BD44-18A7A5EF88F0";
shapes = (
{
closed = 1;
nodes = (
(555,-15,o),
(635,90,o),
(635,304,cs),
(635,683,l),
(705,698,l),
(705,708,l),
(510,708,l),
(510,698,l),
(592,698,o),
(619,664,o),
(619,562,cs),
(619,304,ls),
(619,100,o),
(544,0,o),
(391,0,cs),
(219,0,o),
(135,100,o),
(135,304,cs),
(135,683,l),
(205,698,l),
(205,708,l),
(50,708,l),
(50,698,l),
(120,683,l),
(120,304,ls),
(120,90,o),
(209,-15,o),
(391,-15,cs)
);
}
);
width = 740;
},
{
layerId = "35A90D60-3AD4-435C-9F8B-D1CA483F6F66";
shapes = (
{
closed = 1;
nodes = (
(842,-15,o),
(965,90,o),
(965,304,cs),
(965,683,l),
(1074,698,l),
(1074,708,l),
(783,708,l),
(783,698,l),
(908,698,o),
(950,664,o),
(950,562,cs),
(950,304,ls),
(950,100,o),
(832,0,o),
(590,0,cs),
(321,0,o),
(189,100,o),
(189,304,cs),
(189,683,l),
(299,698,l),
(299,708,l),
(65,708,l),
(65,698,l),
(174,683,l),
(174,304,ls),
(174,90,o),
(311,-15,o),
(590,-15,cs)
);
}
);
width = 1124;
}
);
unicode = 85;
},
{
color = 1;
glyphname = V;
kernLeft = VV;
kernRight = V;
lastChange = "2022-08-05 06:06:17 +0000";
layers = (
{
layerId = "2660E96A-9963-4076-AFCB-E451BC6EE103";
shapes = (
{
closed = 1;
nodes = (
(481,0,l),
(757,688,l),
(808,698,l),
(808,708,l),
(444,708,l),
(444,698,l),
(548,663,o),
(593,541,o),
(593,431,cs),
(593,359,o),
(574,270,o),
(539,182,c),
(537,177,l),
(524,177,l),
(318,689,l),
(390,698,l),
(390,708,l),
(5,708,l),
(5,698,l),
(53,688,l),
(329,0,l)
);
}
);
width = 813;
},
{
layerId = "DF54607F-DD82-41E6-B2E3-81CA6D0E5C47";
shapes = (
{
closed = 1;
nodes = (
(737,0,l),
(1194,688,l),
(1246,698,l),
(1246,708,l),
(677,708,l),
(677,698,l),
(810,653,o),
(872,533,o),
(872,388,cs),
(872,324,o),
(859,247,o),
(835,173,c),
(833,167,l),
(812,167,l),
(478,689,l),
(548,703,l),
(548,708,l),
(5,708,l),
(5,698,l),
(53,688,l),
(493,0,l)
);
}
);
width = 1251;
},
{
layerId = "A5088515-37FF-452F-BD44-18A7A5EF88F0";
shapes = (
{
closed = 1;
nodes = (
(354,0,l),
(609,683,l),
(679,698,l),
(679,708,l),
(482,708,l),
(482,698,l),
(553,698,o),
(577,688,o),
(577,656,cs),
(577,644,o),
(573,626,o),
(565,605,c),
(349,28,l),
(340,28,l),
(95,684,l),
(166,698,l),
(166,708,l),
(10,708,l),
(10,698,l),
(80,683,l),
(336,0,l)
);
}
);
width = 689;
},
{
layerId = "35A90D60-3AD4-435C-9F8B-D1CA483F6F66";
shapes = (
{
closed = 1;
nodes = (
(539,0,l),
(927,683,l),
(1034,698,l),
(1034,708,l),
(742,708,l),
(742,698,l),
(851,698,o),
(887,687,o),
(887,655,cs),
(887,643,o),
(881,625,o),
(869,605,c),
(540,28,l),
(525,28,l),
(152,684,l),
(260,698,l),
(260,708,l),
(30,708,l),
(30,698,l),
(137,683,l),
(527,0,l)
);
}
);
width = 1064;
}
);
unicode = 86;
},
{
color = 1;
glyphname = W;
kernLeft = VV;
kernRight = V;
lastChange = "2022-08-05 06:06:17 +0000";
layers = (
{
layerId = "2660E96A-9963-4076-AFCB-E451BC6EE103";
shapes = (
{
closed = 1;
nodes = (
(481,0,l),
(756,684,l),
(807,698,l),
(807,708,l),
(444,708,l),
(444,698,l),
(553,662,o),
(585,533,o),
(585,420,cs),
(585,344,o),
(569,262,o),
(541,187,c),
(537,177,l),
(524,177,l),
(320,684,l),
(390,698,l),
(390,708,l),
(5,708,l),
(5,698,l),
(55,683,l),
(329,0,l)
);
},
{
closed = 1;
nodes = (
(887,0,l),
(1160,683,l),
(1213,698,l),
(1213,708,l),
(850,708,l),
(850,698,l),
(959,659,o),
(1001,536,o),
(999,421,cs),
(997,355,o),
(981,277,o),
(947,188,c),
(943,177,l),
(930,177,l),
(733,666,l),
(591,360,l),
(735,0,l)
);
}
);
width = 1218;
},
{
layerId = "DF54607F-DD82-41E6-B2E3-81CA6D0E5C47";
shapes = (
{
closed = 1;
nodes = (
(737,0,l),
(1194,688,l),
(1246,698,l),
(1246,708,l),
(677,708,l),
(677,698,l),
(814,651,o),
(872,528,o),
(872,391,cs),
(872,325,o),
(860,252,o),
(837,179,c),
(833,167,l),
(812,167,l),
(478,689,l),
(548,703,l),
(548,708,l),
(5,708,l),
(5,698,l),
(53,688,l),
(493,0,l)
);
},
{
closed = 1;
nodes = (
(1355,0,l),
(1812,688,l),
(1864,698,l),
(1864,708,l),
(1295,708,l),
(1295,698,l),
(1426,653,o),
(1490,532,o),
(1490,393,cs),
(1490,326,o),
(1479,254,o),
(1456,181,c),
(1451,167,l),
(1430,167,l),
(1108,670,l),
(882,358,l),
(1111,0,l)
);
}
);
width = 1869;
},
{
layerId = "A5088515-37FF-452F-BD44-18A7A5EF88F0";
shapes = (
{
closed = 1;
nodes = (
(354,0,l),
(609,683,l),
(679,698,l),
(679,708,l),
(482,708,l),
(482,698,l),
(553,698,o),
(577,688,o),
(577,656,cs),
(577,643,o),
(573,627,o),
(565,605,c),
(349,28,l),
(340,28,l),
(95,684,l),
(166,698,l),
(166,708,l),
(10,708,l),
(10,698,l),
(80,683,l),
(336,0,l)
);
},
{
closed = 1;
nodes = (
(776,0,l),
(1031,683,l),
(1101,698,l),
(1101,708,l),
(904,708,l),
(904,698,l),
(975,698,o),
(999,688,o),
(999,656,cs),
(999,643,o),
(995,626,o),
(987,605,c),
(771,28,l),
(762,28,l),
(558,573,l),
(550,554,l),
(758,0,l)
);
}
);
width = 1111;
},
{
layerId = "35A90D60-3AD4-435C-9F8B-D1CA483F6F66";
shapes = (
{
closed = 1;
nodes = (
(539,0,l),
(927,683,l),
(1034,698,l),
(1034,708,l),
(742,708,l),
(742,698,l),
(851,698,o),
(887,687,o),
(887,655,cs),
(887,643,o),
(881,625,o),
(869,605,c),
(540,28,l),
(525,28,l),
(152,684,l),
(260,698,l),
(260,708,l),
(30,708,l),
(30,698,l),
(137,683,l),
(527,0,l)
);
},
{
closed = 1;
nodes = (
(1096,0,l),
(1484,683,l),
(1591,698,l),
(1591,708,l),
(1299,708,l),
(1299,698,l),
(1408,698,o),
(1444,688,o),
(1444,656,cs),
(1444,644,o),
(1438,626,o),
(1426,605,c),
(1097,28,l),
(1082,28,l),
(813,501,l),
(807,486,l),
(1084,0,l)
);
}
);
width = 1621;
}
);
metricLeft = V;
metricRight = V;
unicode = 87;
},
{
color = 0;
glyphname = X;
kernLeft = X;
kernRight = XX;
lastChange = "2022-08-05 06:06:17 +0000";
layers = (
{
layerId = "2660E96A-9963-4076-AFCB-E451BC6EE103";
shapes = (
{
closed = 1;
nodes = (
(838,0,l),
(838,10,l),
(771,20,l),
(357,689,l),
(430,698,l),
(430,708,l),
(5,708,l),
(5,698,l),
(72,688,l),
(486,20,l),
(413,10,l),
(413,0,l)
);
},
{
closed = 1;
nodes = (
(383,0,l),
(383,10,l),
(316,27,o),
(260,77,o),
(259,161,cs),
(259,199,o),
(270,239,o),
(299,278,cs),
(302,282,l),
(335,282,l),
(309,326,l),
(71,20,l),
(5,10,l),
(5,0,l)
);
},
{
closed = 1;
nodes = (
(527,397,l),
(789,689,l),
(838,698,l),
(838,708,l),
(477,708,l),
(477,698,l),
(545,682,o),
(587,609,o),
(586,550,cs),
(585,517,o),
(574,479,o),
(541,446,cs),
(535,440,l),
(501,440,l)
);
}
);
width = 843;
},
{
layerId = "DF54607F-DD82-41E6-B2E3-81CA6D0E5C47";
shapes = (
{
closed = 1;
nodes = (
(1364,0,l),
(1364,10,l),
(1297,20,l),
(603,689,l),
(676,698,l),
(676,708,l),
(5,708,l),
(5,698,l),
(72,688,l),
(766,20,l),
(692,10,l),
(692,0,l)
);
},
{
closed = 1;
nodes = (
(618,0,l),
(618,10,l),
(537,37,o),
(443,102,o),
(443,188,cs),
(443,217,o),
(455,246,o),
(479,278,cs),
(482,282,l),
(505,282,l),
(478,313,l),
(96,20,l),
(30,10,l),
(30,0,l)
);
},
{
closed = 1;
nodes = (
(878,410,l),
(1298,689,l),
(1347,698,l),
(1347,708,l),
(775,708,l),
(775,698,l),
(841,681,o),
(919,611,o),
(919,534,cs),
(919,505,o),
(907,474,o),
(879,446,cs),
(873,440,l),
(849,440,l)
);
}
);
width = 1369;
},
{
layerId = "A5088515-37FF-452F-BD44-18A7A5EF88F0";
shapes = (
{
closed = 1;
nodes = (
(660,0,l),
(660,10,l),
(590,25,l),
(109,684,l),
(179,698,l),
(179,708,l),
(25,708,l),
(25,698,l),
(95,683,l),
(574,25,l),
(504,10,l),
(504,0,l)
);
},
{
closed = 1;
nodes = (
(238,0,l),
(238,10,l),
(163,10,o),
(133,20,o),
(133,44,cs),
(133,58,o),
(145,79,o),
(164,105,cs),
(325,324,l),
(359,324,l),
(335,358,l),
(90,24,l),
(20,10,l),
(20,0,l)
);
},
{
closed = 1;
nodes = (
(348,353,l),
(591,684,l),
(661,698,l),
(661,708,l),
(449,708,l),
(449,698,l),
(526,698,o),
(554,689,o),
(554,667,cs),
(554,643,o),
(517,603,o),
(474,545,cs),
(351,378,l),
(329,378,l)
);
}
);
width = 681;
},
{
layerId = "35A90D60-3AD4-435C-9F8B-D1CA483F6F66";
shapes = (
{
closed = 1;
nodes = (
(978,0,l),
(978,10,l),
(870,25,l),
(171,684,l),
(279,698,l),
(279,708,l),
(44,708,l),
(44,698,l),
(152,683,l),
(848,25,l),
(739,10,l),
(739,0,l)
);
},
{
closed = 1;
nodes = (
(375,0,l),
(375,10,l),
(258,10,o),
(212,20,o),
(212,44,cs),
(212,58,o),
(230,79,o),
(260,105,cs),
(509,324,l),
(535,324,l),
(513,345,l),
(148,24,l),
(40,10,l),
(40,0,l)
);
},
{
closed = 1;
nodes = (
(528,344,l),
(915,684,l),
(1023,698,l),
(1023,708,l),
(698,708,l),
(698,698,l),
(817,698,o),
(860,689,o),
(860,667,cs),
(860,643,o),
(802,603,o),
(736,545,cs),
(534,367,l),
(504,367,l)
);
}
);
width = 1063;
}
);
unicode = 88;
},
{
color = 9;
glyphname = Y;
kernLeft = VV;
kernRight = V;
lastChange = "2022-08-05 06:06:17 +0000";
layers = (
{
layerId = "2660E96A-9963-4076-AFCB-E451BC6EE103";
shapes = (
{
closed = 1;
nodes = (
(566,0,l),
(566,10,l),
(516,25,l),
(515,319,l),
(709,688,l),
(757,698,l),
(757,708,l),
(473,708,l),
(473,698,l),
(528,656,o),
(579,604,o),
(579,529,cs),
(579,489,o),
(560,429,o),
(523,364,cs),
(519,357,l),
(499,357,l),
(326,689,l),
(408,698,l),
(408,708,l),
(5,708,l),
(5,698,l),
(53,688,l),
(271,272,l),
(271,25,l),
(221,10,l),
(221,0,l)
);
}
);
width = 762;
},
{
layerId = "DF54607F-DD82-41E6-B2E3-81CA6D0E5C47";
shapes = (
{
closed = 1;
nodes = (
(1057,0,l),
(1057,10,l),
(1007,25,l),
(1007,320,l),
(1392,688,l),
(1440,698,l),
(1440,708,l),
(923,708,l),
(923,698,l),
(988,643,o),
(1055,589,o),
(1055,500,cs),
(1055,463,o),
(1043,408,o),
(1010,355,cs),
(1005,347,l),
(993,347,l),
(635,689,l),
(719,698,l),
(719,708,l),
(5,708,l),
(5,698,l),
(53,688,l),
(487,273,l),
(487,25,l),
(437,10,l),
(437,0,l)
);
}
);
width = 1445;
},
{
layerId = "A5088515-37FF-452F-BD44-18A7A5EF88F0";
shapes = (
{
closed = 1;
nodes = (
(392,0,l),
(392,10,l),
(322,25,l),
(322,303,l),
(549,683,l),
(616,698,l),
(616,708,l),
(425,708,l),
(425,698,l),
(492,698,o),
(514,689,o),
(514,662,cs),
(514,655,o),
(511,646,o),
(506,637,cs),
(323,331,l),
(306,331,l),
(95,684,l),
(165,698,l),
(165,708,l),
(10,708,l),
(10,698,l),
(80,683,l),
(307,303,l),
(307,25,l),
(237,10,l),
(237,0,l)
);
}
);
width = 626;
},
{
layerId = "35A90D60-3AD4-435C-9F8B-D1CA483F6F66";
shapes = (
{
closed = 1;
nodes = (
(624,0,l),
(624,10,l),
(513,25,l),
(513,305,l),
(869,683,l),
(975,698,l),
(975,708,l),
(680,708,l),
(680,698,l),
(786,698,o),
(821,689,o),
(821,663,cs),
(821,656,o),
(816,646,o),
(808,637,cs),
(519,331,l),
(490,331,l),
(157,684,l),
(267,698,l),
(267,708,l),
(30,708,l),
(30,698,l),
(140,683,l),
(498,303,l),
(498,25,l),
(387,10,l),
(387,0,l)
);
}
);
width = 1005;
}
);
metricLeft = V;
metricRight = V;
unicode = 89;
},
{
color = 1;
glyphname = Z;
kernLeft = ZZ;
kernRight = Z;
lastChange = "2022-08-05 06:06:17 +0000";
layers = (
{
layerId = "2660E96A-9963-4076-AFCB-E451BC6EE103";
shapes = (
{
closed = 1;
nodes = (
(664,0,l),
(629,304,l),
(609,304,l),
(561,193,ls),
(509,75,o),
(452,16,o),
(389,16,c),
(283,16,l),
(682,708,l),
(48,708,l),
(83,403,l),
(103,403,l),
(165,537,ls),
(213,640,o),
(266,691,o),
(323,691,c),
(419,692,l),
(20,0,l)
);
}
);
width = 702;
},
{
layerId = "DF54607F-DD82-41E6-B2E3-81CA6D0E5C47";
shapes = (
{
closed = 1;
nodes = (
(1318,0,l),
(1226,304,l),
(1216,304,l),
(1102,188,ls),
(975,59,o),
(864,16,o),
(658,16,c),
(609,16,l),
(1300,708,l),
(50,707,l),
(112,403,l),
(122,403,l),
(267,519,ls),
(411,634,o),
(538,691,o),
(650,691,c),
(691,692,l),
(20,0,l)
);
}
);
width = 1338;
},
{
layerId = "A5088515-37FF-452F-BD44-18A7A5EF88F0";
shapes = (
{
closed = 1;
nodes = (
(602,0,l),
(572,260,l),
(562,260,l),
(568,168,ls),
(576,39,o),
(558,15,o),
(520,15,cs),
(81,15,l),
(616,708,l),
(80,708,l),
(106,464,l),
(116,464,l),
(114,570,ls),
(112,671,o),
(125,693,o),
(161,693,cs),
(584,693,l),
(50,0,l)
);
}
);
width = 666;
},
{
layerId = "35A90D60-3AD4-435C-9F8B-D1CA483F6F66";
shapes = (
{
closed = 1;
nodes = (
(962,0,l),
(932,260,l),
(922,260,l),
(928,159,ls),
(935,37,o),
(918,15,o),
(880,15,cs),
(119,15,l),
(985,708,l),
(118,708,l),
(144,464,l),
(154,464,l),
(151,564,ls),
(148,667,o),
(160,693,o),
(189,693,cs),
(944,693,l),
(80,0,l)
);
}
);
width = 1065;
}
);
unicode = 90;
},
{
color = 4;
glyphname = a;
kernLeft = a;
kernRight = a;
lastChange = "2022-08-05 06:06:17 +0000";
layers = (
{
layerId = "2660E96A-9963-4076-AFCB-E451BC6EE103";
shapes = (
{
closed = 1;
nodes = (
(174,515,o),
(33,439,o),
(33,364,cs),
(33,306,o),
(89,275,o),
(166,275,cs),
(245,275,o),
(302,306,o),
(302,364,cs),
(302,397,o),
(278,421,o),
(229,437,cs),
(180,453,o),
(164,461,o),
(164,469,cs),
(164,477,o),
(197,494,o),
(246,494,cs),
(342,494,o),
(356,453,o),
(356,279,c),
(139,279,o),
(10,213,o),
(10,101,cs),
(10,33,o),
(66,-15,o),
(144,-15,cs),
(226,-15,o),
(302,50,o),
(349,160,c),
(356,154,l),
(356,146,o),
(356,143,o),
(356,140,cs),
(356,28,o),
(420,-15,o),
(516,-15,cs),
(562,-15,o),
(615,-1,o),
(643,20,c),
(643,30,l),
(624,19,o),
(611,14,o),
(603,14,cs),
(594,14,o),
(591,22,o),
(591,32,cs),
(591,325,ls),
(591,453,o),
(512,515,o),
(331,515,cs)
);
},
{
closed = 1;
nodes = (
(356,198,l),
(320,100,o),
(281,65,o),
(254,65,cs),
(234,65,o),
(224,83,o),
(224,119,cs),
(224,179,o),
(260,259,o),
(356,269,c)
);
}
);
width = 648;
},
{
layerId = "DF54607F-DD82-41E6-B2E3-81CA6D0E5C47";
shapes = (
{
closed = 1;
nodes = (
(287,515,o),
(30,455,o),
(30,370,cs),
(30,316,o),
(131,282,o),
(293,282,cs),
(489,282,o),
(594,322,o),
(594,391,cs),
(594,420,o),
(576,444,o),
(539,462,cs),
(507,477,o),
(496,484,o),
(496,490,cs),
(496,500,o),
(514,505,o),
(549,505,cs),
(657,505,o),
(678,440,o),
(678,279,c),
(240,279,o),
(10,224,o),
(10,111,cs),
(10,32,o),
(111,-15,o),
(281,-15,cs),
(522,-15,o),
(611,29,o),
(671,166,c),
(678,159,l),
(678,146,o),
(678,143,o),
(678,140,cs),
(678,36,o),
(786,-15,o),
(1007,-15,cs),
(1105,-15,o),
(1206,-1,o),
(1250,20,c),
(1250,30,l),
(1230,23,o),
(1217,20,o),
(1209,20,cs),
(1201,20,o),
(1198,25,o),
(1198,35,cs),
(1198,295,ls),
(1198,471,o),
(1101,515,o),
(653,515,cs)
);
},
{
closed = 1;
nodes = (
(678,208,l),
(650,124,o),
(604,66,o),
(574,66,cs),
(549,66,o),
(536,91,o),
(536,124,cs),
(536,184,o),
(582,269,o),
(678,269,c)
);
}
);
width = 1255;
},
{
layerId = "A5088515-37FF-452F-BD44-18A7A5EF88F0";
shapes = (
{
closed = 1;
nodes = (
(195,515,o),
(93,454,o),
(93,398,cs),
(93,370,o),
(119,357,o),
(145,357,cs),
(171,357,o),
(197,370,o),
(197,395,cs),
(197,410,o),
(189,421,o),
(172,430,cs),
(151,440,o),
(144,445,o),
(144,451,cs),
(144,470,o),
(209,500,o),
(302,500,cs),
(427,500,o),
(477,425,o),
(477,262,c),
(203,262,o),
(68,205,o),
(70,91,cs),
(71,15,o),
(129,-16,o),
(203,-15,cs),
(297,-15,o),
(416,40,o),
(467,136,c),
(477,130,l),
(477,113,o),
(477,109,o),
(477,43,cs),
(477,4,o),
(490,-15,o),
(519,-15,cs),
(545,-15,o),
(574,-2,o),
(596,20,c),
(596,31,l),
(573,13,o),
(545,0,o),
(523,0,cs),
(505,0,o),
(491,10,o),
(491,37,cs),
(491,262,ls),
(491,436,o),
(437,515,o),
(302,515,cs)
);
},
{
closed = 1;
nodes = (
(477,183,l),
(433,63,o),
(302,-2,o),
(203,-3,cs),
(136,-3,o),
(84,25,o),
(84,91,cs),
(84,196,o),
(214,248,o),
(477,248,c)
);
}
);
width = 626;
},
{
layerId = "35A90D60-3AD4-435C-9F8B-D1CA483F6F66";
shapes = (
{
closed = 1;
nodes = (
(292,515,o),
(129,454,o),
(129,398,cs),
(129,370,o),
(172,357,o),
(215,357,cs),
(258,357,o),
(302,370,o),
(302,395,cs),
(302,411,o),
(288,422,o),
(259,430,cs),
(225,439,o),
(213,444,o),
(213,451,cs),
(213,470,o),
(321,500,o),
(476,500,cs),
(684,500,o),
(767,425,o),
(767,262,c),
(311,262,o),
(87,205,o),
(90,91,cs),
(92,15,o),
(188,-16,o),
(311,-15,cs),
(468,-15,o),
(658,37,o),
(755,143,c),
(767,135,l),
(767,118,o),
(767,109,o),
(767,43,cs),
(767,4,o),
(787,-15,o),
(828,-15,cs),
(871,-15,o),
(919,-2,o),
(956,20,c),
(956,31,l),
(917,13,o),
(869,0,o),
(833,0,cs),
(803,0,o),
(781,9,o),
(781,37,cs),
(781,262,ls),
(781,436,o),
(701,515,o),
(476,515,cs)
);
},
{
closed = 1;
nodes = (
(767,183,l),
(694,63,o),
(476,-2,o),
(311,-3,cs),
(200,-3,o),
(104,25,o),
(104,91,cs),
(104,196,o),
(324,248,o),
(767,248,c)
);
}
);
width = 996;
}
);
unicode = 97;
},
{
color = 4;
glyphname = ae;
kernLeft = a;
kernRight = o;
lastChange = "2022-08-05 06:06:17 +0000";
layers = (
{
layerId = "2660E96A-9963-4076-AFCB-E451BC6EE103";
shapes = (
{
closed = 1;
nodes = (
(226,-15,o),
(305,61,o),
(352,171,c),
(364,171,l),
(390,63,o),
(477,-15,o),
(629,-15,cs),
(703,-15,o),
(824,-1,o),
(895,148,c),
(881,157,l),
(854,93,o),
(784,53,o),
(735,53,cs),
(654,53,o),
(599,132,o),
(592,251,cs),
(591,256,o),
(591,261,o),
(591,266,c),
(913,266,l),
(913,393,o),
(833,515,o),
(647,515,cs),
(594,515,o),
(536,505,o),
(485,477,c),
(451,501,o),
(401,515,o),
(331,515,cs),
(174,515,o),
(33,439,o),
(33,364,cs),
(33,306,o),
(89,275,o),
(166,275,cs),
(245,275,o),
(302,306,o),
(302,364,cs),
(302,397,o),
(278,421,o),
(229,437,cs),
(180,453,o),
(164,461,o),
(164,469,cs),
(164,477,o),
(197,494,o),
(246,494,cs),
(342,494,o),
(356,453,o),
(356,279,c),
(139,279,o),
(10,213,o),
(10,101,cs),
(10,33,o),
(66,-15,o),
(144,-15,cs)
);
},
{
closed = 1;
nodes = (
(234,65,o),
(224,83,o),
(224,119,cs),
(224,179,o),
(260,259,o),
(356,269,c),
(356,198,l),
(320,100,o),
(281,65,o),
(254,65,cs)
);
},
{
closed = 1;
nodes = (
(595,448,o),
(606,505,o),
(646,505,cs),
(693,505,o),
(697,436,o),
(696,296,c),
(591,276,l)
);
}
);
width = 933;
},
{
layerId = "DF54607F-DD82-41E6-B2E3-81CA6D0E5C47";
shapes = (
{
closed = 1;
nodes = (
(502,-15,o),
(611,16,o),
(677,179,c),
(689,179,l),
(737,56,o),
(935,-15,o),
(1240,-15,cs),
(1573,-15,o),
(1747,46,o),
(1846,148,c),
(1832,157,l),
(1741,59,o),
(1553,30,o),
(1398,75,cs),
(1294,106,o),
(1219,177,o),
(1204,248,cs),
(1203,254,o),
(1202,260,o),
(1202,266,c),
(1854,266,l),
(1854,423,o),
(1660,515,o),
(1298,515,cs),
(1166,515,o),
(1048,502,o),
(951,476,c),
(899,501,o),
(810,515,o),
(653,515,cs),
(287,515,o),
(30,455,o),
(30,370,cs),
(30,316,o),
(131,282,o),
(293,282,cs),
(489,282,o),
(594,322,o),
(594,391,cs),
(594,420,o),
(576,444,o),
(539,462,cs),
(507,477,o),
(496,484,o),
(496,490,cs),
(496,500,o),
(512,505,o),
(549,505,cs),
(657,505,o),
(678,440,o),
(678,279,c),
(240,279,o),
(10,224,o),
(10,111,cs),
(10,32,o),
(111,-15,o),
(281,-15,cs)
);
},
{
closed = 1;
nodes = (
(549,66,o),
(536,91,o),
(536,124,cs),
(536,184,o),
(582,269,o),
(678,269,c),
(678,208,l),
(650,124,o),
(604,66,o),
(574,66,cs)
);
},
{
closed = 1;
nodes = (
(1201,451,o),
(1227,505,o),
(1267,505,cs),
(1324,505,o),
(1328,436,o),
(1327,296,c),
(1202,277,l)
);
}
);
width = 1879;
},
{
layerId = "A5088515-37FF-452F-BD44-18A7A5EF88F0";
shapes = (
{
closed = 1;
nodes = (
(302,-15,o),
(430,46,o),
(475,153,c),
(491,153,l),
(522,51,o),
(606,-15,o),
(714,-15,cs),
(827,-15,o),
(905,31,o),
(952,125,c),
(945,135,l),
(897,44,o),
(821,-1,o),
(714,-1,cs),
(583,-1,o),
(491,102,o),
(491,248,cs),
(491,258,o),
(491,267,o),
(492,276,c),
(939,276,l),
(940,426,o),
(859,515,o),
(722,515,cs),
(605,515,o),
(517,442,o),
(488,332,c),
(474,457,o),
(417,515,o),
(302,515,cs),
(195,515,o),
(93,454,o),
(93,398,cs),
(93,370,o),
(119,357,o),
(145,357,cs),
(171,357,o),
(197,370,o),
(197,395,cs),
(197,409,o),
(189,421,o),
(172,430,cs),
(151,441,o),
(144,446,o),
(144,451,cs),
(144,470,o),
(209,500,o),
(302,500,cs),
(427,500,o),
(477,425,o),
(477,262,c),
(201,262,o),
(68,206,o),
(70,91,cs),
(71,15,o),
(129,-16,o),
(203,-15,cs)
);
},
{
closed = 1;
nodes = (
(136,-3,o),
(84,25,o),
(84,91,cs),
(84,196,o),
(213,248,o),
(477,248,c),
(477,183,l),
(433,63,o),
(302,-2,o),
(203,-3,cs)
);
},
{
closed = 1;
nodes = (
(508,414,o),
(599,500,o),
(722,500,cs),
(847,500,o),
(922,422,o),
(925,290,c),
(493,286,l)
);
}
);
width = 1017;
},
{
layerId = "35A90D60-3AD4-435C-9F8B-D1CA483F6F66";
shapes = (
{
closed = 1;
nodes = (
(477,-15,o),
(680,43,o),
(770,161,c),
(786,161,l),
(835,55,o),
(976,-15,o),
(1169,-15,cs),
(1365,-15,o),
(1498,33,o),
(1580,127,c),
(1570,135,l),
(1486,44,o),
(1354,-1,o),
(1169,-1,cs),
(941,-1,o),
(781,102,o),
(781,248,cs),
(781,258,o),
(782,267,o),
(783,276,c),
(1559,276,l),
(1561,426,o),
(1420,515,o),
(1183,515,cs),
(970,515,o),
(819,435,o),
(778,316,c),
(762,452,o),
(676,515,o),
(476,515,cs),
(292,515,o),
(129,454,o),
(129,398,cs),
(129,370,o),
(172,357,o),
(215,357,cs),
(258,357,o),
(302,370,o),
(302,395,cs),
(302,410,o),
(288,422,o),
(259,430,cs),
(225,439,o),
(213,445,o),
(213,451,cs),
(213,470,o),
(321,500,o),
(476,500,cs),
(684,500,o),
(767,425,o),
(767,262,c),
(308,262,o),
(87,206,o),
(90,91,cs),
(92,15,o),
(188,-16,o),
(311,-15,cs)
);
},
{
closed = 1;
nodes = (
(200,-3,o),
(104,25,o),
(104,91,cs),
(104,196,o),
(328,248,o),
(767,248,c),
(767,183,l),
(694,63,o),
(476,-2,o),
(311,-3,cs)
);
},
{
closed = 1;
nodes = (
(811,414,o),
(969,500,o),
(1183,500,cs),
(1399,500,o),
(1540,422,o),
(1545,290,c),
(785,286,l)
);
}
);
width = 1645;
}
);
metricLeft = a;
metricRight = e;
unicode = 230;
},
{
color = 1;
glyphname = b;
kernLeft = ll;
kernRight = o;
lastChange = "2022-08-05 06:06:17 +0000";
layers = (
{
layerId = "2660E96A-9963-4076-AFCB-E451BC6EE103";
shapes = (
{
closed = 1;
nodes = (
(72,-15,l),
(148,90,l),
(158,90,l),
(190,45,o),
(244,-15,o),
(364,-15,cs),
(508,-15,o),
(656,56,o),
(656,276,cs),
(656,394,o),
(610,515,o),
(486,515,cs),
(417,515,o),
(357,487,o),
(305,344,c),
(297,352,l),
(297,745,l),
(12,705,l),
(12,694,l),
(62,694,l),
(62,-15,l)
);
},
{
closed = 1;
nodes = (
(328,0,o),
(297,25,o),
(297,170,cs),
(297,289,l),
(319,363,o),
(348,430,o),
(377,430,cs),
(411,430,o),
(416,376,o),
(416,241,cs),
(416,108,o),
(402,0,o),
(354,0,cs)
);
}
);
width = 676;
},
{
layerId = "DF54607F-DD82-41E6-B2E3-81CA6D0E5C47";
shapes = (
{
closed = 1;
nodes = (
(72,-15,l),
(223,90,l),
(233,90,l),
(333,28,o),
(528,-15,o),
(690,-15,cs),
(1034,-15,o),
(1237,93,o),
(1237,276,cs),
(1237,416,o),
(1098,515,o),
(902,515,cs),
(760,515,o),
(655,459,o),
(590,344,c),
(582,352,l),
(582,745,l),
(12,705,l),
(12,694,l),
(62,694,l),
(62,-15,l)
);
},
{
closed = 1;
nodes = (
(598,0,o),
(582,63,o),
(582,170,cs),
(582,300,l),
(619,378,o),
(643,408,o),
(670,408,cs),
(701,408,o),
(712,362,o),
(712,241,cs),
(712,69,o),
(691,0,o),
(640,0,cs)
);
}
);
width = 1262;
},
{
layerId = "A5088515-37FF-452F-BD44-18A7A5EF88F0";
shapes = (
{
closed = 1;
nodes = (
(140,-15,l),
(144,90,l),
(154,90,l),
(203,19,o),
(279,-15,o),
(345,-15,cs),
(483,-15,o),
(564,85,o),
(564,255,cs),
(564,418,o),
(489,515,o),
(363,515,cs),
(243,515,o),
(173,399,o),
(152,354,c),
(144,362,l),
(144,745,l),
(60,715,l),
(60,704,l),
(130,704,l),
(130,-15,l)
);
},
{
closed = 1;
nodes = (
(264,0,o),
(144,71,o),
(144,179,cs),
(144,293,l),
(182,424,o),
(273,501,o),
(363,500,cs),
(483,499,o),
(550,408,o),
(550,255,cs),
(550,95,o),
(471,0,o),
(345,0,cs)
);
}
);
width = 629;
},
{
layerId = "35A90D60-3AD4-435C-9F8B-D1CA483F6F66";
shapes = (
{
closed = 1;
nodes = (
(200,-15,l),
(204,102,l),
(213,107,l),
(299,18,o),
(446,-15,o),
(564,-15,cs),
(794,-15,o),
(956,97,o),
(956,255,cs),
(956,407,o),
(807,515,o),
(596,515,cs),
(382,515,o),
(256,399,o),
(219,346,c),
(204,355,l),
(204,745,l),
(70,715,l),
(70,704,l),
(190,704,l),
(190,-15,l)
);
},
{
closed = 1;
nodes = (
(402,0,o),
(204,75,o),
(204,183,cs),
(204,293,l),
(272,424,o),
(435,501,o),
(596,500,cs),
(799,499,o),
(942,398,o),
(942,255,cs),
(942,106,o),
(785,0,o),
(564,0,cs)
);
}
);
width = 1021;
}
);
metricLeft = n;
metricRight = o;
unicode = 98;
},
{
color = 4;
glyphname = c;
kernLeft = oo;
kernRight = o;
lastChange = "2022-08-05 06:06:17 +0000";
layers = (
{
layerId = "2660E96A-9963-4076-AFCB-E451BC6EE103";
shapes = (
{
closed = 1;
nodes = (
(378,-15,o),
(494,-7,o),
(573,148,c),
(559,157,l),
(532,93,o),
(461,53,o),
(412,53,cs),
(314,53,o),
(256,139,o),
(256,285,cs),
(256,396,o),
(305,505,o),
(389,505,cs),
(420,505,o),
(445,495,o),
(445,483,cs),
(445,474,o),
(423,465,o),
(383,456,cs),
(336,446,o),
(307,415,o),
(307,374,cs),
(307,316,o),
(364,285,o),
(443,285,cs),
(520,285,o),
(576,316,o),
(576,374,cs),
(576,469,o),
(465,515,o),
(358,515,cs),
(147,515,o),
(20,413,o),
(20,240,cs),
(20,91,o),
(134,-15,o),
(294,-15,cs)
);
}
);
width = 596;
},
{
layerId = "DF54607F-DD82-41E6-B2E3-81CA6D0E5C47";
shapes = (
{
closed = 1;
nodes = (
(920,-15,o),
(1094,46,o),
(1193,148,c),
(1179,157,l),
(1116,89,o),
(1006,54,o),
(893,54,cs),
(634,54,o),
(550,187,o),
(550,308,cs),
(550,424,o),
(608,505,o),
(691,505,cs),
(715,505,o),
(734,500,o),
(734,492,cs),
(734,486,o),
(718,475,o),
(688,461,cs),
(655,445,o),
(636,420,o),
(636,391,cs),
(636,322,o),
(741,282,o),
(937,282,cs),
(1091,282,o),
(1200,323,o),
(1200,380,cs),
(1200,465,o),
(959,515,o),
(645,515,cs),
(280,515,o),
(25,413,o),
(25,240,cs),
(25,80,o),
(234,-15,o),
(587,-15,cs)
);
}
);
width = 1225;
},
{
layerId = "A5088515-37FF-452F-BD44-18A7A5EF88F0";
shapes = (
{
closed = 1;
nodes = (
(415,-15,o),
(493,31,o),
(540,125,c),
(533,135,l),
(485,44,o),
(409,-1,o),
(302,-1,cs),
(171,-1,o),
(79,102,o),
(79,248,cs),
(79,396,o),
(175,500,o),
(310,500,cs),
(403,500,o),
(458,470,o),
(458,453,cs),
(458,447,o),
(451,441,o),
(437,433,cs),
(416,423,o),
(405,410,o),
(405,395,cs),
(405,370,o),
(431,357,o),
(457,357,cs),
(483,357,o),
(509,370,o),
(509,398,cs),
(509,467,o),
(414,515,o),
(310,515,cs),
(166,515,o),
(65,404,o),
(65,248,cs),
(65,94,o),
(163,-15,o),
(302,-15,cs)
);
}
);
width = 605;
},
{
layerId = "35A90D60-3AD4-435C-9F8B-D1CA483F6F66";
shapes = (
{
closed = 1;
nodes = (
(673,-15,o),
(806,33,o),
(888,127,c),
(878,135,l),
(794,44,o),
(662,-1,o),
(477,-1,cs),
(249,-1,o),
(79,102,o),
(79,248,cs),
(79,396,o),
(256,500,o),
(491,500,cs),
(652,500,o),
(757,470,o),
(757,453,cs),
(757,448,o),
(740,440,o),
(709,431,cs),
(675,422,o),
(656,409,o),
(656,395,cs),
(656,370,o),
(701,357,o),
(746,357,cs),
(791,357,o),
(836,370,o),
(836,398,cs),
(836,467,o),
(671,515,o),
(491,515,cs),
(240,515,o),
(65,404,o),
(65,248,cs),
(65,94,o),
(235,-15,o),
(477,-15,cs)
);
}
);
width = 953;
}
);
metricLeft = o;
metricRight = o;
unicode = 99;
},
{
color = 4;
glyphname = d;
kernLeft = oo;
kernRight = l;
lastChange = "2022-08-05 06:06:17 +0000";
layers = (
{
layerId = "2660E96A-9963-4076-AFCB-E451BC6EE103";
shapes = (
{
closed = 1;
nodes = (
(348,705,l),
(348,694,l),
(398,694,l),
(398,435,l),
(388,452,o),
(346,515,o),
(235,515,cs),
(122,515,o),
(20,438,o),
(20,230,cs),
(20,92,o),
(96,-15,o),
(217,-15,cs),
(319,-15,o),
(371,99,o),
(390,156,c),
(398,148,l),
(398,-15,l),
(683,25,l),
(683,36,l),
(633,36,l),
(633,745,l)
);
},
{
closed = 1;
nodes = (
(362,467,o),
(398,429,o),
(398,341,cs),
(398,209,l),
(383,162,o),
(352,60,o),
(308,60,cs),
(276,60,o),
(260,111,o),
(260,260,cs),
(260,378,o),
(281,467,o),
(332,467,cs)
);
}
);
width = 693;
},
{
layerId = "DF54607F-DD82-41E6-B2E3-81CA6D0E5C47";
shapes = (
{
closed = 1;
nodes = (
(638,705,l),
(638,694,l),
(688,694,l),
(688,425,l),
(658,478,o),
(537,515,o),
(395,515,cs),
(178,515,o),
(25,397,o),
(25,230,cs),
(25,76,o),
(148,-15,o),
(357,-15,cs),
(525,-15,o),
(644,49,o),
(680,156,c),
(688,148,l),
(688,-15,l),
(1258,25,l),
(1258,36,l),
(1208,36,l),
(1208,745,l)
);
},
{
closed = 1;
nodes = (
(652,465,o),
(688,429,o),
(688,341,cs),
(688,209,l),
(673,162,o),
(642,80,o),
(598,80,cs),
(566,80,o),
(550,111,o),
(550,260,cs),
(550,378,o),
(571,465,o),
(622,465,cs)
);
}
);
width = 1268;
},
{
layerId = "A5088515-37FF-452F-BD44-18A7A5EF88F0";
shapes = (
{
closed = 1;
nodes = (
(415,705,l),
(415,694,l),
(485,694,l),
(485,389,l),
(454,468,o),
(369,514,o),
(294,514,cs),
(160,514,o),
(65,404,o),
(65,249,cs),
(65,94,o),
(150,-15,o),
(271,-15,cs),
(367,-15,o),
(437,49,o),
(477,146,c),
(485,138,l),
(485,-15,l),
(569,25,l),
(569,35,l),
(499,35,l),
(499,745,l)
);
},
{
closed = 1;
nodes = (
(415,499,o),
(485,391,o),
(485,310,cs),
(485,220,l),
(458,117,o),
(390,-1,o),
(271,0,cs),
(155,1,o),
(76,104,o),
(80,249,cs),
(83,395,o),
(171,499,o),
(294,499,cs)
);
}
);
width = 619;
},
{
layerId = "35A90D60-3AD4-435C-9F8B-D1CA483F6F66";
shapes = (
{
closed = 1;
nodes = (
(718,715,l),
(718,704,l),
(838,704,l),
(838,369,l),
(783,462,o),
(630,514,o),
(460,514,cs),
(224,514,o),
(65,416,o),
(65,249,cs),
(65,83,o),
(224,-15,o),
(430,-15,cs),
(633,-15,o),
(759,72,o),
(827,167,c),
(838,161,l),
(838,-15,l),
(972,16,l),
(972,26,l),
(852,26,l),
(852,745,l)
);
},
{
closed = 1;
nodes = (
(713,499,o),
(838,391,o),
(838,310,cs),
(838,220,l),
(790,117,o),
(668,-1,o),
(430,0,cs),
(233,1,o),
(79,93,o),
(79,249,cs),
(79,406,o),
(233,499,o),
(460,499,cs)
);
}
);
width = 1042;
}
);
metricLeft = o;
metricRight = l;
unicode = 100;
},
{
color = 4;
glyphname = eth;
kernLeft = oo;
kernRight = o;
lastChange = "2022-08-05 06:06:17 +0000";
layers = (
{
layerId = "2660E96A-9963-4076-AFCB-E451BC6EE103";
shapes = (
{
closed = 1;
nodes = (
(510,-15,o),
(610,111,o),
(610,288,cs),
(610,514,o),
(417,715,o),
(172,745,c),
(162,733,l),
(249,666,o),
(308,594,o),
(338,517,c),
(335,514,l),
(329,515,o),
(322,515,o),
(316,515,cs),
(133,515,o),
(20,400,o),
(20,246,cs),
(20,111,o),
(113,-15,o),
(316,-15,cs)
);
},
{
closed = 1;
nodes = (
(265,-5,o),
(260,122,o),
(260,246,cs),
(260,379,o),
(267,505,o),
(316,505,cs),
(367,505,o),
(370,379,o),
(370,246,cs),
(370,120,o),
(361,-5,o),
(316,-5,cs)
);
},
{
closed = 1;
nodes = (
(434,711,l),
(429,721,l),
(211,576,l),
(220,568,l)
);
}
);
width = 630;
},
{
layerId = "DF54607F-DD82-41E6-B2E3-81CA6D0E5C47";
shapes = (
{
closed = 1;
nodes = (
(1096,-15,o),
(1314,111,o),
(1314,288,cs),
(1314,513,o),
(893,714,o),
(357,745,c),
(335,733,l),
(481,694,o),
(651,599,o),
(720,517,c),
(718,514,l),
(705,515,o),
(685,515,o),
(672,515,cs),
(272,515,o),
(25,400,o),
(25,246,cs),
(25,111,o),
(228,-15,o),
(672,-15,cs)
);
},
{
closed = 1;
nodes = (
(560,-5,o),
(549,122,o),
(549,246,cs),
(549,379,o),
(565,505,o),
(672,505,cs),
(783,505,o),
(790,379,o),
(790,246,cs),
(790,120,o),
(770,-5,o),
(672,-5,cs)
);
},
{
closed = 1;
nodes = (
(778,711,l),
(773,721,l),
(555,576,l),
(564,568,l)
);
}
);
width = 1339;
},
{
layerId = "A5088515-37FF-452F-BD44-18A7A5EF88F0";
shapes = (
{
closed = 1;
nodes = (
(415,-15,o),
(495,82,o),
(495,246,cs),
(495,479,o),
(372,658,o),
(154,745,c),
(146,735,l),
(278,684,o),
(390,583,o),
(435,463,c),
(428,459,l),
(388,496,o),
(338,515,o),
(279,515,cs),
(144,515,o),
(65,415,o),
(65,246,cs),
(65,82,o),
(144,-15,o),
(279,-15,cs)
);
},
{
closed = 1;
nodes = (
(153,0,o),
(79,91,o),
(79,246,cs),
(79,406,o),
(153,500,o),
(279,500,cs),
(406,500,o),
(481,406,o),
(481,246,cs),
(481,91,o),
(406,0,o),
(279,0,cs)
);
},
{
closed = 1;
nodes = (
(375,714,l),
(370,724,l),
(211,618,l),
(220,610,l)
);
}
);
width = 560;
},
{
layerId = "35A90D60-3AD4-435C-9F8B-D1CA483F6F66";
shapes = (
{
closed = 1;
nodes = (
(700,-15,o),
(845,82,o),
(845,246,cs),
(845,475,o),
(606,668,o),
(226,745,c),
(212,735,l),
(463,681,o),
(645,592,o),
(754,453,c),
(742,445,l),
(661,497,o),
(557,515,o),
(453,515,cs),
(208,515,o),
(65,415,o),
(65,246,cs),
(65,82,o),
(208,-15,o),
(453,-15,cs)
);
},
{
closed = 1;
nodes = (
(225,0,o),
(79,91,o),
(79,246,cs),
(79,406,o),
(225,500,o),
(453,500,cs),
(684,500,o),
(831,406,o),
(831,246,cs),
(831,91,o),
(684,0,o),
(453,0,cs)
);
},
{
closed = 1;
nodes = (
(548,714,l),
(543,724,l),
(384,618,l),
(393,610,l)
);
}
);
width = 910;
}
);
metricLeft = o;
metricRight = o;
unicode = 240;
},
{
color = 1;
glyphname = e;
kernLeft = oo;
kernRight = o;
lastChange = "2022-08-05 06:06:17 +0000";
layers = (
{
layerId = "2660E96A-9963-4076-AFCB-E451BC6EE103";
shapes = (
{
closed = 1;
nodes = (
(144,515,o),
(20,413,o),
(20,240,cs),
(20,119,o),
(113,-15,o),
(297,-15,cs),
(371,-15,o),
(492,-1,o),
(563,148,c),
(549,157,l),
(522,93,o),
(452,53,o),
(403,53,cs),
(299,53,o),
(257,178,o),
(259,276,cs),
(258,451,o),
(274,505,o),
(314,505,cs),
(362,505,o),
(365,431,o),
(364,296,c),
(255,276,l),
(255,266,l),
(581,266,l),
(581,393,o),
(501,515,o),
(315,515,cs)
);
}
);
width = 601;
},
{
layerId = "DF54607F-DD82-41E6-B2E3-81CA6D0E5C47";
shapes = (
{
closed = 1;
nodes = (
(280,515,o),
(25,413,o),
(25,240,cs),
(25,80,o),
(234,-15,o),
(587,-15,cs),
(920,-15,o),
(1094,46,o),
(1193,148,c),
(1179,157,l),
(1088,59,o),
(900,30,o),
(745,75,cs),
(627,110,o),
(547,196,o),
(549,276,cs),
(548,451,o),
(574,505,o),
(614,505,cs),
(673,505,o),
(675,430,o),
(674,296,c),
(545,276,l),
(545,266,l),
(1201,266,l),
(1201,423,o),
(1007,515,o),
(645,515,cs)
);
}
);
width = 1226;
},
{
layerId = "A5088515-37FF-452F-BD44-18A7A5EF88F0";
shapes = (
{
closed = 1;
nodes = (
(166,515,o),
(65,404,o),
(65,248,cs),
(65,94,o),
(163,-15,o),
(302,-15,cs),
(415,-15,o),
(493,31,o),
(540,125,c),
(533,135,l),
(485,44,o),
(409,-1,o),
(302,-1,cs),
(171,-1,o),
(79,102,o),
(79,248,cs),
(79,396,o),
(175,500,o),
(310,500,cs),
(437,500,o),
(513,419,o),
(513,290,c),
(79,286,l),
(79,276,l),
(527,276,l),
(528,426,o),
(447,515,o),
(310,515,cs)
);
}
);
width = 605;
},
{
layerId = "35A90D60-3AD4-435C-9F8B-D1CA483F6F66";
shapes = (
{
closed = 1;
nodes = (
(230,515,o),
(65,404,o),
(65,248,cs),
(65,94,o),
(225,-15,o),
(467,-15,cs),
(663,-15,o),
(796,33,o),
(878,127,c),
(868,135,l),
(784,44,o),
(652,-1,o),
(467,-1,cs),
(239,-1,o),
(79,102,o),
(79,248,cs),
(79,396,o),
(246,500,o),
(481,500,cs),
(701,500,o),
(843,419,o),
(843,290,c),
(79,286,l),
(79,276,l),
(857,276,l),
(859,426,o),
(718,515,o),
(481,515,cs)
);
}
);
width = 943;
}
);
metricLeft = o;
metricRight = o;
unicode = 101;
},
{
color = 1;
glyphname = f;
kernLeft = f;
kernRight = f;
lastChange = "2022-08-05 06:06:17 +0000";
layers = (
{
layerId = "2660E96A-9963-4076-AFCB-E451BC6EE103";
shapes = (
{
closed = 1;
nodes = (
(345,0,l),
(345,10,l),
(295,20,l),
(295,485,l),
(385,485,l),
(385,500,l),
(295,500,l),
(284,584,o),
(268,631,o),
(268,671,cs),
(268,711,o),
(283,735,o),
(333,735,cs),
(362,735,o),
(374,733,o),
(374,726,cs),
(374,715,o),
(355,704,o),
(336,689,cs),
(317,673,o),
(297,653,o),
(297,624,cs),
(297,566,o),
(354,535,o),
(433,535,cs),
(510,535,o),
(566,566,o),
(566,624,cs),
(566,703,o),
(462,745,o),
(330,745,cs),
(194,745,o),
(110,709,o),
(79,637,cs),
(63,600,o),
(60,544,o),
(60,500,c),
(10,490,l),
(10,480,l),
(60,480,l),
(60,20,l),
(10,10,l),
(10,0,l)
);
}
);
width = 416;
},
{
layerId = "DF54607F-DD82-41E6-B2E3-81CA6D0E5C47";
shapes = (
{
closed = 1;
nodes = (
(630,0,l),
(630,10,l),
(580,20,l),
(580,485,l),
(670,485,l),
(670,500,l),
(580,500,l),
(569,574,o),
(554,630,o),
(554,670,cs),
(554,710,o),
(569,734,o),
(618,734,cs),
(637,734,o),
(642,730,o),
(642,722,cs),
(642,712,o),
(627,699,o),
(610,684,cs),
(593,667,o),
(574,649,o),
(574,631,cs),
(574,562,o),
(679,538,o),
(875,538,cs),
(1029,538,o),
(1138,563,o),
(1138,620,cs),
(1138,705,o),
(897,745,o),
(615,745,cs),
(343,745,o),
(207,718,o),
(122,649,cs),
(81,616,o),
(61,552,o),
(60,500,c),
(10,490,l),
(10,480,l),
(60,480,l),
(60,20,l),
(10,10,l),
(10,0,l)
);
}
);
width = 738;
},
{
layerId = "A5088515-37FF-452F-BD44-18A7A5EF88F0";
shapes = (
{
closed = 1;
nodes = (
(224,0,l),
(224,10,l),
(144,20,l),
(144,480,l),
(279,480,l),
(279,490,l),
(144,500,l),
(140,540,o),
(136,603,o),
(136,637,cs),
(136,704,o),
(162,734,o),
(221,734,cs),
(246,734,o),
(254,731,o),
(254,725,cs),
(254,720,o),
(246,712,o),
(237,701,cs),
(228,690,o),
(218,676,o),
(218,661,cs),
(218,636,o),
(244,623,o),
(270,623,cs),
(296,623,o),
(322,636,o),
(322,664,cs),
(322,713,o),
(279,745,o),
(221,745,cs),
(152,745,o),
(122,712,o),
(122,637,cs),
(122,602,o),
(127,541,o),
(130,500,c),
(60,490,l),
(60,480,l),
(130,480,l),
(130,20,l),
(60,10,l),
(60,0,l)
);
}
);
width = 342;
},
{
layerId = "35A90D60-3AD4-435C-9F8B-D1CA483F6F66";
shapes = (
{
closed = 1;
nodes = (
(445,0,l),
(445,10,l),
(258,20,l),
(258,480,l),
(524,480,l),
(524,490,l),
(258,500,l),
(249,544,o),
(232,611,o),
(232,649,cs),
(232,708,o),
(294,734,o),
(437,734,cs),
(497,734,o),
(515,731,o),
(515,725,cs),
(514,719,o),
(496,711,o),
(477,700,cs),
(459,689,o),
(441,676,o),
(441,661,cs),
(441,636,o),
(492,623,o),
(553,623,cs),
(623,623,o),
(664,638,o),
(664,664,cs),
(664,713,o),
(574,745,o),
(437,745,cs),
(285,745,o),
(218,716,o),
(218,649,cs),
(218,612,o),
(235,546,o),
(244,500,c),
(95,490,l),
(95,480,l),
(244,480,l),
(244,20,l),
(80,10,l),
(80,0,l)
);
}
);
width = 604;
}
);
metricLeft = l;
unicode = 102;
},
{
color = 0;
glyphname = g;
kernLeft = g;
kernRight = gg;
lastChange = "2022-08-05 06:06:17 +0000";
layers = (
{
layerId = "2660E96A-9963-4076-AFCB-E451BC6EE103";
shapes = (
{
closed = 1;
nodes = (
(477,-215,o),
(614,-171,o),
(614,-45,cs),
(614,123,o),
(266,122,o),
(212,122,c),
(202,132,l),
(236,155,l),
(227,161,l),
(91,66,l),
(91,51,l),
(163,51,o),
(378,59,o),
(378,-76,cs),
(378,-148,o),
(315,-202,o),
(225,-201,cs),
(209,-201,o),
(188,-198,o),
(170,-194,cs),
(146,-188,o),
(126,-180,o),
(126,-172,cs),
(126,-161,o),
(165,-155,o),
(194,-142,cs),
(226,-128,o),
(257,-103,o),
(257,-50,cs),
(257,-1,o),
(214,36,o),
(140,36,cs),
(69,36,o),
(20,-12,o),
(20,-77,cs),
(20,-144,o),
(99,-215,o),
(265,-215,cs)
);
},
{
closed = 1;
nodes = (
(538,145,o),
(614,232,o),
(614,318,cs),
(614,442,o),
(450,515,o),
(317,515,cs),
(152,515,o),
(20,433,o),
(20,318,cs),
(20,191,o),
(159,145,o),
(312,145,cs)
);
},
{
closed = 1;
nodes = (
(270,155,o),
(260,208,o),
(260,298,c),
(260,405,o),
(269,505,o),
(317,505,c),
(368,505,o),
(374,405,o),
(374,298,c),
(374,206,o),
(364,155,o),
(317,155,c)
);
},
{
closed = 1;
nodes = (
(387,515,l),
(598,515,l),
(535,656,l),
(515,615,o),
(404,509,o),
(320,509,c),
(387,495,l)
);
}
);
width = 644;
},
{
layerId = "DF54607F-DD82-41E6-B2E3-81CA6D0E5C47";
shapes = (
{
closed = 1;
nodes = (
(974,-215,o),
(1223,-152,o),
(1223,-45,cs),
(1223,60,o),
(966,122,o),
(530,122,c),
(520,132,l),
(554,155,l),
(545,161,l),
(409,66,l),
(409,51,l),
(481,51,o),
(696,59,o),
(696,-76,cs),
(696,-148,o),
(629,-206,o),
(539,-205,cs),
(527,-205,o),
(517,-204,o),
(508,-202,cs),
(495,-200,o),
(486,-196,o),
(486,-192,cs),
(486,-184,o),
(510,-174,o),
(534,-159,cs),
(559,-144,o),
(584,-123,o),
(584,-91,cs),
(584,-22,o),
(479,18,o),
(283,18,cs),
(129,18,o),
(20,-23,o),
(20,-80,cs),
(20,-165,o),
(218,-215,o),
(553,-215,cs)
);
},
{
closed = 1;
nodes = (
(974,145,o),
(1216,216,o),
(1216,318,cs),
(1216,434,o),
(976,515,o),
(635,515,cs),
(294,515,o),
(54,434,o),
(54,318,cs),
(54,216,o),
(292,145,o),
(630,145,cs)
);
},
{
closed = 1;
nodes = (
(602,155,o),
(578,214,o),
(578,298,c),
(578,419,o),
(602,505,o),
(635,505,c),
(668,505,o),
(692,419,o),
(692,298,c),
(692,214,o),
(668,155,o),
(635,155,c)
);
},
{
closed = 1;
nodes = (
(815,515,l),
(1156,515,l),
(1093,656,l),
(1073,615,o),
(832,509,o),
(638,509,c),
(815,495,l)
);
}
);
width = 1253;
},
{
layerId = "A5088515-37FF-452F-BD44-18A7A5EF88F0";
shapes = (
{
closed = 1;
nodes = (
(399,-215,o),
(490,-157,o),
(490,-65,cs),
(490,43,o),
(396,79,o),
(112,79,c),
(112,87,l),
(214,178,l),
(202,188,l),
(81,80,l),
(81,65,l),
(377,65,o),
(476,33,o),
(476,-65,cs),
(476,-148,o),
(390,-200,o),
(254,-200,cs),
(214,-200,o),
(180,-195,o),
(153,-187,cs),
(110,-176,o),
(86,-160,o),
(86,-151,cs),
(86,-141,o),
(100,-137,o),
(114,-130,cs),
(127,-123,o),
(139,-114,o),
(139,-95,cs),
(139,-70,o),
(113,-57,o),
(87,-57,cs),
(61,-57,o),
(35,-70,o),
(35,-98,cs),
(35,-157,o),
(150,-215,o),
(254,-215,cs)
);
},
{
closed = 1;
nodes = (
(392,172,o),
(480,238,o),
(480,332,c),
(481,439,o),
(393,515,o),
(266,515,c),
(139,515,o),
(50,439,o),
(50,332,c),
(50,238,o),
(139,172,o),
(266,172,c)
);
},
{
closed = 1;
nodes = (
(147,187,o),
(64,247,o),
(64,332,cs),
(64,431,o),
(147,500,o),
(266,500,c),
(383,500,o),
(466,431,o),
(466,332,cs),
(466,247,o),
(383,187,o),
(266,187,c)
);
},
{
closed = 1;
nodes = (
(357,503,l),
(495,503,l),
(495,518,l),
(433,516,o),
(370,514,o),
(308,512,c),
(357,490,l)
);
}
);
width = 560;
},
{
layerId = "35A90D60-3AD4-435C-9F8B-D1CA483F6F66";
shapes = (
{
closed = 1;
nodes = (
(726,-215,o),
(886,-157,o),
(886,-65,cs),
(886,43,o),
(712,79,o),
(203,79,c),
(203,87,l),
(390,183,l),
(372,188,l),
(166,82,l),
(166,65,l),
(696,65,o),
(872,33,o),
(872,-65,cs),
(872,-148,o),
(717,-200,o),
(471,-200,cs),
(410,-200,o),
(357,-196,o),
(313,-190,cs),
(225,-179,o),
(175,-160,o),
(175,-151,cs),
(175,-141,o),
(202,-137,o),
(226,-129,cs),
(248,-122,o),
(268,-113,o),
(268,-95,cs),
(268,-70,o),
(222,-57,o),
(177,-57,cs),
(131,-57,o),
(85,-70,o),
(85,-98,cs),
(85,-157,o),
(287,-215,o),
(471,-215,cs)
);
},
{
closed = 1;
nodes = (
(713,172,o),
(869,238,o),
(869,332,c),
(870,439,o),
(714,515,o),
(492,515,c),
(268,515,o),
(111,439,o),
(111,332,c),
(111,238,o),
(268,172,o),
(492,172,c)
);
},
{
closed = 1;
nodes = (
(277,187,o),
(125,247,o),
(125,332,cs),
(125,431,o),
(277,500,o),
(492,500,c),
(705,500,o),
(855,431,o),
(855,332,cs),
(855,247,o),
(705,187,o),
(492,187,c)
);
},
{
closed = 1;
nodes = (
(648,503,l),
(895,503,l),
(895,518,l),
(783,515,o),
(671,513,o),
(559,510,c),
(648,490,l)
);
}
);
width = 990;
}
);
unicode = 103;
},
{
color = 4;
glyphname = h;
kernLeft = ll;
kernRight = n;
lastChange = "2022-08-05 06:06:17 +0000";
layers = (
{
layerId = "2660E96A-9963-4076-AFCB-E451BC6EE103";
shapes = (
{
closed = 1;
nodes = (
(640,20,l),
(640,340,ls),
(640,434,o),
(610,515,o),
(487,515,cs),
(387,515,o),
(337,440,o),
(303,344,c),
(295,352,l),
(295,745,l),
(10,705,l),
(10,694,l),
(60,694,l),
(60,20,l),
(10,10,l),
(10,0,l),
(335,0,l),
(335,10,l),
(295,20,l),
(295,290,l),
(300,311,o),
(338,440,o),
(375,440,cs),
(391,440,o),
(405,416,o),
(405,375,cs),
(405,20,l),
(365,10,l),
(365,0,l),
(690,0,l),
(690,10,l)
);
}
);
width = 700;
},
{
layerId = "DF54607F-DD82-41E6-B2E3-81CA6D0E5C47";
shapes = (
{
closed = 1;
nodes = (
(1230,20,l),
(1230,340,ls),
(1230,469,o),
(1090,516,o),
(939,515,cs),
(769,514,o),
(654,458,o),
(588,344,c),
(580,352,l),
(580,745,l),
(10,705,l),
(10,694,l),
(60,694,l),
(60,20,l),
(10,10,l),
(10,0,l),
(630,0,l),
(630,10,l),
(580,20,l),
(580,310,l),
(609,368,o),
(652,415,o),
(680,416,cs),
(698,416,o),
(710,399,o),
(710,355,cs),
(710,20,l),
(670,10,l),
(670,0,l),
(1280,0,l),
(1280,10,l)
);
}
);
width = 1290;
},
{
layerId = "A5088515-37FF-452F-BD44-18A7A5EF88F0";
shapes = (
{
closed = 1;
nodes = (
(539,20,l),
(539,338,ls),
(539,457,o),
(494,515,o),
(403,515,cs),
(314,515,o),
(224,454,o),
(152,344,c),
(144,350,l),
(144,745,l),
(60,715,l),
(60,704,l),
(130,704,l),
(130,20,l),
(70,10,l),
(70,0,l),
(204,0,l),
(204,10,l),
(144,20,l),
(144,300,l),
(200,417,o),
(307,500,o),
(403,500,cs),
(485,500,o),
(525,447,o),
(525,338,cs),
(525,20,l),
(465,10,l),
(465,0,l),
(599,0,l),
(599,10,l)
);
}
);
width = 639;
},
{
layerId = "35A90D60-3AD4-435C-9F8B-D1CA483F6F66";
shapes = (
{
closed = 1;
nodes = (
(895,20,l),
(895,338,ls),
(895,457,o),
(822,515,o),
(648,515,cs),
(507,515,o),
(355,447,o),
(228,334,c),
(214,341,l),
(214,745,l),
(80,715,l),
(80,704,l),
(200,704,l),
(200,20,l),
(90,10,l),
(90,0,l),
(324,0,l),
(324,10,l),
(214,20,l),
(214,300,l),
(317,404,o),
(475,500,o),
(648,500,cs),
(805,500,o),
(881,447,o),
(881,338,cs),
(881,20,l),
(771,10,l),
(771,0,l),
(1005,0,l),
(1005,10,l)
);
}
);
width = 1055;
}
);
metricLeft = l;
metricRight = n;
unicode = 104;
},
{
color = 4;
glyphname = i;
kernLeft = ii;
kernRight = i;
lastChange = "2022-08-05 06:06:17 +0000";
layers = (
{
layerId = "2660E96A-9963-4076-AFCB-E451BC6EE103";
shapes = (
{
closed = 1;
nodes = (
(345,0,l),
(345,10,l),
(295,20,l),
(295,515,l),
(10,475,l),
(10,464,l),
(60,464,l),
(60,20,l),
(10,10,l),
(10,0,l)
);
},
{
closed = 1;
nodes = (
(250,529,o),
(303,571,o),
(303,626,cs),
(303,683,o),
(250,723,o),
(175,723,cs),
(99,723,o),
(48,683,o),
(48,626,cs),
(48,571,o),
(99,529,o),
(175,529,cs)
);
}
);
width = 355;
},
{
layerId = "DF54607F-DD82-41E6-B2E3-81CA6D0E5C47";
shapes = (
{
closed = 1;
nodes = (
(630,0,l),
(630,10,l),
(580,20,l),
(580,515,l),
(10,475,l),
(10,464,l),
(60,464,l),
(60,20,l),
(10,10,l),
(10,0,l)
);
},
{
closed = 1;
nodes = (
(485,529,o),
(585,565,o),
(585,626,cs),
(585,687,o),
(485,723,o),
(316,723,cs),
(149,723,o),
(50,687,o),
(50,626,cs),
(50,565,o),
(149,529,o),
(316,529,cs)
);
}
);
width = 640;
},
{
layerId = "A5088515-37FF-452F-BD44-18A7A5EF88F0";
shapes = (
{
closed = 1;
nodes = (
(204,0,l),
(204,10,l),
(144,20,l),
(144,515,l),
(60,485,l),
(60,474,l),
(130,474,l),
(130,20,l),
(70,10,l),
(70,0,l)
);
},
{
closed = 1;
nodes = (
(156,576,o),
(178,593,o),
(178,618,cs),
(178,645,o),
(156,661,o),
(129,661,cs),
(101,661,o),
(78,645,o),
(78,618,cs),
(78,593,o),
(101,576,o),
(129,576,cs)
);
}
);
width = 274;
},
{
layerId = "35A90D60-3AD4-435C-9F8B-D1CA483F6F66";
shapes = (
{
closed = 1;
nodes = (
(324,0,l),
(324,10,l),
(214,20,l),
(214,515,l),
(80,485,l),
(80,474,l),
(200,474,l),
(200,20,l),
(90,10,l),
(90,0,l)
);
},
{
closed = 1;
nodes = (
(229,576,o),
(258,593,o),
(258,618,cs),
(258,645,o),
(229,661,o),
(194,661,cs),
(158,661,o),
(128,645,o),
(128,618,cs),
(128,593,o),
(158,576,o),
(194,576,cs)
);
}
);
width = 404;
}
);
metricLeft = l;
unicode = 105;
},
{
color = 4;
glyphname = dotlessi;
kernLeft = nn;
kernRight = n;
lastChange = "2022-08-05 06:06:17 +0000";
layers = (
{
layerId = "2660E96A-9963-4076-AFCB-E451BC6EE103";
shapes = (
{
closed = 1;
nodes = (
(345,0,l),
(345,10,l),
(295,20,l),
(295,515,l),
(10,475,l),
(10,464,l),
(60,464,l),
(60,20,l),
(10,10,l),
(10,0,l)
);
}
);
width = 355;
},
{
layerId = "DF54607F-DD82-41E6-B2E3-81CA6D0E5C47";
shapes = (
{
closed = 1;
nodes = (
(630,0,l),
(630,10,l),
(580,20,l),
(580,515,l),
(10,475,l),
(10,464,l),
(60,464,l),
(60,20,l),
(10,10,l),
(10,0,l)
);
}
);
width = 640;
},
{
layerId = "A5088515-37FF-452F-BD44-18A7A5EF88F0";
shapes = (
{
closed = 1;
nodes = (
(204,0,l),
(204,10,l),
(144,20,l),
(144,515,l),
(60,485,l),
(60,474,l),
(130,474,l),
(130,20,l),
(70,10,l),
(70,0,l)
);
}
);
width = 254;
},
{
layerId = "35A90D60-3AD4-435C-9F8B-D1CA483F6F66";
shapes = (
{
closed = 1;
nodes = (
(324,0,l),
(324,10,l),
(214,20,l),
(214,515,l),
(80,485,l),
(80,474,l),
(200,474,l),
(200,20,l),
(90,10,l),
(90,0,l)
);
}
);
width = 394;
}
);
metricLeft = i;
metricRight = l;
unicode = 305;
},
{
color = 4;
glyphname = j;
kernLeft = ii;
lastChange = "2022-08-05 06:06:17 +0000";
layers = (
{
layerId = "2660E96A-9963-4076-AFCB-E451BC6EE103";
shapes = (
{
closed = 1;
nodes = (
(166,-215,o),
(250,-179,o),
(281,-107,cs),
(297,-70,o),
(300,-26,o),
(300,10,cs),
(300,515,l),
(15,475,l),
(15,464,l),
(65,464,l),
(65,10,l),
(76,-44,o),
(92,-101,o),
(92,-141,cs),
(92,-181,o),
(77,-205,o),
(27,-205,cs),
(-2,-205,o),
(-14,-203,o),
(-14,-196,cs),
(-14,-185,o),
(5,-174,o),
(24,-159,cs),
(43,-143,o),
(63,-123,o),
(63,-94,cs),
(63,-36,o),
(6,-15,o),
(-73,-15,cs),
(-150,-15,o),
(-206,-36,o),
(-206,-94,cs),
(-206,-173,o),
(-102,-215,o),
(30,-215,cs)
);
},
{
closed = 1;
nodes = (
(257,529,o),
(310,571,o),
(310,626,cs),
(310,683,o),
(257,723,o),
(182,723,cs),
(106,723,o),
(55,683,o),
(55,626,cs),
(55,571,o),
(106,529,o),
(182,529,cs)
);
}
);
width = 355;
},
{
layerId = "DF54607F-DD82-41E6-B2E3-81CA6D0E5C47";
shapes = (
{
closed = 1;
nodes = (
(302,-215,o),
(438,-188,o),
(523,-119,cs),
(564,-86,o),
(585,-44,o),
(585,10,cs),
(585,515,l),
(15,475,l),
(15,464,l),
(65,464,l),
(65,20,l),
(76,-44,o),
(91,-100,o),
(91,-140,cs),
(91,-180,o),
(76,-204,o),
(27,-204,cs),
(8,-204,o),
(3,-200,o),
(3,-192,cs),
(3,-182,o),
(18,-169,o),
(35,-154,cs),
(52,-137,o),
(71,-119,o),
(71,-101,cs),
(71,-32,o),
(-34,-18,o),
(-230,-18,cs),
(-384,-18,o),
(-493,-33,o),
(-493,-90,cs),
(-493,-175,o),
(-252,-215,o),
(30,-215,cs)
);
},
{
closed = 1;
nodes = (
(479,529,o),
(590,571,o),
(590,626,cs),
(590,683,o),
(479,723,o),
(321,723,cs),
(162,723,o),
(55,683,o),
(55,626,cs),
(55,571,o),
(162,529,o),
(321,529,cs)
);
}
);
width = 635;
},
{
layerId = "A5088515-37FF-452F-BD44-18A7A5EF88F0";
shapes = (
{
closed = 1;
nodes = (
(165,-215,o),
(195,-182,o),
(195,-107,cs),
(195,-72,o),
(190,-41,o),
(187,0,c),
(187,515,l),
(103,485,l),
(103,474,l),
(173,474,l),
(173,0,l),
(177,-40,o),
(181,-73,o),
(181,-107,cs),
(181,-174,o),
(155,-204,o),
(96,-204,cs),
(71,-204,o),
(63,-201,o),
(63,-195,cs),
(63,-190,o),
(71,-182,o),
(80,-171,cs),
(89,-160,o),
(99,-146,o),
(99,-131,cs),
(99,-106,o),
(73,-93,o),
(47,-93,cs),
(21,-93,o),
(-5,-106,o),
(-5,-134,cs),
(-5,-183,o),
(38,-215,o),
(96,-215,cs)
);
},
{
closed = 1;
nodes = (
(199,576,o),
(221,593,o),
(221,618,cs),
(221,645,o),
(199,661,o),
(172,661,cs),
(144,661,o),
(121,645,o),
(121,618,cs),
(121,593,o),
(144,576,o),
(172,576,cs)
);
}
);
width = 311;
},
{
layerId = "35A90D60-3AD4-435C-9F8B-D1CA483F6F66";
shapes = (
{
closed = 1;
nodes = (
(183,-215,o),
(250,-186,o),
(250,-119,cs),
(250,-82,o),
(233,-46,o),
(224,0,c),
(224,515,l),
(90,485,l),
(90,474,l),
(210,474,l),
(210,0,l),
(219,-44,o),
(236,-81,o),
(236,-119,cs),
(236,-178,o),
(174,-204,o),
(31,-204,cs),
(-29,-204,o),
(-47,-201,o),
(-47,-195,cs),
(-46,-189,o),
(-28,-181,o),
(-9,-170,cs),
(9,-159,o),
(27,-146,o),
(27,-131,cs),
(27,-106,o),
(-24,-93,o),
(-85,-93,cs),
(-155,-93,o),
(-196,-108,o),
(-196,-134,cs),
(-196,-183,o),
(-106,-215,o),
(31,-215,cs)
);
},
{
closed = 1;
nodes = (
(239,576,o),
(268,593,o),
(268,618,cs),
(268,645,o),
(239,661,o),
(204,661,cs),
(168,661,o),
(138,645,o),
(138,618,cs),
(138,593,o),
(168,576,o),
(204,576,cs)
);
}
);
width = 358;
}
);
unicode = 106;
},
{
color = 4;
glyphname = k;
kernLeft = ll;
kernRight = k;
lastChange = "2022-08-05 06:06:17 +0000";
layers = (
{
layerId = "2660E96A-9963-4076-AFCB-E451BC6EE103";
shapes = (
{
closed = 1;
nodes = (
(295,745,l),
(10,705,l),
(10,694,l),
(60,694,l),
(60,20,l),
(10,10,l),
(10,0,l),
(345,0,l),
(345,10,l),
(295,20,l)
);
},
{
closed = 1;
nodes = (
(312,270,l),
(323,226,o),
(335,188,o),
(348,138,cs),
(373,43,o),
(437,-15,o),
(533,-15,cs),
(584,-15,o),
(620,-6,o),
(659,15,c),
(659,25,l),
(654,24,o),
(649,26,o),
(644,32,cs),
(624,52,o),
(601,111,o),
(587,167,cs),
(575,213,o),
(564,260,o),
(552,306,c),
(423,305,l),
(423,317,l),
(472,343,o),
(512,366,o),
(542,389,cs),
(587,423,o),
(610,457,o),
(610,502,cs),
(610,569,o),
(552,616,o),
(470,616,cs),
(400,616,o),
(350,581,o),
(350,531,cs),
(350,488,o),
(380,459,o),
(440,446,cs),
(518,430,o),
(544,422,o),
(544,413,cs),
(544,399,o),
(501,371,o),
(433,339,cs),
(375,312,o),
(329,295,o),
(285,287,c),
(285,270,l)
);
}
);
width = 671;
},
{
layerId = "DF54607F-DD82-41E6-B2E3-81CA6D0E5C47";
shapes = (
{
closed = 1;
nodes = (
(580,745,l),
(10,705,l),
(10,694,l),
(60,694,l),
(60,20,l),
(10,10,l),
(10,0,l),
(630,0,l),
(630,10,l),
(580,20,l)
);
},
{
closed = 1;
nodes = (
(597,270,l),
(609,226,o),
(621,182,o),
(633,138,cs),
(666,17,o),
(796,-15,o),
(942,-15,cs),
(1050,-15,o),
(1158,3,o),
(1213,15,c),
(1213,25,l),
(1208,24,o),
(1202,27,o),
(1197,33,cs),
(1177,54,o),
(1155,112,o),
(1141,167,cs),
(1129,213,o),
(1118,260,o),
(1106,306,c),
(764,305,l),
(764,317,l),
(821,331,o),
(919,355,o),
(1014,387,cs),
(1149,432,o),
(1216,474,o),
(1216,512,cs),
(1216,570,o),
(1090,616,o),
(930,616,cs),
(775,616,o),
(654,579,o),
(654,531,cs),
(654,493,o),
(720,466,o),
(853,451,cs),
(999,433,o),
(1048,425,o),
(1048,419,cs),
(1048,407,o),
(938,375,o),
(819,345,cs),
(731,322,o),
(639,301,o),
(570,287,c),
(570,270,l)
);
}
);
width = 1227;
},
{
layerId = "A5088515-37FF-452F-BD44-18A7A5EF88F0";
shapes = (
{
closed = 1;
nodes = (
(144,745,l),
(60,715,l),
(60,704,l),
(130,704,l),
(130,20,l),
(70,10,l),
(70,0,l),
(204,0,l),
(204,10,l),
(144,20,l)
);
},
{
closed = 1;
nodes = (
(220,278,l),
(227,265,o),
(259,197,o),
(305,130,cs),
(355,57,o),
(398,-15,o),
(434,-15,cs),
(442,-15,o),
(450,-12,o),
(459,-4,c),
(459,10,l),
(451,2,o),
(444,-1,o),
(437,-1,cs),
(402,-1,o),
(362,68,o),
(314,139,cs),
(270,205,o),
(239,272,o),
(231,287,c),
(208,287,l),
(208,297,l),
(265,328,o),
(305,352,o),
(328,368,cs),
(378,404,o),
(403,436,o),
(403,466,c),
(401,495,o),
(377,515,o),
(344,515,cs),
(308,515,o),
(280,493,o),
(280,466,cs),
(280,446,o),
(291,433,o),
(315,422,cs),
(338,412,o),
(346,407,o),
(346,402,cs),
(346,392,o),
(327,378,o),
(271,345,cs),
(224,318,o),
(169,291,o),
(134,288,c),
(134,278,l)
);
}
);
width = 499;
},
{
layerId = "35A90D60-3AD4-435C-9F8B-D1CA483F6F66";
shapes = (
{
closed = 1;
nodes = (
(214,745,l),
(80,715,l),
(80,704,l),
(200,704,l),
(200,20,l),
(90,10,l),
(90,0,l),
(324,0,l),
(324,10,l),
(214,20,l)
);
},
{
closed = 1;
nodes = (
(326,278,l),
(382,222,o),
(444,165,o),
(486,130,cs),
(618,21,o),
(679,-15,o),
(728,-15,cs),
(743,-15,o),
(758,-12,o),
(775,-4,c),
(775,10,l),
(760,2,o),
(747,-1,o),
(734,-1,cs),
(681,-1,o),
(621,35,o),
(495,141,cs),
(441,188,o),
(385,240,o),
(340,287,c),
(298,287,l),
(298,290,l),
(381,314,o),
(449,336,o),
(503,357,cs),
(618,400,o),
(670,435,o),
(670,467,c),
(666,499,o),
(613,516,o),
(556,515,cs),
(500,514,o),
(437,497,o),
(437,466,cs),
(437,446,o),
(461,431,o),
(510,422,cs),
(562,412,o),
(571,408,o),
(571,404,cs),
(571,396,o),
(499,366,o),
(403,335,cs),
(331,311,o),
(252,290,o),
(209,288,c),
(209,278,l)
);
}
);
width = 825;
},
{
associatedMasterId = "35A90D60-3AD4-435C-9F8B-D1CA483F6F66";
background = {
shapes = (
{
closed = 1;
nodes = (
(186,723,l),
(30,693,l),
(30,682,l),
(161,682,l),
(161,20,l),
(50,10,l),
(50,0,l),
(297,0,l),
(297,10,l),
(186,20,l)
);
},
{
closed = 1;
nodes = (
(326,278,l),
(338,265,o),
(399,197,o),
(484,130,cs),
(576,57,o),
(656,-15,o),
(723,-15,cs),
(737,-15,o),
(753,-12,o),
(769,-4,c),
(769,10,l),
(754,2,o),
(741,-1,o),
(729,-1,cs),
(663,-1,o),
(589,68,o),
(501,139,cs),
(420,205,o),
(362,272,o),
(347,287,c),
(304,287,l),
(304,297,l),
(409,328,o),
(484,352,o),
(526,368,cs),
(619,404,o),
(666,436,o),
(666,466,c),
(661,495,o),
(618,515,o),
(556,515,cs),
(489,515,o),
(437,493,o),
(437,466,cs),
(437,446,o),
(458,433,o),
(502,422,cs),
(545,412,o),
(559,407,o),
(559,402,cs),
(559,392,o),
(523,378,o),
(421,345,cs),
(334,318,o),
(231,291,o),
(186,288,c),
(186,278,l)
);
}
);
};
guides = (
{
pos = (172,20);
},
{
angle = 90;
pos = (-113,629);
showMeasurement = 1;
},
{
pos = (2,164);
showMeasurement = 1;
},
{
angle = -67;
pos = (321,74);
},
{
angle = -67;
pos = (322,287);
}
);
layerId = "3CB61020-B94B-4C3F-A0B0-DEC4B5E57B7E";
name = "27 Feb 22 5:25 p.m.";
shapes = (
{
closed = 1;
nodes = (
(214,723,l),
(80,693,l),
(80,682,l),
(200,682,l),
(200,20,l),
(90,10,l),
(90,0,l),
(324,0,l),
(324,10,l),
(214,20,l)
);
},
{
closed = 1;
nodes = (
(326,278,l),
(339,265,o),
(400,197,o),
(486,130,cs),
(580,57,o),
(660,-15,o),
(728,-15,cs),
(743,-15,o),
(758,-12,o),
(775,-4,c),
(775,10,l),
(760,2,o),
(747,-1,o),
(734,-1,cs),
(668,-1,o),
(586,68,o),
(496,139,cs),
(413,205,o),
(355,272,o),
(340,287,c),
(304,287,l),
(304,290,l),
(495,347,o),
(670,406,o),
(670,467,c),
(666,499,o),
(612,514,o),
(555,513,cs),
(499,512,o),
(441,495,o),
(439,464,cs),
(435,405,o),
(586,410,o),
(567,396,cs),
(535,374,o),
(302,293,o),
(214,288,c),
(214,278,l)
);
}
);
width = 825;
}
);
metricLeft = l;
unicode = 107;
},
{
color = 4;
glyphname = l;
kernLeft = ll;
kernRight = l;
lastChange = "2022-08-05 06:06:17 +0000";
layers = (
{
layerId = "2660E96A-9963-4076-AFCB-E451BC6EE103";
shapes = (
{
closed = 1;
nodes = (
(295,745,l),
(10,705,l),
(10,694,l),
(60,694,l),
(60,20,l),
(10,10,l),
(10,0,l),
(345,0,l),
(345,10,l),
(295,20,l)
);
}
);
width = 355;
},
{
layerId = "DF54607F-DD82-41E6-B2E3-81CA6D0E5C47";
shapes = (
{
closed = 1;
nodes = (
(580,745,l),
(10,705,l),
(10,694,l),
(60,694,l),
(60,20,l),
(10,10,l),
(10,0,l),
(630,0,l),
(630,10,l),
(580,20,l)
);
}
);
width = 640;
},
{
layerId = "A5088515-37FF-452F-BD44-18A7A5EF88F0";
shapes = (
{
closed = 1;
nodes = (
(144,745,l),
(60,715,l),
(60,704,l),
(130,704,l),
(130,20,l),
(70,10,l),
(70,0,l),
(204,0,l),
(204,10,l),
(144,20,l)
);
}
);
width = 254;
},
{
layerId = "35A90D60-3AD4-435C-9F8B-D1CA483F6F66";
shapes = (
{
closed = 1;
nodes = (
(214,745,l),
(80,715,l),
(80,704,l),
(200,704,l),
(200,20,l),
(90,10,l),
(90,0,l),
(324,0,l),
(324,10,l),
(214,20,l)
);
}
);
width = 394;
}
);
unicode = 108;
},
{
color = 1;
glyphname = m;
kernLeft = nn;
kernRight = n;
lastChange = "2022-08-05 06:06:17 +0000";
layers = (
{
layerId = "2660E96A-9963-4076-AFCB-E451BC6EE103";
shapes = (
{
closed = 1;
nodes = (
(337,0,l),
(337,10,l),
(297,25,l),
(297,290,l),
(302,311,o),
(340,440,o),
(377,440,cs),
(393,440,o),
(407,416,o),
(407,375,cs),
(407,25,l),
(367,10,l),
(367,0,l),
(682,0,l),
(682,10,l),
(642,25,l),
(642,352,ls),
(642,454,o),
(593,515,o),
(489,515,cs),
(389,515,o),
(339,440,o),
(305,344,c),
(297,352,l),
(297,500,l),
(12,460,l),
(12,449,l),
(62,449,l),
(62,25,l),
(12,10,l),
(12,0,l)
);
},
{
closed = 1;
nodes = (
(1037,0,l),
(1037,10,l),
(987,25,l),
(987,340,ls),
(987,434,o),
(957,515,o),
(834,515,cs),
(734,515,o),
(684,440,o),
(650,344,c),
(642,352,l),
(642,290,l),
(647,311,o),
(685,440,o),
(722,440,cs),
(738,440,o),
(752,416,o),
(752,375,cs),
(752,25,l),
(712,10,l),
(712,0,l)
);
}
);
width = 1047;
},
{
layerId = "DF54607F-DD82-41E6-B2E3-81CA6D0E5C47";
shapes = (
{
closed = 1;
nodes = (
(622,0,l),
(622,10,l),
(582,20,l),
(582,310,l),
(611,368,o),
(634,415,o),
(662,416,cs),
(680,416,o),
(692,399,o),
(692,355,cs),
(692,20,l),
(652,10,l),
(652,0,l),
(1252,0,l),
(1252,10,l),
(1202,20,l),
(1202,340,ls),
(1202,439,o),
(1062,516,o),
(921,515,cs),
(751,514,o),
(636,458,o),
(590,344,c),
(582,352,l),
(582,515,l),
(12,475,l),
(12,464,l),
(62,464,l),
(62,20,l),
(12,10,l),
(12,0,l)
);
},
{
closed = 1;
nodes = (
(1882,0,l),
(1882,10,l),
(1832,20,l),
(1832,340,ls),
(1832,469,o),
(1692,516,o),
(1541,515,cs),
(1371,514,o),
(1256,458,o),
(1210,344,c),
(1196,363,l),
(1196,290,l),
(1222,356,o),
(1250,415,o),
(1282,416,cs),
(1300,416,o),
(1312,399,o),
(1312,355,cs),
(1312,20,l),
(1272,10,l),
(1272,0,l)
);
}
);
width = 1892;
},
{
layerId = "A5088515-37FF-452F-BD44-18A7A5EF88F0";
shapes = (
{
closed = 1;
nodes = (
(214,0,l),
(214,10,l),
(144,20,l),
(144,300,l),
(203,423,o),
(295,500,o),
(383,500,cs),
(465,500,o),
(505,447,o),
(505,338,cs),
(505,20,l),
(435,10,l),
(435,0,l),
(589,0,l),
(589,10,l),
(519,20,l),
(519,338,ls),
(519,457,o),
(474,515,o),
(383,515,cs),
(301,515,o),
(205,444,o),
(152,344,c),
(144,350,l),
(144,515,l),
(60,485,l),
(60,474,l),
(130,474,l),
(130,20,l),
(70,10,l),
(70,0,l)
);
},
{
closed = 1;
nodes = (
(963,0,l),
(963,10,l),
(893,20,l),
(893,338,ls),
(893,457,o),
(848,515,o),
(757,515,cs),
(675,515,o),
(579,444,o),
(526,344,c),
(518,350,l),
(518,300,l),
(577,423,o),
(669,500,o),
(757,500,cs),
(839,500,o),
(879,447,o),
(879,338,cs),
(879,20,l),
(809,10,l),
(809,0,l)
);
}
);
width = 1003;
},
{
layerId = "35A90D60-3AD4-435C-9F8B-D1CA483F6F66";
shapes = (
{
closed = 1;
nodes = (
(324,0,l),
(324,10,l),
(204,20,l),
(204,300,l),
(307,404,o),
(465,500,o),
(638,500,cs),
(795,500,o),
(871,447,o),
(871,338,cs),
(871,20,l),
(751,10,l),
(751,0,l),
(1005,0,l),
(1005,10,l),
(885,20,l),
(885,338,ls),
(885,457,o),
(812,515,o),
(638,515,cs),
(497,515,o),
(345,447,o),
(218,334,c),
(204,341,l),
(204,515,l),
(70,485,l),
(70,474,l),
(190,474,l),
(190,20,l),
(80,10,l),
(80,0,l)
);
},
{
closed = 1;
nodes = (
(1686,0,l),
(1686,10,l),
(1566,20,l),
(1566,338,ls),
(1566,457,o),
(1493,515,o),
(1319,515,cs),
(1178,515,o),
(1026,447,o),
(899,334,c),
(885,341,l),
(885,300,l),
(988,404,o),
(1146,500,o),
(1319,500,cs),
(1476,500,o),
(1552,447,o),
(1552,338,cs),
(1552,20,l),
(1432,10,l),
(1432,0,l)
);
}
);
width = 1736;
}
);
metricLeft = n;
metricRight = n;
unicode = 109;
},
{
color = 4;
glyphname = n;
kernLeft = nn;
kernRight = n;
lastChange = "2022-08-05 06:06:17 +0000";
layers = (
{
layerId = "2660E96A-9963-4076-AFCB-E451BC6EE103";
shapes = (
{
closed = 1;
nodes = (
(642,20,l),
(642,340,ls),
(642,434,o),
(612,515,o),
(489,515,cs),
(389,515,o),
(339,440,o),
(305,344,c),
(297,352,l),
(297,515,l),
(12,475,l),
(12,464,l),
(62,464,l),
(62,20,l),
(12,10,l),
(12,0,l),
(337,0,l),
(337,10,l),
(297,20,l),
(297,290,l),
(302,311,o),
(340,440,o),
(377,440,cs),
(393,440,o),
(407,416,o),
(407,375,cs),
(407,20,l),
(367,10,l),
(367,0,l),
(692,0,l),
(692,10,l)
);
}
);
width = 702;
},
{
hints = (
{
horizontal = 1;
place = (475, -66);
place = (475, -66);
type = Stem;
}
);
layerId = "DF54607F-DD82-41E6-B2E3-81CA6D0E5C47";
shapes = (
{
closed = 1;
nodes = (
(1232,20,l),
(1232,340,ls),
(1232,469,o),
(1092,516,o),
(941,515,cs),
(771,514,o),
(656,458,o),
(590,344,c),
(582,352,l),
(582,515,l),
(12,475,l),
(12,464,l),
(62,464,l),
(62,20,l),
(12,10,l),
(12,0,l),
(622,0,l),
(622,10,l),
(582,20,l),
(582,310,l),
(611,368,o),
(654,415,o),
(682,416,cs),
(700,416,o),
(712,399,o),
(712,355,cs),
(712,20,l),
(672,10,l),
(672,0,l),
(1282,0,l),
(1282,10,l)
);
}
);
width = 1292;
},
{
layerId = "A5088515-37FF-452F-BD44-18A7A5EF88F0";
shapes = (
{
closed = 1;
nodes = (
(539,20,l),
(539,338,ls),
(539,457,o),
(494,515,o),
(403,515,cs),
(314,515,o),
(224,454,o),
(152,344,c),
(144,350,l),
(144,515,l),
(60,485,l),
(60,474,l),
(130,474,l),
(130,20,l),
(70,10,l),
(70,0,l),
(214,0,l),
(214,10,l),
(144,20,l),
(144,300,l),
(200,417,o),
(306,500,o),
(403,500,cs),
(485,500,o),
(525,447,o),
(525,338,cs),
(525,20,l),
(455,10,l),
(455,0,l),
(609,0,l),
(609,10,l)
);
}
);
width = 649;
},
{
layerId = "35A90D60-3AD4-435C-9F8B-D1CA483F6F66";
shapes = (
{
closed = 1;
nodes = (
(885,20,l),
(885,338,ls),
(885,457,o),
(812,515,o),
(638,515,cs),
(499,515,o),
(348,450,o),
(218,334,c),
(204,341,l),
(204,515,l),
(70,485,l),
(70,474,l),
(190,474,l),
(190,20,l),
(80,10,l),
(80,0,l),
(324,0,l),
(324,10,l),
(204,20,l),
(204,300,l),
(331,428,o),
(487,500,o),
(638,500,cs),
(795,500,o),
(871,447,o),
(871,338,cs),
(871,20,l),
(751,10,l),
(751,0,l),
(1005,0,l),
(1005,10,l)
);
}
);
width = 1055;
}
);
unicode = 110;
},
{
color = 4;
glyphname = o;
kernLeft = oo;
kernRight = o;
lastChange = "2022-08-05 06:06:17 +0000";
layers = (
{
layerId = "2660E96A-9963-4076-AFCB-E451BC6EE103";
shapes = (
{
closed = 1;
nodes = (
(132,515,o),
(20,400,o),
(20,246,cs),
(20,111,o),
(113,-15,o),
(316,-15,cs),
(510,-15,o),
(610,111,o),
(610,246,cs),
(610,400,o),
(509,515,o),
(316,515,cs)
);
},
{
closed = 1;
nodes = (
(367,505,o),
(370,379,o),
(370,246,cs),
(370,120,o),
(361,-5,o),
(316,-5,cs),
(265,-5,o),
(260,122,o),
(260,246,cs),
(260,379,o),
(267,505,o),
(316,505,cs)
);
}
);
width = 630;
},
{
layerId = "DF54607F-DD82-41E6-B2E3-81CA6D0E5C47";
shapes = (
{
closed = 1;
nodes = (
(265,515,o),
(25,404,o),
(25,246,cs),
(25,93,o),
(265,-15,o),
(615,-15,cs),
(964,-15,o),
(1203,93,o),
(1203,246,cs),
(1203,404,o),
(964,515,o),
(615,515,cs)
);
},
{
closed = 1;
nodes = (
(676,505,o),
(679,379,o),
(679,246,cs),
(679,120,o),
(670,-5,o),
(615,-5,cs),
(554,-5,o),
(549,122,o),
(549,246,cs),
(549,379,o),
(556,505,o),
(615,505,cs)
);
}
);
width = 1228;
},
{
layerId = "A5088515-37FF-452F-BD44-18A7A5EF88F0";
shapes = (
{
closed = 1;
nodes = (
(151,515,o),
(65,415,o),
(65,246,c),
(65,82,o),
(151,-15,o),
(296,-15,c),
(442,-15,o),
(529,82,o),
(529,246,c),
(530,415,o),
(443,515,o),
(296,515,c)
);
},
{
closed = 1;
nodes = (
(434,500,o),
(515,406,o),
(515,246,c),
(515,91,o),
(434,0,o),
(296,0,c),
(160,0,o),
(79,91,o),
(79,246,c),
(79,406,o),
(160,500,o),
(297,500,c)
);
}
);
width = 594;
},
{
layerId = "35A90D60-3AD4-435C-9F8B-D1CA483F6F66";
shapes = (
{
closed = 1;
nodes = (
(238,515,o),
(65,415,o),
(65,246,c),
(65,82,o),
(238,-15,o),
(501,-15,c),
(767,-15,o),
(942,82,o),
(942,246,c),
(944,415,o),
(769,515,o),
(501,515,c)
);
},
{
closed = 1;
nodes = (
(758,500,o),
(926,406,o),
(926,246,c),
(926,91,o),
(757,0,o),
(501,0,c),
(248,0,o),
(81,91,o),
(81,246,c),
(81,406,o),
(249,500,o),
(503,500,c)
);
}
);
width = 1007;
}
);
unicode = 111;
},
{
color = 5;
glyphname = oslash;
kernLeft = oo;
kernRight = o;
lastChange = "2022-08-05 06:06:17 +0000";
layers = (
{
layerId = "2660E96A-9963-4076-AFCB-E451BC6EE103";
shapes = (
{
closed = 1;
nodes = (
(478,560,l),
(144,-60,l),
(160,-60,l),
(494,560,l)
);
},
{
ref = o;
}
);
width = 630;
},
{
layerId = "DF54607F-DD82-41E6-B2E3-81CA6D0E5C47";
shapes = (
{
closed = 1;
nodes = (
(771,560,l),
(437,-60,l),
(453,-60,l),
(787,560,l)
);
},
{
ref = o;
}
);
width = 1228;
},
{
layerId = "A5088515-37FF-452F-BD44-18A7A5EF88F0";
shapes = (
{
closed = 1;
nodes = (
(453,560,l),
(119,-60,l),
(135,-60,l),
(469,560,l)
);
},
{
ref = o;
}
);
width = 594;
},
{
layerId = "35A90D60-3AD4-435C-9F8B-D1CA483F6F66";
shapes = (
{
closed = 1;
nodes = (
(661,560,l),
(327,-60,l),
(343,-60,l),
(677,560,l)
);
},
{
ref = o;
}
);
width = 1007;
}
);
metricLeft = o;
metricRight = o;
unicode = 248;
},
{
color = 4;
glyphname = oe;
kernLeft = oo;
kernRight = o;
lastChange = "2022-08-05 06:06:17 +0000";
layers = (
{
layerId = "2660E96A-9963-4076-AFCB-E451BC6EE103";
shapes = (
{
closed = 1;
nodes = (
(385,-15,o),
(442,1,o),
(488,38,c),
(530,1,o),
(583,-15,o),
(647,-15,cs),
(721,-15,o),
(842,-1,o),
(913,148,c),
(899,157,l),
(872,93,o),
(802,53,o),
(753,53,cs),
(659,53,o),
(609,158,o),
(609,276,cs),
(613,451,o),
(624,505,o),
(664,505,cs),
(711,505,o),
(715,436,o),
(714,296,c),
(605,276,l),
(605,266,l),
(931,266,l),
(931,393,o),
(851,515,o),
(665,515,cs),
(599,515,o),
(540,500,o),
(493,461,c),
(447,499,o),
(388,515,o),
(316,515,cs),
(132,515,o),
(20,400,o),
(20,246,cs),
(20,111,o),
(113,-15,o),
(316,-15,cs)
);
},
{
closed = 1;
nodes = (
(265,-5,o),
(260,122,o),
(260,246,cs),
(260,379,o),
(267,505,o),
(316,505,cs),
(367,505,o),
(370,379,o),
(370,246,cs),
(370,120,o),
(361,-5,o),
(316,-5,cs)
);
}
);
width = 951;
},
{
layerId = "DF54607F-DD82-41E6-B2E3-81CA6D0E5C47";
shapes = (
{
closed = 1;
nodes = (
(732,-15,o),
(837,-3,o),
(924,39,c),
(1010,-3,o),
(1117,-15,o),
(1241,-15,cs),
(1574,-15,o),
(1748,46,o),
(1847,148,c),
(1833,157,l),
(1742,59,o),
(1554,30,o),
(1399,75,cs),
(1281,110,o),
(1201,196,o),
(1203,276,cs),
(1202,451,o),
(1228,505,o),
(1268,505,cs),
(1325,505,o),
(1329,436,o),
(1328,295,c),
(1199,276,l),
(1199,266,l),
(1855,266,l),
(1855,423,o),
(1661,515,o),
(1299,515,cs),
(1163,515,o),
(1043,501,o),
(945,454,c),
(854,500,o),
(741,515,o),
(615,515,cs),
(265,515,o),
(25,404,o),
(25,246,cs),
(25,93,o),
(265,-15,o),
(615,-15,cs)
);
},
{
closed = 1;
nodes = (
(554,-5,o),
(549,122,o),
(549,246,cs),
(549,379,o),
(556,505,o),
(615,505,cs),
(676,505,o),
(679,379,o),
(679,246,cs),
(679,120,o),
(670,-5,o),
(615,-5,cs)
);
}
);
width = 1880;
},
{
layerId = "A5088515-37FF-452F-BD44-18A7A5EF88F0";
shapes = (
{
closed = 1;
nodes = (
(419,-15,o),
(501,54,o),
(523,175,c),
(549,61,o),
(636,-15,o),
(752,-15,cs),
(865,-15,o),
(943,31,o),
(990,125,c),
(983,135,l),
(935,44,o),
(859,0,o),
(752,0,cs),
(619,0,o),
(529,101,o),
(529,250,cs),
(529,397,o),
(626,500,o),
(760,500,cs),
(885,500,o),
(960,422,o),
(963,290,c),
(524,286,l),
(524,276,l),
(977,276,l),
(978,426,o),
(897,515,o),
(760,515,cs),
(640,515,o),
(549,438,o),
(523,321,c),
(501,444,o),
(420,515,o),
(296,515,cs),
(151,515,o),
(65,415,o),
(65,246,cs),
(65,82,o),
(151,-15,o),
(296,-15,cs)
);
},
{
closed = 1;
nodes = (
(160,0,o),
(79,91,o),
(79,246,cs),
(79,406,o),
(160,500,o),
(297,500,cs),
(434,500,o),
(515,406,o),
(515,246,cs),
(515,91,o),
(434,0,o),
(296,0,cs)
);
}
);
width = 1055;
},
{
layerId = "35A90D60-3AD4-435C-9F8B-D1CA483F6F66";
shapes = (
{
closed = 1;
nodes = (
(734,-15,o),
(897,59,o),
(934,188,c),
(969,65,o),
(1118,-17,o),
(1328,-17,cs),
(1524,-17,o),
(1657,31,o),
(1739,125,c),
(1729,133,l),
(1645,42,o),
(1513,-3,o),
(1328,-3,cs),
(1135,-3,o),
(942,76,o),
(942,246,cs),
(942,417,o),
(1143,498,o),
(1342,498,cs),
(1558,498,o),
(1699,420,o),
(1704,288,c),
(932,284,l),
(932,274,l),
(1718,274,l),
(1720,424,o),
(1579,513,o),
(1342,513,cs),
(1125,513,o),
(972,430,o),
(935,306,c),
(899,438,o),
(736,515,o),
(501,515,cs),
(238,515,o),
(65,415,o),
(65,246,cs),
(65,82,o),
(238,-15,o),
(501,-15,cs)
);
},
{
closed = 1;
nodes = (
(248,0,o),
(81,91,o),
(81,246,cs),
(81,406,o),
(249,500,o),
(503,500,cs),
(758,500,o),
(926,406,o),
(926,246,cs),
(926,91,o),
(757,0,o),
(501,0,cs)
);
}
);
width = 1804;
}
);
metricLeft = o;
metricRight = e;
unicode = 339;
},
{
color = 0;
glyphname = p;
kernLeft = nn;
kernRight = o;
lastChange = "2022-08-05 06:06:17 +0000";
layers = (
{
layerId = "2660E96A-9963-4076-AFCB-E451BC6EE103";
shapes = (
{
closed = 1;
nodes = (
(345,-200,l),
(345,-190,l),
(295,-175,l),
(295,65,l),
(305,48,o),
(347,-15,o),
(458,-15,cs),
(571,-15,o),
(673,62,o),
(673,270,cs),
(673,408,o),
(597,515,o),
(476,515,cs),
(374,515,o),
(322,401,o),
(303,344,c),
(295,352,l),
(295,515,l),
(10,475,l),
(10,464,l),
(60,464,l),
(60,-176,l),
(10,-190,l),
(10,-200,l)
);
},
{
closed = 1;
nodes = (
(331,33,o),
(295,71,o),
(295,159,cs),
(295,291,l),
(310,338,o),
(341,440,o),
(385,440,cs),
(417,440,o),
(433,389,o),
(433,240,cs),
(433,122,o),
(412,33,o),
(361,33,cs)
);
}
);
width = 693;
},
{
layerId = "DF54607F-DD82-41E6-B2E3-81CA6D0E5C47";
shapes = (
{
closed = 1;
nodes = (
(620,-200,l),
(620,-190,l),
(580,-180,l),
(580,75,l),
(610,22,o),
(731,-15,o),
(873,-15,cs),
(1090,-15,o),
(1243,103,o),
(1243,270,cs),
(1243,424,o),
(1120,515,o),
(911,515,cs),
(743,515,o),
(624,451,o),
(588,344,c),
(580,352,l),
(580,515,l),
(10,475,l),
(10,464,l),
(60,464,l),
(60,-180,l),
(10,-190,l),
(10,-200,l)
);
},
{
closed = 1;
nodes = (
(616,35,o),
(580,71,o),
(580,159,cs),
(580,291,l),
(595,338,o),
(626,420,o),
(670,420,cs),
(702,420,o),
(718,389,o),
(718,240,cs),
(718,122,o),
(697,35,o),
(646,35,cs)
);
}
);
width = 1268;
},
{
layerId = "A5088515-37FF-452F-BD44-18A7A5EF88F0";
shapes = (
{
closed = 1;
nodes = (
(214,-200,l),
(214,-190,l),
(144,-180,l),
(144,111,l),
(175,32,o),
(260,-14,o),
(335,-14,cs),
(469,-14,o),
(564,96,o),
(564,251,cs),
(564,406,o),
(479,515,o),
(358,515,cs),
(262,515,o),
(192,451,o),
(152,354,c),
(144,362,l),
(144,515,l),
(60,475,l),
(60,465,l),
(130,465,l),
(130,-180,l),
(70,-190,l),
(70,-200,l)
);
},
{
closed = 1;
nodes = (
(214,1,o),
(144,109,o),
(144,190,cs),
(144,280,l),
(171,383,o),
(239,501,o),
(358,500,cs),
(474,499,o),
(549,396,o),
(549,251,cs),
(549,105,o),
(458,1,o),
(335,1,cs)
);
}
);
width = 629;
},
{
layerId = "35A90D60-3AD4-435C-9F8B-D1CA483F6F66";
shapes = (
{
closed = 1;
nodes = (
(324,-200,l),
(324,-190,l),
(214,-180,l),
(214,131,l),
(269,38,o),
(422,-14,o),
(592,-14,cs),
(828,-14,o),
(987,84,o),
(987,251,cs),
(987,417,o),
(828,515,o),
(622,515,cs),
(419,515,o),
(293,428,o),
(225,333,c),
(214,339,l),
(214,515,l),
(80,484,l),
(80,474,l),
(200,474,l),
(200,-180,l),
(90,-190,l),
(90,-200,l)
);
},
{
closed = 1;
nodes = (
(339,1,o),
(214,109,o),
(214,190,cs),
(214,280,l),
(262,383,o),
(384,501,o),
(622,500,cs),
(819,499,o),
(973,407,o),
(973,251,cs),
(973,94,o),
(819,1,o),
(592,1,cs)
);
}
);
width = 1052;
}
);
metricLeft = l;
metricRight = o;
unicode = 112;
},
{
color = 4;
glyphname = thorn;
kernLeft = ll;
kernRight = o;
lastChange = "2022-08-05 06:06:17 +0000";
layers = (
{
layerId = "2660E96A-9963-4076-AFCB-E451BC6EE103";
shapes = (
{
closed = 1;
nodes = (
(345,-200,l),
(345,-190,l),
(295,-175,l),
(295,65,l),
(305,48,o),
(347,-15,o),
(458,-15,cs),
(571,-15,o),
(673,62,o),
(673,270,cs),
(673,408,o),
(597,515,o),
(476,515,cs),
(374,515,o),
(322,401,o),
(303,344,c),
(295,352,l),
(295,745,l),
(10,705,l),
(10,694,l),
(60,694,l),
(60,-176,l),
(10,-190,l),
(10,-200,l)
);
},
{
closed = 1;
nodes = (
(331,33,o),
(295,71,o),
(295,159,cs),
(295,291,l),
(310,338,o),
(341,440,o),
(385,440,cs),
(417,440,o),
(433,389,o),
(433,240,cs),
(433,122,o),
(412,33,o),
(361,33,cs)
);
}
);
width = 693;
},
{
layerId = "DF54607F-DD82-41E6-B2E3-81CA6D0E5C47";
shapes = (
{
closed = 1;
nodes = (
(620,-200,l),
(620,-190,l),
(580,-180,l),
(580,75,l),
(610,22,o),
(731,-15,o),
(873,-15,cs),
(1090,-15,o),
(1243,103,o),
(1243,270,cs),
(1243,424,o),
(1120,515,o),
(911,515,cs),
(743,515,o),
(624,451,o),
(588,344,c),
(580,352,l),
(580,745,l),
(10,705,l),
(10,694,l),
(60,694,l),
(60,-180,l),
(10,-190,l),
(10,-200,l)
);
},
{
closed = 1;
nodes = (
(616,35,o),
(580,71,o),
(580,159,cs),
(580,291,l),
(595,338,o),
(626,420,o),
(670,420,cs),
(702,420,o),
(718,389,o),
(718,240,cs),
(718,122,o),
(697,35,o),
(646,35,cs)
);
}
);
width = 1268;
},
{
layerId = "A5088515-37FF-452F-BD44-18A7A5EF88F0";
shapes = (
{
closed = 1;
nodes = (
(214,-200,l),
(214,-190,l),
(144,-180,l),
(144,111,l),
(175,32,o),
(260,-14,o),
(335,-14,cs),
(469,-14,o),
(564,96,o),
(564,251,cs),
(564,406,o),
(479,515,o),
(358,515,cs),
(262,515,o),
(192,451,o),
(152,354,c),
(144,362,l),
(144,745,l),
(60,705,l),
(60,695,l),
(130,695,l),
(130,-180,l),
(70,-190,l),
(70,-200,l)
);
},
{
closed = 1;
nodes = (
(214,1,o),
(144,109,o),
(144,190,cs),
(144,280,l),
(171,383,o),
(239,501,o),
(358,500,cs),
(474,499,o),
(553,396,o),
(549,251,cs),
(546,105,o),
(458,1,o),
(335,1,cs)
);
}
);
width = 629;
},
{
layerId = "35A90D60-3AD4-435C-9F8B-D1CA483F6F66";
shapes = (
{
closed = 1;
nodes = (
(324,-200,l),
(324,-190,l),
(214,-180,l),
(214,131,l),
(269,38,o),
(422,-14,o),
(592,-14,cs),
(828,-14,o),
(987,84,o),
(987,251,cs),
(987,417,o),
(828,515,o),
(622,515,cs),
(419,515,o),
(293,428,o),
(225,333,c),
(214,339,l),
(214,745,l),
(80,714,l),
(80,704,l),
(200,704,l),
(200,-180,l),
(90,-190,l),
(90,-200,l)
);
},
{
closed = 1;
nodes = (
(339,1,o),
(214,109,o),
(214,190,cs),
(214,280,l),
(262,383,o),
(384,501,o),
(622,500,cs),
(819,499,o),
(973,407,o),
(973,251,cs),
(973,94,o),
(819,1,o),
(592,1,cs)
);
}
);
width = 1052;
}
);
metricLeft = l;
metricRight = p;
unicode = 254;
},
{
color = 4;
glyphname = q;
kernLeft = oo;
kernRight = n;
lastChange = "2022-08-05 06:06:17 +0000";
layers = (
{
layerId = "2660E96A-9963-4076-AFCB-E451BC6EE103";
shapes = (
{
closed = 1;
nodes = (
(664,-200,l),
(664,-190,l),
(614,-186,l),
(614,515,l),
(604,515,l),
(528,409,l),
(514,409,l),
(482,454,o),
(432,515,o),
(312,515,cs),
(168,515,o),
(20,444,o),
(20,224,cs),
(20,106,o),
(66,-15,o),
(190,-15,cs),
(259,-15,o),
(319,13,o),
(371,156,c),
(379,148,l),
(379,-186,l),
(329,-190,l),
(329,-200,l)
);
},
{
closed = 1;
nodes = (
(265,70,o),
(260,124,o),
(260,259,cs),
(260,392,o),
(274,500,o),
(322,500,cs),
(348,500,o),
(379,475,o),
(379,330,cs),
(379,211,l),
(357,137,o),
(328,70,o),
(299,70,cs)
);
}
);
width = 674;
},
{
layerId = "DF54607F-DD82-41E6-B2E3-81CA6D0E5C47";
shapes = (
{
closed = 1;
nodes = (
(1250,-200,l),
(1250,-190,l),
(1200,-180,l),
(1200,515,l),
(1190,515,l),
(1039,410,l),
(1029,410,l),
(929,472,o),
(734,515,o),
(572,515,cs),
(228,515,o),
(25,407,o),
(25,224,cs),
(25,84,o),
(164,-15,o),
(360,-15,cs),
(502,-15,o),
(607,41,o),
(672,156,c),
(680,148,l),
(680,-180,l),
(630,-190,l),
(630,-200,l)
);
},
{
closed = 1;
nodes = (
(561,92,o),
(550,138,o),
(550,259,cs),
(550,431,o),
(571,500,o),
(622,500,cs),
(664,500,o),
(680,437,o),
(680,330,cs),
(680,200,l),
(643,122,o),
(619,92,o),
(592,92,cs)
);
}
);
width = 1260;
},
{
layerId = "A5088515-37FF-452F-BD44-18A7A5EF88F0";
shapes = (
{
closed = 1;
nodes = (
(559,-200,l),
(559,-190,l),
(499,-180,l),
(499,515,l),
(489,515,l),
(485,410,l),
(475,410,l),
(426,481,o),
(350,515,o),
(284,515,cs),
(146,515,o),
(65,415,o),
(65,245,cs),
(65,82,o),
(140,-15,o),
(266,-15,cs),
(386,-15,o),
(456,101,o),
(477,146,c),
(485,138,l),
(485,-180,l),
(425,-190,l),
(425,-200,l)
);
},
{
closed = 1;
nodes = (
(146,1,o),
(76,92,o),
(79,245,cs),
(82,405,o),
(158,500,o),
(284,500,cs),
(365,500,o),
(485,429,o),
(485,321,cs),
(485,207,l),
(447,76,o),
(356,-1,o),
(266,0,cs)
);
}
);
width = 609;
},
{
layerId = "35A90D60-3AD4-435C-9F8B-D1CA483F6F66";
shapes = (
{
closed = 1;
nodes = (
(938,-200,l),
(938,-190,l),
(831,-180,l),
(831,515,l),
(821,515,l),
(817,398,l),
(808,393,l),
(722,482,o),
(575,515,o),
(457,515,cs),
(227,515,o),
(65,403,o),
(65,245,cs),
(65,93,o),
(214,-15,o),
(425,-15,cs),
(639,-15,o),
(765,101,o),
(802,154,c),
(817,145,l),
(817,-180,l),
(709,-190,l),
(709,-200,l)
);
},
{
closed = 1;
nodes = (
(222,1,o),
(79,102,o),
(79,245,cs),
(79,394,o),
(236,500,o),
(457,500,cs),
(619,500,o),
(817,425,o),
(817,317,cs),
(817,207,l),
(749,76,o),
(586,-1,o),
(425,0,cs)
);
}
);
width = 1008;
}
);
metricLeft = o;
metricRight = l;
unicode = 113;
},
{
color = 4;
glyphname = r;
kernLeft = nn;
kernRight = r;
lastChange = "2022-08-05 06:06:17 +0000";
layers = (
{
layerId = "2660E96A-9963-4076-AFCB-E451BC6EE103";
shapes = (
{
closed = 1;
nodes = (
(347,0,l),
(347,10,l),
(297,25,l),
(297,295,l),
(306,330,o),
(316,361,o),
(324,381,cs),
(346,433,o),
(357,450,o),
(365,450,cs),
(368,450,o),
(369,447,o),
(369,443,cs),
(369,430,o),
(359,412,o),
(359,389,cs),
(359,332,o),
(407,292,o),
(476,292,cs),
(551,292,o),
(603,337,o),
(603,402,cs),
(603,479,o),
(535,515,o),
(477,515,cs),
(424,515,o),
(383,494,o),
(354,453,cs),
(337,431,o),
(320,395,o),
(305,354,c),
(297,362,l),
(297,515,l),
(12,475,l),
(12,464,l),
(62,464,l),
(62,25,l),
(12,10,l),
(12,0,l)
);
}
);
width = 603;
},
{
layerId = "DF54607F-DD82-41E6-B2E3-81CA6D0E5C47";
shapes = (
{
closed = 1;
nodes = (
(632,0,l),
(632,10,l),
(582,25,l),
(582,318,l),
(596,349,o),
(614,377,o),
(633,400,cs),
(658,431,o),
(684,450,o),
(701,450,cs),
(705,450,o),
(708,448,o),
(708,445,cs),
(708,432,o),
(676,403,o),
(676,359,cs),
(676,284,o),
(775,230,o),
(929,229,cs),
(1093,229,o),
(1208,292,o),
(1208,382,cs),
(1208,460,o),
(1097,515,o),
(938,515,cs),
(835,515,o),
(763,503,o),
(705,471,cs),
(660,445,o),
(624,408,o),
(590,354,c),
(582,362,l),
(582,515,l),
(12,475,l),
(12,464,l),
(62,464,l),
(62,25,l),
(12,10,l),
(12,0,l)
);
}
);
width = 1208;
},
{
layerId = "A5088515-37FF-452F-BD44-18A7A5EF88F0";
shapes = (
{
closed = 1;
nodes = (
(204,0,l),
(204,10,l),
(144,20,l),
(144,287,l),
(157,331,o),
(177,374,o),
(197,408,cs),
(220,448,o),
(242,477,o),
(260,477,cs),
(265,477,o),
(266,474,o),
(266,470,cs),
(266,465,o),
(265,460,o),
(265,453,cs),
(265,430,o),
(289,413,o),
(322,413,cs),
(359,413,o),
(377,437,o),
(377,461,cs),
(377,494,o),
(355,515,o),
(320,515,cs),
(282,515,o),
(249,498,o),
(215,454,cs),
(195,428,o),
(174,392,o),
(152,344,c),
(144,352,l),
(144,515,l),
(60,485,l),
(60,474,l),
(130,474,l),
(130,20,l),
(70,10,l),
(70,0,l)
);
}
);
width = 397;
},
{
layerId = "35A90D60-3AD4-435C-9F8B-D1CA483F6F66";
shapes = (
{
closed = 1;
nodes = (
(314,0,l),
(314,10,l),
(204,20,l),
(204,299,l),
(228,336,o),
(268,378,o),
(318,416,cs),
(371,457,o),
(416,480,o),
(439,480,cs),
(451,480,o),
(458,477,o),
(458,471,cs),
(458,465,o),
(456,460,o),
(456,453,cs),
(456,427,o),
(495,413,o),
(565,413,cs),
(618,413,o),
(656,433,o),
(656,461,cs),
(657,493,o),
(618,515,o),
(561,515,cs),
(491,515,o),
(429,498,o),
(369,464,cs),
(320,436,o),
(271,396,o),
(221,344,c),
(204,352,l),
(204,515,l),
(70,485,l),
(70,474,l),
(190,474,l),
(190,20,l),
(80,10,l),
(80,0,l)
);
}
);
width = 696;
}
);
metricLeft = n;
unicode = 114;
},
{
color = 4;
glyphname = s;
kernLeft = s;
kernRight = s;
lastChange = "2022-08-05 06:06:17 +0000";
layers = (
{
layerId = "2660E96A-9963-4076-AFCB-E451BC6EE103";
shapes = (
{
closed = 1;
nodes = (
(400,-15,o),
(538,39,o),
(538,156,cs),
(538,237,o),
(432,283,o),
(336,326,cs),
(256,362,o),
(182,397,o),
(182,448,cs),
(182,493,o),
(242,507,o),
(299,507,cs),
(344,507,o),
(359,501,o),
(359,492,cs),
(359,482,o),
(352,472,o),
(331,452,cs),
(312,434,o),
(302,414,o),
(302,394,cs),
(302,343,o),
(363,317,o),
(421,317,cs),
(475,317,o),
(528,343,o),
(528,393,cs),
(528,468,o),
(413,515,o),
(284,515,cs),
(163,515,o),
(26,467,o),
(26,358,cs),
(26,264,o),
(124,226,o),
(215,188,cs),
(293,156,o),
(366,124,o),
(366,62,cs),
(366,10,o),
(311,-7,o),
(255,-7,cs),
(213,-7,o),
(200,6,o),
(200,17,cs),
(200,30,o),
(206,41,o),
(223,60,cs),
(240,81,o),
(246,97,o),
(246,118,cs),
(246,166,o),
(194,193,o),
(135,193,cs),
(78,193,o),
(20,169,o),
(20,114,cs),
(20,32,o),
(142,-15,o),
(267,-15,cs)
);
}
);
width = 563;
},
{
layerId = "DF54607F-DD82-41E6-B2E3-81CA6D0E5C47";
shapes = (
{
closed = 1;
nodes = (
(790,-15,o),
(1070,9,o),
(1070,146,cs),
(1070,244,o),
(840,288,o),
(648,333,cs),
(509,366,o),
(390,399,o),
(390,448,cs),
(390,493,o),
(470,507,o),
(586,507,cs),
(640,507,o),
(656,501,o),
(656,491,cs),
(656,487,o),
(650,479,o),
(630,459,cs),
(606,437,o),
(592,418,o),
(592,404,cs),
(592,350,o),
(720,319,o),
(842,319,cs),
(954,319,o),
(1060,345,o),
(1060,403,cs),
(1060,468,o),
(967,515,o),
(555,515,cs),
(206,515,o),
(33,470,o),
(32,378,cs),
(31,271,o),
(217,226,o),
(391,186,cs),
(545,150,o),
(691,117,o),
(691,62,cs),
(691,10,o),
(610,-7,o),
(518,-7,cs),
(411,-7,o),
(405,6,o),
(405,17,cs),
(405,24,o),
(419,37,o),
(447,57,cs),
(470,75,o),
(478,88,o),
(478,107,cs),
(478,153,o),
(382,189,o),
(259,189,cs),
(141,189,o),
(20,167,o),
(20,96,cs),
(20,13,o),
(145,-15,o),
(521,-15,cs)
);
}
);
width = 1095;
},
{
layerId = "A5088515-37FF-452F-BD44-18A7A5EF88F0";
shapes = (
{
closed = 1;
nodes = (
(383,-15,o),
(456,37,o),
(456,125,c),
(456,212,o),
(356,238,o),
(259,264,cs),
(169,288,o),
(83,311,o),
(83,382,c),
(83,456,o),
(151,500,o),
(267,500,cs),
(330,500,o),
(402,476,o),
(402,457,cs),
(402,449,o),
(395,443,o),
(374,434,cs),
(353,425,o),
(342,411,o),
(342,395,cs),
(342,370,o),
(368,357,o),
(394,357,cs),
(420,357,o),
(446,370,o),
(446,398,cs),
(446,467,o),
(364,515,o),
(267,515,cs),
(143,515,o),
(69,466,o),
(69,382,c),
(69,303,o),
(163,277,o),
(257,252,cs),
(350,227,o),
(442,201,o),
(442,125,c),
(442,46,o),
(374,0,o),
(259,0,cs),
(176,0,o),
(104,24,o),
(104,43,cs),
(104,52,o),
(112,58,o),
(137,69,cs),
(154,76,o),
(164,89,o),
(164,105,cs),
(164,130,o),
(138,143,o),
(112,143,cs),
(86,143,o),
(60,130,o),
(60,102,cs),
(60,33,o),
(142,-15,o),
(259,-15,cs)
);
}
);
width = 516;
},
{
layerId = "35A90D60-3AD4-435C-9F8B-D1CA483F6F66";
shapes = (
{
closed = 1;
nodes = (
(708,-15,o),
(846,37,o),
(846,125,c),
(846,208,o),
(647,236,o),
(458,265,cs),
(290,291,o),
(131,317,o),
(131,382,c),
(131,456,o),
(264,500,o),
(490,500,cs),
(609,500,o),
(746,476,o),
(746,457,cs),
(746,449,o),
(733,443,o),
(692,434,cs),
(653,425,o),
(631,411,o),
(631,395,cs),
(631,370,o),
(680,357,o),
(729,357,cs),
(778,357,o),
(827,370,o),
(827,398,cs),
(827,467,o),
(673,515,o),
(490,515,cs),
(256,515,o),
(117,466,o),
(117,382,c),
(117,306,o),
(283,278,o),
(456,251,cs),
(640,223,o),
(832,198,o),
(832,125,c),
(832,46,o),
(699,0,o),
(475,0,cs),
(319,0,o),
(183,24,o),
(183,43,cs),
(183,52,o),
(199,58,o),
(247,69,cs),
(278,76,o),
(296,89,o),
(296,105,cs),
(296,130,o),
(247,143,o),
(198,143,cs),
(149,143,o),
(100,130,o),
(100,102,cs),
(100,33,o),
(254,-15,o),
(475,-15,cs)
);
}
);
width = 946;
}
);
unicode = 115;
},
{
color = 1;
glyphname = germandbls;
kernLeft = f;
kernRight = fs;
lastChange = "2022-08-05 06:06:17 +0000";
layers = (
{
layerId = "2660E96A-9963-4076-AFCB-E451BC6EE103";
shapes = (
{
closed = 1;
nodes = (
(719,-15,o),
(857,41,o),
(857,158,cs),
(857,237,o),
(755,281,o),
(660,322,cs),
(578,358,o),
(501,390,o),
(501,438,cs),
(501,475,o),
(542,501,o),
(582,528,cs),
(621,554,o),
(660,581,o),
(660,618,cs),
(660,674,o),
(588,745,o),
(377,745,cs),
(194,745,o),
(110,709,o),
(79,637,cs),
(63,600,o),
(60,544,o),
(60,500,c),
(10,490,l),
(10,480,l),
(60,480,l),
(60,20,l),
(10,10,l),
(10,0,l),
(345,0,l),
(345,10,l),
(295,20,l),
(295,500,l),
(284,584,o),
(268,631,o),
(268,671,cs),
(268,711,o),
(283,735,o),
(382,735,cs),
(489,735,o),
(516,691,o),
(516,646,cs),
(516,602,o),
(475,570,o),
(433,532,cs),
(389,493,o),
(345,449,o),
(345,378,cs),
(345,279,o),
(440,234,o),
(530,193,cs),
(610,157,o),
(685,125,o),
(685,62,cs),
(685,20,o),
(642,-6,o),
(574,-6,cs),
(542,-6,o),
(519,4,o),
(519,18,cs),
(519,29,o),
(525,40,o),
(542,61,cs),
(557,79,o),
(565,98,o),
(565,118,cs),
(565,163,o),
(519,194,o),
(454,194,cs),
(386,194,o),
(339,161,o),
(339,114,cs),
(339,32,o),
(461,-15,o),
(586,-15,cs)
);
}
);
width = 862;
},
{
layerId = "DF54607F-DD82-41E6-B2E3-81CA6D0E5C47";
shapes = (
{
closed = 1;
nodes = (
(1533,-15,o),
(1813,9,o),
(1813,146,cs),
(1813,244,o),
(1583,288,o),
(1391,333,cs),
(1252,366,o),
(1133,399,o),
(1133,448,cs),
(1133,487,o),
(1227,511,o),
(1316,537,cs),
(1394,561,o),
(1468,587,o),
(1468,628,cs),
(1468,697,o),
(1230,745,o),
(805,745,cs),
(343,745,o),
(207,718,o),
(122,649,cs),
(81,616,o),
(61,552,o),
(60,500,c),
(10,490,l),
(10,480,l),
(60,480,l),
(60,20,l),
(10,10,l),
(10,0,l),
(630,0,l),
(630,10,l),
(580,20,l),
(580,500,l),
(569,574,o),
(554,630,o),
(554,670,cs),
(554,710,o),
(569,734,o),
(808,734,cs),
(1004,734,o),
(1151,681,o),
(1151,636,cs),
(1151,604,o),
(1108,589,o),
(1051,564,cs),
(940,514,o),
(775,467,o),
(775,378,cs),
(774,271,o),
(960,226,o),
(1134,186,cs),
(1288,150,o),
(1434,117,o),
(1434,62,cs),
(1434,10,o),
(1353,-7,o),
(1261,-7,cs),
(1154,-7,o),
(1148,6,o),
(1148,17,cs),
(1148,28,o),
(1170,40,o),
(1190,57,cs),
(1206,71,o),
(1221,87,o),
(1221,108,cs),
(1221,154,o),
(1113,189,o),
(1002,189,cs),
(884,189,o),
(763,167,o),
(763,96,cs),
(763,13,o),
(888,-15,o),
(1264,-15,cs)
);
}
);
width = 1818;
},
{
layerId = "A5088515-37FF-452F-BD44-18A7A5EF88F0";
shapes = (
{
closed = 1;
nodes = (
(632,-15,o),
(705,37,o),
(705,125,cs),
(705,212,o),
(605,239,o),
(508,265,cs),
(418,289,o),
(332,311,o),
(332,382,cs),
(332,434,o),
(376,470,o),
(416,508,cs),
(448,539,o),
(477,572,o),
(477,616,c),
(477,695,o),
(411,745,o),
(305,745,cs),
(151,745,o),
(124,689,o),
(124,613,cs),
(124,585,o),
(128,532,o),
(130,500,c),
(60,490,l),
(60,480,l),
(130,480,l),
(130,20,l),
(60,10,l),
(60,0,l),
(224,0,l),
(224,10,l),
(144,20,l),
(144,500,l),
(142,531,o),
(138,584,o),
(138,612,cs),
(138,679,o),
(162,730,o),
(305,730,cs),
(402,730,o),
(463,686,o),
(463,616,c),
(463,575,o),
(437,545,o),
(407,517,cs),
(366,478,o),
(318,442,o),
(318,382,cs),
(318,303,o),
(412,277,o),
(506,252,cs),
(599,227,o),
(691,201,o),
(691,125,cs),
(691,46,o),
(623,0,o),
(508,0,cs),
(425,0,o),
(353,24,o),
(353,43,cs),
(353,53,o),
(361,59,o),
(386,69,cs),
(404,77,o),
(413,89,o),
(413,105,cs),
(413,130,o),
(387,143,o),
(361,143,cs),
(335,143,o),
(309,130,o),
(309,102,cs),
(309,33,o),
(391,-15,o),
(508,-15,cs)
);
}
);
width = 710;
},
{
layerId = "35A90D60-3AD4-435C-9F8B-D1CA483F6F66";
shapes = (
{
closed = 1;
nodes = (
(1189,-15,o),
(1327,37,o),
(1327,125,c),
(1327,208,o),
(1128,236,o),
(939,265,cs),
(771,291,o),
(612,317,o),
(612,382,cs),
(612,430,o),
(683,465,o),
(753,500,cs),
(835,542,o),
(881,583,o),
(881,626,c),
(881,696,o),
(749,745,o),
(562,745,cs),
(282,745,o),
(231,691,o),
(231,618,cs),
(231,589,o),
(239,534,o),
(244,500,c),
(95,490,l),
(95,480,l),
(244,480,l),
(244,20,l),
(80,10,l),
(80,0,l),
(445,0,l),
(445,10,l),
(258,20,l),
(258,500,l),
(255,533,o),
(244,589,o),
(244,619,cs),
(244,682,o),
(292,730,o),
(563,730,cs),
(741,730,o),
(867,687,o),
(867,626,c),
(867,589,o),
(821,550,o),
(740,509,cs),
(671,473,o),
(598,436,o),
(598,382,cs),
(598,306,o),
(764,278,o),
(937,251,cs),
(1121,223,o),
(1313,198,o),
(1313,125,c),
(1313,46,o),
(1180,0,o),
(956,0,cs),
(800,0,o),
(664,24,o),
(664,43,cs),
(664,52,o),
(680,58,o),
(728,69,cs),
(759,77,o),
(777,90,o),
(777,105,cs),
(777,130,o),
(728,143,o),
(679,143,cs),
(630,143,o),
(581,130,o),
(581,102,cs),
(581,33,o),
(735,-15,o),
(956,-15,cs)
);
}
);
width = 1352;
}
);
metricLeft = f;
unicode = 223;
},
{
color = 0;
glyphname = t;
kernLeft = u;
kernRight = t;
lastChange = "2022-08-05 06:06:17 +0000";
layers = (
{
background = {
shapes = (
{
closed = 1;
nodes = (
(288,-15,o),
(340,0,o),
(378,25,c),
(378,45,l),
(365,35,o),
(351,30,o),
(338,30,cs),
(314,30,o),
(295,50,o),
(295,100,cs),
(295,480,l),
(385,480,l),
(385,490,l),
(295,505,l),
(295,649,l),
(275,649,l),
(60,500,l),
(0,490,l),
(0,480,l),
(60,480,l),
(60,181,ls),
(60,51,o),
(109,-15,o),
(230,-15,cs)
);
},
{
closed = 1;
nodes = (
(288,9,o),
(256,2,o),
(224,2,cs),
(153,2,o),
(80,37,o),
(80,181,cs),
(80,489,l),
(275,624,l),
(275,100,ls),
(275,55,o),
(290,27,o),
(312,16,c)
);
}
);
};
layerId = "2660E96A-9963-4076-AFCB-E451BC6EE103";
shapes = (
{
closed = 1;
nodes = (
(288,-20,o),
(340,-5,o),
(378,20,c),
(378,40,l),
(365,30,o),
(351,25,o),
(338,25,cs),
(314,25,o),
(295,45,o),
(295,95,cs),
(295,480,l),
(385,480,l),
(385,490,l),
(295,505,l),
(295,664,l),
(275,664,l),
(60,500,l),
(0,490,l),
(0,480,l),
(60,480,l),
(60,176,ls),
(60,46,o),
(109,-20,o),
(230,-20,cs)
);
}
);
width = 395;
},
{
layerId = "DF54607F-DD82-41E6-B2E3-81CA6D0E5C47";
shapes = (
{
closed = 1;
nodes = (
(452,-20,o),
(625,-5,o),
(663,20,c),
(663,40,l),
(649,30,o),
(635,25,o),
(623,25,cs),
(598,25,o),
(580,46,o),
(580,95,cs),
(580,480,l),
(670,480,l),
(670,490,l),
(580,505,l),
(580,664,l),
(570,664,l),
(102,500,l),
(0,490,l),
(0,480,l),
(60,480,l),
(60,176,ls),
(60,44,o),
(170,-20,o),
(394,-20,cs)
);
}
);
width = 700;
},
{
layerId = "A5088515-37FF-452F-BD44-18A7A5EF88F0";
shapes = (
{
closed = 1;
nodes = (
(189,-15,o),
(227,29,o),
(248,60,c),
(240,66,l),
(211,29,o),
(183,0,o),
(151,0,cs),
(128,0,o),
(119,17,o),
(119,61,c),
(119,480,l),
(238,480,l),
(238,490,l),
(119,500,l),
(119,664,l),
(109,664,l),
(106,500,l),
(25,490,l),
(25,480,l),
(105,480,l),
(105,61,ls),
(105,7,o),
(118,-15,o),
(151,-15,cs)
);
}
);
width = 288;
},
{
layerId = "35A90D60-3AD4-435C-9F8B-D1CA483F6F66";
shapes = (
{
closed = 1;
nodes = (
(352,-15,o),
(425,29,o),
(466,60,c),
(461,66,l),
(393,29,o),
(338,0,o),
(263,0,cs),
(209,0,o),
(187,17,o),
(187,61,c),
(187,480,l),
(417,480,l),
(417,490,l),
(187,500,l),
(187,664,l),
(177,664,l),
(175,500,l),
(25,490,l),
(25,480,l),
(173,480,l),
(173,61,ls),
(173,7,o),
(199,-15,o),
(263,-15,cs)
);
}
);
width = 536;
}
);
unicode = 116;
},
{
color = 0;
glyphname = u;
kernLeft = u;
kernRight = n;
lastChange = "2022-08-05 06:06:17 +0000";
layers = (
{
layerId = "2660E96A-9963-4076-AFCB-E451BC6EE103";
shapes = (
{
closed = 1;
nodes = (
(305,-14,o),
(355,61,o),
(389,157,c),
(397,149,l),
(397,-15,l),
(682,25,l),
(682,36,l),
(632,36,l),
(631,515,l),
(347,475,l),
(347,465,l),
(397,465,l),
(397,211,l),
(392,190,o),
(354,61,o),
(317,61,cs),
(301,61,o),
(287,85,o),
(287,126,cs),
(286,515,l),
(2,475,l),
(2,465,l),
(52,465,l),
(52,161,ls),
(52,67,o),
(82,-14,o),
(205,-14,cs)
);
}
);
width = 692;
},
{
layerId = "DF54607F-DD82-41E6-B2E3-81CA6D0E5C47";
shapes = (
{
closed = 1;
nodes = (
(523,-14,o),
(638,42,o),
(704,156,c),
(712,148,l),
(712,-15,l),
(1282,25,l),
(1282,36,l),
(1232,36,l),
(1232,515,l),
(672,474,l),
(672,464,l),
(712,464,l),
(712,190,l),
(683,132,o),
(640,85,o),
(612,84,cs),
(594,84,o),
(582,101,o),
(582,145,cs),
(582,515,l),
(12,474,l),
(12,464,l),
(62,464,l),
(62,160,ls),
(62,34,o),
(145,-16,o),
(353,-15,cs)
);
}
);
width = 1292;
},
{
layerId = "A5088515-37FF-452F-BD44-18A7A5EF88F0";
shapes = (
{
closed = 1;
nodes = (
(335,-15,o),
(425,46,o),
(497,156,c),
(505,150,l),
(505,-15,l),
(589,15,l),
(589,26,l),
(519,26,l),
(519,515,l),
(435,485,l),
(435,474,l),
(505,474,l),
(505,200,l),
(449,83,o),
(343,0,o),
(246,0,cs),
(164,0,o),
(124,53,o),
(124,162,cs),
(124,515,l),
(40,485,l),
(40,474,l),
(110,474,l),
(110,162,ls),
(110,43,o),
(155,-15,o),
(246,-15,cs)
);
}
);
width = 629;
},
{
layerId = "35A90D60-3AD4-435C-9F8B-D1CA483F6F66";
shapes = (
{
closed = 1;
nodes = (
(576,-15,o),
(727,50,o),
(857,166,c),
(871,159,l),
(871,-15,l),
(1005,15,l),
(1005,26,l),
(885,26,l),
(885,515,l),
(751,485,l),
(751,474,l),
(871,474,l),
(871,200,l),
(744,72,o),
(588,0,o),
(437,0,cs),
(280,0,o),
(204,53,o),
(204,162,cs),
(204,515,l),
(70,485,l),
(70,474,l),
(190,474,l),
(190,162,ls),
(190,43,o),
(263,-15,o),
(437,-15,cs)
);
}
);
width = 1055;
}
);
metricRight = n;
unicode = 117;
},
{
color = 1;
glyphname = v;
kernLeft = vv;
kernRight = v;
lastChange = "2022-08-05 06:06:17 +0000";
layers = (
{
layerId = "2660E96A-9963-4076-AFCB-E451BC6EE103";
shapes = (
{
closed = 1;
nodes = (
(371,0,l),
(553,480,l),
(609,490,l),
(609,500,l),
(368,500,l),
(368,490,l),
(431,490,o),
(447,387,o),
(447,324,cs),
(447,272,o),
(441,224,o),
(428,188,cs),
(425,180,l),
(409,180,l),
(281,480,l),
(333,489,l),
(333,500,l),
(-20,500,l),
(-20,489,l),
(27,480,l),
(231,0,l)
);
}
);
width = 619;
},
{
layerId = "DF54607F-DD82-41E6-B2E3-81CA6D0E5C47";
shapes = (
{
closed = 1;
nodes = (
(789,0,l),
(1168,480,l),
(1225,490,l),
(1225,500,l),
(793,500,l),
(793,490,l),
(890,490,o),
(948,414,o),
(948,317,cs),
(948,267,o),
(934,220,o),
(906,185,cs),
(902,180,l),
(868,180,l),
(611,480,l),
(687,489,l),
(687,500,l),
(29,500,l),
(29,489,l),
(82,480,l),
(498,0,l)
);
}
);
width = 1222;
},
{
layerId = "A5088515-37FF-452F-BD44-18A7A5EF88F0";
shapes = (
{
closed = 1;
nodes = (
(297,0,l),
(470,480,l),
(539,490,l),
(539,500,l),
(331,500,l),
(331,490,l),
(414,490,o),
(442,480,o),
(442,449,cs),
(442,445,o),
(441,440,o),
(440,437,c),
(295,27,l),
(286,27,l),
(109,481,l),
(181,490,l),
(181,500,l),
(25,500,l),
(25,490,l),
(93,480,l),
(282,0,l)
);
}
);
width = 569;
},
{
layerId = "35A90D60-3AD4-435C-9F8B-D1CA483F6F66";
shapes = (
{
closed = 1;
nodes = (
(537,0,l),
(892,480,l),
(1021,490,l),
(1021,500,l),
(639,500,l),
(639,490,l),
(796,490,o),
(848,480,o),
(848,449,cs),
(848,445,o),
(847,441,o),
(844,437,c),
(542,27,l),
(523,27,l),
(191,481,l),
(326,490,l),
(326,500,l),
(45,500,l),
(45,490,l),
(172,480,l),
(527,0,l)
);
}
);
width = 1071;
}
);
unicode = 118;
},
{
color = 0;
glyphname = w;
kernLeft = vv;
kernRight = v;
lastChange = "2022-08-05 06:06:17 +0000";
layers = (
{
layerId = "2660E96A-9963-4076-AFCB-E451BC6EE103";
shapes = (
{
closed = 1;
nodes = (
(371,0,l),
(553,480,l),
(609,490,l),
(609,500,l),
(368,500,l),
(368,490,l),
(431,490,o),
(447,387,o),
(447,324,cs),
(447,272,o),
(441,224,o),
(428,188,cs),
(425,180,l),
(409,180,l),
(281,480,l),
(333,489,l),
(333,500,l),
(-20,500,l),
(-20,489,l),
(27,480,l),
(231,0,l)
);
},
{
closed = 1;
nodes = (
(433,184,l),
(511,0,l),
(651,0,l),
(833,480,l),
(889,490,l),
(889,500,l),
(648,500,l),
(648,490,l),
(711,490,o),
(727,387,o),
(727,324,cs),
(727,272,o),
(721,224,o),
(708,188,cs),
(705,180,l),
(689,180,l),
(553,498,l)
);
}
);
width = 899;
},
{
layerId = "DF54607F-DD82-41E6-B2E3-81CA6D0E5C47";
shapes = (
{
closed = 1;
nodes = (
(789,0,l),
(1168,480,l),
(1225,490,l),
(1225,500,l),
(793,500,l),
(793,490,l),
(890,490,o),
(948,414,o),
(948,317,cs),
(948,267,o),
(934,220,o),
(906,185,cs),
(902,180,l),
(868,180,l),
(611,480,l),
(687,489,l),
(687,500,l),
(29,500,l),
(29,489,l),
(82,480,l),
(498,0,l)
);
},
{
closed = 1;
nodes = (
(910,172,l),
(1059,0,l),
(1350,0,l),
(1729,480,l),
(1786,490,l),
(1786,500,l),
(1354,500,l),
(1354,490,l),
(1451,490,o),
(1509,414,o),
(1509,317,cs),
(1509,267,o),
(1495,220,o),
(1467,185,cs),
(1463,180,l),
(1429,180,l),
(1163,491,l)
);
}
);
width = 1783;
},
{
layerId = "A5088515-37FF-452F-BD44-18A7A5EF88F0";
shapes = (
{
closed = 1;
nodes = (
(297,0,l),
(470,480,l),
(539,490,l),
(539,500,l),
(331,500,l),
(331,490,l),
(414,490,o),
(442,480,o),
(442,449,cs),
(442,445,o),
(441,440,o),
(440,437,cs),
(295,27,l),
(286,27,l),
(109,481,l),
(181,490,l),
(181,500,l),
(25,500,l),
(25,490,l),
(93,480,l),
(282,0,l)
);
},
{
closed = 1;
nodes = (
(429,389,l),
(582,0,l),
(597,0,l),
(770,480,l),
(839,490,l),
(839,500,l),
(631,500,l),
(631,490,l),
(714,490,o),
(742,480,o),
(742,449,cs),
(742,445,o),
(741,440,o),
(740,437,cs),
(595,27,l),
(586,27,l),
(437,409,l)
);
}
);
width = 869;
},
{
layerId = "35A90D60-3AD4-435C-9F8B-D1CA483F6F66";
shapes = (
{
closed = 1;
nodes = (
(537,0,l),
(892,480,l),
(1021,490,l),
(1021,500,l),
(639,500,l),
(639,490,l),
(796,490,o),
(848,480,o),
(848,449,cs),
(848,445,o),
(847,441,o),
(844,437,cs),
(542,27,l),
(523,27,l),
(191,481,l),
(326,490,l),
(326,500,l),
(45,500,l),
(45,490,l),
(172,480,l),
(527,0,l)
);
},
{
closed = 1;
nodes = (
(806,375,l),
(1083,0,l),
(1093,0,l),
(1448,480,l),
(1577,490,l),
(1577,500,l),
(1195,500,l),
(1195,490,l),
(1352,490,o),
(1404,480,o),
(1404,449,cs),
(1404,445,o),
(1403,441,o),
(1400,437,cs),
(1098,27,l),
(1079,27,l),
(815,388,l)
);
}
);
width = 1627;
}
);
metricLeft = v;
metricRight = v;
unicode = 119;
},
{
color = 0;
glyphname = x;
kernLeft = x;
kernRight = xx;
lastChange = "2022-08-05 06:06:17 +0000";
layers = (
{
layerId = "2660E96A-9963-4076-AFCB-E451BC6EE103";
shapes = (
{
closed = 1;
nodes = (
(677,0,l),
(677,10,l),
(627,20,l),
(312,480,l),
(351,489,l),
(351,500,l),
(2,500,l),
(2,489,l),
(53,480,l),
(366,20,l),
(326,10,l),
(326,0,l)
);
},
{
closed = 1;
nodes = (
(199,-15,o),
(247,39,o),
(280,137,c),
(290,137,l),
(275,160,l),
(255,91,o),
(229,46,o),
(218,46,cs),
(215,46,o),
(213,49,o),
(213,53,cs),
(213,61,o),
(220,76,o),
(220,93,cs),
(220,142,o),
(173,180,o),
(113,180,cs),
(54,180,o),
(4,144,o),
(4,83,cs),
(4,26,o),
(50,-15,o),
(113,-15,cs)
);
},
{
closed = 1;
nodes = (
(617,323,o),
(671,353,o),
(671,421,cs),
(671,470,o),
(629,515,o),
(559,515,cs),
(489,515,o),
(444,475,o),
(400,364,c),
(390,364,l),
(404,343,l),
(423,395,o),
(455,469,o),
(482,469,cs),
(485,469,o),
(487,467,o),
(487,463,cs),
(487,453,o),
(466,427,o),
(466,404,cs),
(466,353,o),
(514,325,o),
(564,324,cs)
);
}
);
width = 688;
},
{
layerId = "DF54607F-DD82-41E6-B2E3-81CA6D0E5C47";
shapes = (
{
closed = 1;
nodes = (
(1196,0,l),
(1196,10,l),
(1112,25,l),
(636,474,l),
(700,489,l),
(700,500,l),
(45,500,l),
(45,489,l),
(130,474,l),
(607,25,l),
(539,10,l),
(539,0,l)
);
},
{
closed = 1;
nodes = (
(396,-15,o),
(452,55,o),
(476,135,c),
(499,135,l),
(471,176,l),
(471,124,o),
(431,38,o),
(388,38,cs),
(378,38,o),
(374,40,o),
(374,44,cs),
(374,56,o),
(413,89,o),
(412,138,cs),
(411,186,o),
(376,268,o),
(214,268,cs),
(80,268,o),
(10,198,o),
(10,131,cs),
(10,59,o),
(80,-15,o),
(227,-15,cs)
);
},
{
closed = 1;
nodes = (
(1145,232,o),
(1208,300,o),
(1209,370,cs),
(1210,442,o),
(1143,515,o),
(1002,515,cs),
(887,515,o),
(813,478,o),
(744,385,c),
(715,385,l),
(734,351,l),
(758,388,o),
(810,462,o),
(853,462,cs),
(862,462,o),
(866,460,o),
(866,457,cs),
(866,446,o),
(816,413,o),
(817,362,cs),
(818,314,o),
(884,232,o),
(1026,232,cs)
);
}
);
width = 1209;
},
{
layerId = "A5088515-37FF-452F-BD44-18A7A5EF88F0";
shapes = (
{
closed = 1;
nodes = (
(542,0,l),
(542,10,l),
(476,20,l),
(144,480,l),
(217,490,l),
(217,500,l),
(62,500,l),
(62,490,l),
(129,480,l),
(461,20,l),
(387,10,l),
(387,0,l)
);
},
{
closed = 1;
nodes = (
(191,-15,o),
(241,88,o),
(311,221,c),
(324,221,l),
(308,239,l),
(224,65,o),
(173,12,o),
(164,12,cs),
(158,12,o),
(157,16,o),
(157,21,cs),
(157,28,o),
(159,36,o),
(159,46,cs),
(159,69,o),
(136,82,o),
(112,82,cs),
(85,82,o),
(55,68,o),
(55,37,cs),
(55,12,o),
(77,-15,o),
(117,-15,cs)
);
},
{
closed = 1;
nodes = (
(562,418,o),
(582,440,o),
(582,464,cs),
(582,489,o),
(564,515,o),
(524,515,cs),
(442,515,o),
(398,420,o),
(317,251,c),
(308,251,l),
(321,232,l),
(399,409,o),
(449,484,o),
(475,484,cs),
(479,484,o),
(480,483,o),
(480,480,cs),
(480,476,o),
(477,468,o),
(477,457,cs),
(477,442,o),
(487,418,o),
(524,418,cs)
);
}
);
width = 617;
},
{
layerId = "35A90D60-3AD4-435C-9F8B-D1CA483F6F66";
shapes = (
{
closed = 1;
nodes = (
(886,0,l),
(886,10,l),
(776,20,l),
(223,480,l),
(345,490,l),
(345,500,l),
(91,500,l),
(91,490,l),
(202,480,l),
(755,20,l),
(631,10,l),
(631,0,l)
);
},
{
closed = 1;
nodes = (
(299,-15,o),
(383,86,o),
(499,219,c),
(522,218,l),
(497,236,l),
(363,70,o),
(274,13,o),
(256,13,cs),
(247,13,o),
(244,16,o),
(244,23,cs),
(244,29,o),
(248,37,o),
(248,46,cs),
(248,69,o),
(210,82,o),
(170,82,cs),
(125,82,o),
(75,68,o),
(75,37,cs),
(75,12,o),
(110,-15,o),
(176,-15,cs)
);
},
{
closed = 1;
nodes = (
(917,418,o),
(950,440,o),
(950,464,cs),
(950,489,o),
(922,515,o),
(855,515,cs),
(719,515,o),
(646,422,o),
(511,253,c),
(490,253,l),
(514,234,l),
(644,411,o),
(726,484,o),
(769,484,cs),
(776,484,o),
(779,482,o),
(779,479,cs),
(779,474,o),
(775,468,o),
(775,457,cs),
(775,442,o),
(792,418,o),
(853,418,cs)
);
}
);
width = 1005;
}
);
unicode = 120;
},
{
color = 0;
glyphname = y;
kernLeft = vv;
kernRight = v;
lastChange = "2022-08-05 06:06:17 +0000";
layers = (
{
layerId = "2660E96A-9963-4076-AFCB-E451BC6EE103";
shapes = (
{
closed = 1;
nodes = (
(240,-215,o),
(283,-181,o),
(314,-131,cs),
(338,-93,o),
(353,-47,o),
(371,0,cs),
(553,480,l),
(609,490,l),
(609,500,l),
(368,500,l),
(368,490,l),
(437,490,o),
(446,374,o),
(446,305,cs),
(446,266,o),
(440,226,o),
(429,192,cs),
(425,180,l),
(409,180,l),
(286,480,l),
(333,489,l),
(333,500,l),
(-20,500,l),
(-20,489,l),
(32,480,l),
(233,0,l),
(353,0,l),
(340,-47,o),
(324,-86,o),
(306,-116,cs),
(280,-162,o),
(251,-186,o),
(229,-186,cs),
(225,-186,o),
(223,-185,o),
(223,-182,cs),
(223,-176,o),
(229,-165,o),
(235,-147,cs),
(239,-134,o),
(242,-117,o),
(242,-97,cs),
(242,-48,o),
(196,-24,o),
(149,-24,cs),
(95,-24,o),
(37,-53,o),
(37,-111,cs),
(37,-167,o),
(75,-215,o),
(167,-215,cs)
);
}
);
width = 619;
},
{
layerId = "DF54607F-DD82-41E6-B2E3-81CA6D0E5C47";
shapes = (
{
closed = 1;
nodes = (
(541,-215,o),
(624,-183,o),
(689,-135,cs),
(740,-97,o),
(780,-49,o),
(819,0,cs),
(1198,480,l),
(1255,490,l),
(1255,500,l),
(823,500,l),
(823,490,l),
(921,490,o),
(980,419,o),
(978,318,cs),
(977,271,o),
(966,226,o),
(941,192,cs),
(932,180,l),
(898,180,l),
(641,480,l),
(717,489,l),
(717,500,l),
(59,500,l),
(59,489,l),
(112,480,l),
(528,0,l),
(799,0,l),
(764,-50,o),
(720,-94,o),
(681,-125,cs),
(641,-155,o),
(605,-173,o),
(583,-173,cs),
(580,-173,o),
(579,-172,o),
(579,-170,cs),
(579,-166,o),
(585,-160,o),
(597,-149,cs),
(615,-132,o),
(625,-114,o),
(625,-97,cs),
(625,-48,o),
(504,-24,o),
(361,-24,cs),
(196,-24,o),
(29,-53,o),
(29,-111,cs),
(29,-167,o),
(135,-215,o),
(416,-215,cs)
);
}
);
width = 1252;
},
{
layerId = "A5088515-37FF-452F-BD44-18A7A5EF88F0";
shapes = (
{
closed = 1;
nodes = (
(177,-215,o),
(204,-199,o),
(224,-169,cs),
(240,-144,o),
(267,-84,o),
(297,0,cs),
(470,480,l),
(539,490,l),
(539,500,l),
(331,500,l),
(331,490,l),
(414,490,o),
(442,480,o),
(442,450,cs),
(442,445,o),
(441,440,o),
(440,437,cs),
(295,27,l),
(286,27,l),
(109,481,l),
(181,490,l),
(181,500,l),
(25,500,l),
(25,490,l),
(93,480,l),
(282,0,l),
(285,0,l),
(259,-76,o),
(232,-138,o),
(216,-161,cs),
(197,-189,o),
(173,-204,o),
(147,-204,cs),
(124,-204,o),
(113,-200,o),
(113,-194,cs),
(113,-191,o),
(117,-186,o),
(127,-177,cs),
(142,-164,o),
(149,-149,o),
(149,-131,cs),
(149,-106,o),
(123,-93,o),
(97,-93,cs),
(71,-93,o),
(45,-106,o),
(45,-134,cs),
(45,-183,o),
(89,-215,o),
(147,-215,cs)
);
}
);
width = 569;
},
{
layerId = "35A90D60-3AD4-435C-9F8B-D1CA483F6F66";
shapes = (
{
closed = 1;
nodes = (
(323,-215,o),
(378,-193,o),
(418,-153,cs),
(432,-139,o),
(476,-84,o),
(538,0,cs),
(893,480,l),
(1022,490,l),
(1022,500,l),
(640,500,l),
(640,490,l),
(797,490,o),
(849,480,o),
(849,449,cs),
(849,445,o),
(848,441,o),
(845,437,cs),
(543,27,l),
(523,27,l),
(191,481,l),
(326,490,l),
(326,500,l),
(45,500,l),
(45,490,l),
(173,480,l),
(525,0,l),
(526,0,l),
(480,-61,o),
(449,-106,o),
(415,-142,cs),
(377,-182,o),
(320,-204,o),
(263,-204,cs),
(222,-204,o),
(200,-201,o),
(200,-195,cs),
(200,-192,o),
(211,-184,o),
(232,-172,c),
(259,-153,o),
(268,-143,o),
(268,-131,cs),
(268,-106,o),
(219,-93,o),
(170,-93,cs),
(121,-93,o),
(73,-106,o),
(73,-134,cs),
(73,-183,o),
(153,-215,o),
(263,-215,cs)
);
}
);
width = 1072;
}
);
metricLeft = v;
metricRight = v;
unicode = 121;
},
{
color = 1;
glyphname = z;
kernLeft = z;
kernRight = zz;
lastChange = "2022-08-05 06:06:17 +0000";
layers = (
{
layerId = "2660E96A-9963-4076-AFCB-E451BC6EE103";
shapes = (
{
closed = 1;
nodes = (
(578,0,l),
(528,210,l),
(518,210,l),
(486,122,ls),
(460,50,o),
(407,15,o),
(327,15,c),
(267,15,l),
(582,500,l),
(13,500,l),
(44,266,l),
(54,266,l),
(77,349,ls),
(103,440,o),
(175,485,o),
(294,485,c),
(314,485,l),
(0,0,l)
);
}
);
width = 602;
},
{
layerId = "DF54607F-DD82-41E6-B2E3-81CA6D0E5C47";
shapes = (
{
closed = 1;
nodes = (
(985,0,l),
(945,270,l),
(935,270,l),
(850,168,ls),
(768,70,o),
(664,15,o),
(560,15,c),
(550,15,l),
(987,500,l),
(32,500,l),
(57,216,l),
(67,216,l),
(118,330,ls),
(164,434,o),
(266,485,o),
(427,485,c),
(437,485,l),
(0,0,l)
);
}
);
width = 1007;
},
{
layerId = "A5088515-37FF-452F-BD44-18A7A5EF88F0";
shapes = (
{
closed = 1;
nodes = (
(471,0,l),
(426,170,l),
(416,170,l),
(425,108,ls),
(436,33,o),
(416,15,o),
(389,15,cs),
(91,15,l),
(470,500,l),
(82,500,l),
(129,326,l),
(139,326,l),
(126,405,ls),
(115,471,o),
(132,485,o),
(153,485,cs),
(438,485,l),
(60,0,l)
);
}
);
width = 531;
},
{
layerId = "35A90D60-3AD4-435C-9F8B-D1CA483F6F66";
shapes = (
{
closed = 1;
nodes = (
(822,0,l),
(739,170,l),
(729,170,l),
(751,98,ls),
(767,45,o),
(752,15,o),
(670,15,cs),
(134,15,l),
(819,500,l),
(118,500,l),
(205,326,l),
(215,326,l),
(191,398,ls),
(174,450,o),
(179,485,o),
(250,485,cs),
(773,485,l),
(90,0,l)
);
}
);
width = 927;
}
);
unicode = 122;
},
{
color = 1;
glyphname = f_b.liga;
kernLeft = f;
kernRight = b;
lastChange = "2022-08-05 06:06:17 +0000";
layers = (
{
anchors = (
{
name = bottom_1;
pos = (273,0);
},
{
name = bottom_2;
pos = (818,0);
},
{
name = caret_1;
pos = (545,0);
},
{
name = top_1;
pos = (273,800);
},
{
name = top_2;
pos = (818,800);
}
);
layerId = "2660E96A-9963-4076-AFCB-E451BC6EE103";
shapes = (
{
closed = 1;
nodes = (
(486,-15,l),
(562,90,l),
(572,90,l),
(604,45,o),
(658,-15,o),
(778,-15,cs),
(922,-15,o),
(1070,56,o),
(1070,276,cs),
(1070,394,o),
(1024,515,o),
(900,515,cs),
(831,515,o),
(771,487,o),
(719,344,c),
(711,352,l),
(711,745,l),
(517,718,l),
(472,734,o),
(410,745,o),
(367,745,cs),
(192,745,o),
(112,715,o),
(79,637,cs),
(63,600,o),
(60,534,o),
(60,500,c),
(10,490,l),
(10,480,l),
(60,480,l),
(60,20,l),
(10,10,l),
(10,0,l),
(345,0,l),
(345,10,l),
(295,20,l),
(295,485,l),
(385,485,l),
(385,500,l),
(295,500,l),
(284,552,o),
(268,631,o),
(268,671,cs),
(268,712,o),
(303,735,o),
(367,735,cs),
(440,735,o),
(476,697,o),
(476,619,cs),
(476,-15,l)
);
},
{
closed = 1;
nodes = (
(742,0,o),
(711,25,o),
(711,170,cs),
(711,289,l),
(733,363,o),
(762,430,o),
(791,430,cs),
(825,430,o),
(830,376,o),
(830,241,cs),
(830,108,o),
(816,0,o),
(768,0,cs)
);
}
);
width = 1090;
},
{
anchors = (
{
name = bottom_1;
pos = (500,0);
},
{
name = bottom_2;
pos = (1499,0);
},
{
name = caret_1;
pos = (999,0);
},
{
name = top_1;
pos = (500,800);
},
{
name = top_2;
pos = (1499,800);
}
);
layerId = "DF54607F-DD82-41E6-B2E3-81CA6D0E5C47";
shapes = (
{
closed = 1;
nodes = (
(808,-15,l),
(959,90,l),
(969,90,l),
(1069,28,o),
(1264,-15,o),
(1426,-15,cs),
(1770,-15,o),
(1973,93,o),
(1973,276,cs),
(1973,416,o),
(1834,515,o),
(1638,515,cs),
(1496,515,o),
(1391,459,o),
(1326,344,c),
(1318,352,l),
(1318,745,l),
(938,717,l),
(848,736,o),
(721,745,o),
(615,745,cs),
(343,745,o),
(207,718,o),
(122,649,cs),
(81,616,o),
(61,552,o),
(60,500,c),
(10,490,l),
(10,480,l),
(60,480,l),
(60,20,l),
(10,10,l),
(10,0,l),
(630,0,l),
(630,10,l),
(580,20,l),
(580,485,l),
(670,485,l),
(670,500,l),
(580,500,l),
(569,552,o),
(554,630,o),
(554,670,cs),
(554,710,o),
(569,734,o),
(648,734,cs),
(699,734,o),
(798,730,o),
(798,654,cs),
(798,-15,l)
);
},
{
closed = 1;
nodes = (
(1334,0,o),
(1318,63,o),
(1318,170,cs),
(1318,300,l),
(1355,378,o),
(1379,408,o),
(1406,408,cs),
(1437,408,o),
(1448,362,o),
(1448,241,cs),
(1448,69,o),
(1427,0,o),
(1376,0,cs)
);
}
);
width = 1998;
},
{
anchors = (
{
name = bottom_1;
pos = (243,0);
},
{
name = bottom_2;
pos = (728,0);
},
{
name = caret_1;
pos = (485.5,0);
},
{
name = top_1;
pos = (243,800);
},
{
name = top_2;
pos = (728,800);
}
);
layerId = "A5088515-37FF-452F-BD44-18A7A5EF88F0";
shapes = (
{
closed = 1;
nodes = (
(482,-15,l),
(486,90,l),
(496,90,l),
(545,19,o),
(621,-15,o),
(687,-15,cs),
(825,-15,o),
(906,85,o),
(906,255,cs),
(906,418,o),
(831,515,o),
(705,515,cs),
(585,515,o),
(515,399,o),
(494,354,c),
(486,362,l),
(486,745,l),
(439,729,l),
(400,740,o),
(358,745,o),
(312,745,cs),
(172,745,o),
(122,715,o),
(122,637,cs),
(122,602,o),
(127,541,o),
(130,500,c),
(60,490,l),
(60,480,l),
(130,480,l),
(130,20,l),
(60,10,l),
(60,0,l),
(224,0,l),
(224,10,l),
(144,20,l),
(144,480,l),
(279,480,l),
(279,490,l),
(144,500,l),
(140,540,o),
(136,603,o),
(136,637,cs),
(136,692,o),
(161,734,o),
(312,734,cs),
(428,734,o),
(472,705,o),
(472,628,cs),
(472,-15,l)
);
},
{
closed = 1;
nodes = (
(606,0,o),
(486,71,o),
(486,179,cs),
(486,293,l),
(524,423,o),
(614,500,o),
(703,500,cs),
(822,500,o),
(892,413,o),
(892,264,cs),
(892,98,o),
(815,0,o),
(687,0,cs)
);
}
);
width = 971;
},
{
anchors = (
{
name = bottom_1;
pos = (399,0);
},
{
name = bottom_2;
pos = (1196,0);
},
{
name = caret_1;
pos = (797.5,0);
},
{
name = top_1;
pos = (399,800);
},
{
name = top_2;
pos = (1196,800);
}
);
layerId = "35A90D60-3AD4-435C-9F8B-D1CA483F6F66";
shapes = (
{
closed = 1;
nodes = (
(774,-15,l),
(778,102,l),
(787,107,l),
(873,18,o),
(1020,-15,o),
(1138,-15,cs),
(1368,-15,o),
(1530,97,o),
(1530,255,cs),
(1530,407,o),
(1381,515,o),
(1170,515,cs),
(956,515,o),
(830,399,o),
(793,346,c),
(778,355,l),
(778,745,l),
(729,726,l),
(653,742,o),
(601,745,o),
(483,745,cs),
(290,745,o),
(218,718,o),
(218,649,cs),
(218,612,o),
(235,546,o),
(244,500,c),
(95,490,l),
(95,480,l),
(244,480,l),
(244,20,l),
(80,10,l),
(80,0,l),
(445,0,l),
(445,10,l),
(258,20,l),
(258,480,l),
(524,480,l),
(524,490,l),
(258,500,l),
(249,544,o),
(232,611,o),
(232,649,cs),
(232,697,o),
(277,734,o),
(490,734,cs),
(688,734,o),
(764,715,o),
(764,664,cs),
(764,-15,l)
);
},
{
closed = 1;
nodes = (
(976,0,o),
(778,75,o),
(778,183,cs),
(778,293,l),
(846,423,o),
(1007,500,o),
(1167,500,cs),
(1371,500,o),
(1516,399,o),
(1516,255,cs),
(1516,106,o),
(1359,0,o),
(1138,0,cs)
);
}
);
width = 1595;
}
);
metricLeft = f;
metricRight = b;
},
{
color = 1;
glyphname = f_f.liga;
kernLeft = f;
kernRight = f;
lastChange = "2022-08-05 06:06:17 +0000";
layers = (
{
anchors = (
{
name = bottom_1;
pos = (206,0);
},
{
name = bottom_2;
pos = (618,0);
},
{
name = caret_1;
pos = (412,0);
},
{
name = top_1;
pos = (206,800);
},
{
name = top_2;
pos = (618,800);
}
);
layerId = "2660E96A-9963-4076-AFCB-E451BC6EE103";
shapes = (
{
closed = 1;
nodes = (
(345,0,l),
(345,10,l),
(295,20,l),
(295,481,l),
(478,480,l),
(478,25,l),
(428,10,l),
(428,0,l),
(763,0,l),
(763,10,l),
(713,25,l),
(713,485,l),
(803,485,l),
(803,500,l),
(713,500,l),
(702,562,o),
(686,638,o),
(686,676,cs),
(686,713,o),
(706,735,o),
(746,735,cs),
(775,735,o),
(792,733,o),
(792,726,cs),
(792,715,o),
(771,703,o),
(752,687,cs),
(733,672,o),
(715,652,o),
(715,624,cs),
(715,566,o),
(772,535,o),
(851,535,cs),
(928,535,o),
(984,566,o),
(984,624,cs),
(984,703,o),
(875,745,o),
(743,745,cs),
(670,745,o),
(608,733,o),
(570,712,c),
(493,734,o),
(412,745,o),
(367,745,cs),
(192,745,o),
(112,715,o),
(79,637,cs),
(63,600,o),
(60,534,o),
(60,500,c),
(10,490,l),
(10,480,l),
(60,480,l),
(60,20,l),
(10,10,l),
(10,0,l)
);
},
{
closed = 1;
nodes = (
(295,500,l),
(284,552,o),
(268,631,o),
(268,671,cs),
(268,712,o),
(303,735,o),
(367,735,cs),
(449,734,o),
(478,702,o),
(478,607,cs),
(478,569,o),
(478,536,o),
(478,500,c),
(382,490,l)
);
}
);
width = 834;
},
{
anchors = (
{
name = bottom_1;
pos = (369,0);
},
{
name = bottom_2;
pos = (1107,0);
},
{
name = caret_1;
pos = (738,0);
},
{
name = top_1;
pos = (369,800);
},
{
name = top_2;
pos = (1107,800);
}
);
layerId = "DF54607F-DD82-41E6-B2E3-81CA6D0E5C47";
shapes = (
{
closed = 1;
nodes = (
(630,0,l),
(630,10,l),
(580,20,l),
(580,480,l),
(798,480,l),
(798,20,l),
(748,10,l),
(748,0,l),
(1368,0,l),
(1368,10,l),
(1318,20,l),
(1318,485,l),
(1408,485,l),
(1408,500,l),
(1318,500,l),
(1307,552,o),
(1292,630,o),
(1292,670,cs),
(1292,710,o),
(1307,734,o),
(1356,734,cs),
(1375,734,o),
(1380,730,o),
(1380,722,cs),
(1380,713,o),
(1367,700,o),
(1352,687,cs),
(1333,669,o),
(1312,650,o),
(1312,631,cs),
(1312,562,o),
(1417,538,o),
(1613,538,cs),
(1767,538,o),
(1876,563,o),
(1876,620,cs),
(1876,705,o),
(1635,745,o),
(1353,745,cs),
(1186,745,o),
(1058,732,o),
(967,703,c),
(844,736,o),
(719,745,o),
(615,745,cs),
(343,745,o),
(207,718,o),
(122,649,cs),
(81,616,o),
(61,552,o),
(60,500,c),
(10,490,l),
(10,480,l),
(60,480,l),
(60,20,l),
(10,10,l),
(10,0,l)
);
},
{
closed = 1;
nodes = (
(580,500,l),
(569,552,o),
(554,630,o),
(554,670,cs),
(554,710,o),
(569,734,o),
(648,734,cs),
(748,734,o),
(798,701,o),
(798,634,cs),
(798,600,o),
(798,534,o),
(798,500,c),
(702,490,l)
);
}
);
width = 1476;
},
{
anchors = (
{
name = bottom_1;
pos = (171,0);
},
{
name = bottom_2;
pos = (513,0);
},
{
name = caret_1;
pos = (342,0);
},
{
name = top_1;
pos = (171,800);
},
{
name = top_2;
pos = (513,800);
}
);
layerId = "A5088515-37FF-452F-BD44-18A7A5EF88F0";
shapes = (
{
closed = 1;
nodes = (
(224,0,l),
(224,10,l),
(144,20,l),
(144,480,l),
(472,480,l),
(472,20,l),
(402,10,l),
(402,0,l),
(566,0,l),
(566,10,l),
(486,20,l),
(486,480,l),
(621,480,l),
(621,490,l),
(486,500,l),
(484,540,o),
(478,603,o),
(478,638,cs),
(478,693,o),
(493,733,o),
(564,733,cs),
(588,733,o),
(596,730,o),
(596,724,cs),
(596,718,o),
(585,708,o),
(576,696,cs),
(568,686,o),
(560,674,o),
(560,660,cs),
(560,635,o),
(586,622,o),
(612,622,cs),
(638,622,o),
(664,635,o),
(664,663,cs),
(664,712,o),
(621,744,o),
(561,744,cs),
(512,744,o),
(481,723,o),
(469,682,c),
(435,722,o),
(372,745,o),
(292,745,cs),
(178,745,o),
(122,709,o),
(122,637,cs),
(122,602,o),
(127,541,o),
(130,500,c),
(60,490,l),
(60,480,l),
(130,480,l),
(130,20,l),
(60,10,l),
(60,0,l)
);
},
{
closed = 1;
nodes = (
(144,500,l),
(140,540,o),
(136,603,o),
(136,637,cs),
(136,702,o),
(188,734,o),
(292,734,cs),
(389,734,o),
(465,696,o),
(465,648,cs),
(465,620,o),
(468,550,o),
(472,500,c),
(306,490,l)
);
}
);
width = 684;
},
{
anchors = (
{
name = bottom_1;
pos = (281,0);
},
{
name = bottom_2;
pos = (843,0);
},
{
name = caret_1;
pos = (562,0);
},
{
name = top_1;
pos = (281,800);
},
{
name = top_2;
pos = (843,800);
}
);
layerId = "35A90D60-3AD4-435C-9F8B-D1CA483F6F66";
shapes = (
{
closed = 1;
nodes = (
(445,0,l),
(445,10,l),
(258,20,l),
(258,480,l),
(764,480,l),
(764,20,l),
(600,10,l),
(600,0,l),
(965,0,l),
(965,10,l),
(778,20,l),
(778,480,l),
(1044,480,l),
(1044,490,l),
(778,500,l),
(773,544,o),
(752,611,o),
(752,648,cs),
(752,698,o),
(791,734,o),
(960,734,cs),
(1017,734,o),
(1035,731,o),
(1035,725,cs),
(1035,720,o),
(1017,711,o),
(999,701,cs),
(980,690,o),
(961,676,o),
(961,661,cs),
(961,636,o),
(1012,623,o),
(1073,623,cs),
(1143,623,o),
(1184,638,o),
(1184,664,cs),
(1184,713,o),
(1094,745,o),
(953,745,cs),
(834,745,o),
(777,729,o),
(746,686,c),
(694,727,o),
(614,745,o),
(483,745,cs),
(290,745,o),
(218,718,o),
(218,649,cs),
(218,612,o),
(235,546,o),
(244,500,c),
(95,490,l),
(95,480,l),
(244,480,l),
(244,20,l),
(80,10,l),
(80,0,l)
);
},
{
closed = 1;
nodes = (
(258,500,l),
(249,544,o),
(232,611,o),
(232,649,cs),
(232,697,o),
(277,734,o),
(490,734,cs),
(636,734,o),
(739,702,o),
(739,657,cs),
(739,619,o),
(755,549,o),
(764,500,c),
(568,490,l)
);
}
);
width = 1124;
}
);
metricLeft = f;
metricRight = f;
},
{
color = 1;
glyphname = f_h.liga;
kernLeft = f;
kernRight = h;
lastChange = "2022-08-05 06:06:17 +0000";
layers = (
{
anchors = (
{
name = bottom_1;
pos = (279,0);
},
{
name = bottom_2;
pos = (837,0);
},
{
name = caret_1;
pos = (558,0);
},
{
name = top_1;
pos = (279,800);
},
{
name = top_2;
pos = (837,800);
}
);
layerId = "2660E96A-9963-4076-AFCB-E451BC6EE103";
shapes = (
{
closed = 1;
nodes = (
(345,0,l),
(345,10,l),
(295,20,l),
(295,485,l),
(385,485,l),
(385,500,l),
(295,500,l),
(284,552,o),
(268,631,o),
(268,671,cs),
(268,712,o),
(303,735,o),
(367,735,cs),
(434,735,o),
(476,702,o),
(476,619,cs),
(476,25,l),
(426,10,l),
(426,0,l),
(751,0,l),
(751,10,l),
(711,25,l),
(711,290,l),
(716,311,o),
(754,440,o),
(791,440,cs),
(807,440,o),
(821,416,o),
(821,375,cs),
(821,25,l),
(781,10,l),
(781,0,l),
(1106,0,l),
(1106,10,l),
(1056,25,l),
(1056,340,ls),
(1056,434,o),
(1026,515,o),
(903,515,cs),
(803,515,o),
(753,440,o),
(719,344,c),
(711,352,l),
(711,745,l),
(517,718,l),
(473,734,o),
(422,745,o),
(371,745,cs),
(192,745,o),
(112,715,o),
(79,637,cs),
(63,600,o),
(60,534,o),
(60,500,c),
(10,490,l),
(10,480,l),
(60,480,l),
(60,20,l),
(10,10,l),
(10,0,l)
);
}
);
width = 1116;
},
{
anchors = (
{
name = bottom_1;
pos = (507,0);
},
{
name = bottom_2;
pos = (1521,0);
},
{
name = caret_1;
pos = (1014,0);
},
{
name = top_1;
pos = (507,800);
},
{
name = top_2;
pos = (1521,800);
}
);
layerId = "DF54607F-DD82-41E6-B2E3-81CA6D0E5C47";
shapes = (
{
closed = 1;
nodes = (
(630,0,l),
(630,10,l),
(580,20,l),
(580,485,l),
(670,485,l),
(670,500,l),
(580,500,l),
(569,552,o),
(554,630,o),
(554,670,cs),
(554,710,o),
(569,734,o),
(648,734,cs),
(756,734,o),
(798,712,o),
(798,654,cs),
(798,20,l),
(748,10,l),
(748,0,l),
(1368,0,l),
(1368,10,l),
(1318,20,l),
(1318,310,l),
(1347,368,o),
(1390,415,o),
(1418,416,cs),
(1436,416,o),
(1448,399,o),
(1448,355,cs),
(1448,20,l),
(1408,10,l),
(1408,0,l),
(2018,0,l),
(2018,10,l),
(1968,20,l),
(1968,340,ls),
(1968,468,o),
(1831,515,o),
(1682,515,cs),
(1509,515,o),
(1392,459,o),
(1326,344,c),
(1318,352,l),
(1318,745,l),
(938,717,l),
(848,736,o),
(721,745,o),
(615,745,cs),
(343,745,o),
(207,718,o),
(122,649,cs),
(81,616,o),
(61,552,o),
(60,500,c),
(10,490,l),
(10,480,l),
(60,480,l),
(60,20,l),
(10,10,l),
(10,0,l)
);
}
);
width = 2028;
},
{
anchors = (
{
name = bottom_1;
pos = (245,0);
},
{
name = bottom_2;
pos = (736,0);
},
{
name = caret_1;
pos = (490.5,0);
},
{
name = top_1;
pos = (245,800);
},
{
name = top_2;
pos = (736,800);
}
);
layerId = "A5088515-37FF-452F-BD44-18A7A5EF88F0";
shapes = (
{
closed = 1;
nodes = (
(224,0,l),
(224,10,l),
(144,20,l),
(144,480,l),
(279,480,l),
(279,490,l),
(144,500,l),
(140,540,o),
(136,603,o),
(136,637,cs),
(136,692,o),
(161,734,o),
(312,734,cs),
(428,734,o),
(472,705,o),
(472,628,cs),
(472,20,l),
(412,10,l),
(412,0,l),
(546,0,l),
(546,10,l),
(486,20,l),
(486,300,l),
(542,417,o),
(654,500,o),
(745,500,cs),
(827,500,o),
(867,447,o),
(867,338,cs),
(867,20,l),
(807,10,l),
(807,0,l),
(941,0,l),
(941,10,l),
(881,20,l),
(881,338,ls),
(881,457,o),
(836,515,o),
(745,515,cs),
(656,515,o),
(566,454,o),
(494,344,c),
(486,350,l),
(486,745,l),
(439,729,l),
(403,739,o),
(362,745,o),
(312,745,cs),
(172,745,o),
(122,715,o),
(122,637,cs),
(122,602,o),
(127,541,o),
(130,500,c),
(60,490,l),
(60,480,l),
(130,480,l),
(130,20,l),
(60,10,l),
(60,0,l)
);
}
);
width = 981;
},
{
anchors = (
{
name = bottom_1;
pos = (405,0);
},
{
name = bottom_2;
pos = (1214,0);
},
{
name = caret_1;
pos = (809.5,0);
},
{
name = top_1;
pos = (405,800);
},
{
name = top_2;
pos = (1214,800);
}
);
layerId = "35A90D60-3AD4-435C-9F8B-D1CA483F6F66";
shapes = (
{
closed = 1;
nodes = (
(445,0,l),
(445,10,l),
(258,20,l),
(258,480,l),
(524,480,l),
(524,490,l),
(258,500,l),
(249,544,o),
(232,611,o),
(232,649,cs),
(232,697,o),
(277,734,o),
(490,734,cs),
(688,734,o),
(764,715,o),
(764,664,cs),
(764,20,l),
(654,10,l),
(654,0,l),
(888,0,l),
(888,10,l),
(778,20,l),
(778,300,l),
(881,404,o),
(1039,500,o),
(1212,500,cs),
(1369,500,o),
(1445,447,o),
(1445,338,cs),
(1445,20,l),
(1335,10,l),
(1335,0,l),
(1569,0,l),
(1569,10,l),
(1459,20,l),
(1459,338,ls),
(1459,457,o),
(1386,515,o),
(1212,515,cs),
(1071,515,o),
(919,447,o),
(792,334,c),
(778,341,l),
(778,745,l),
(729,726,l),
(653,742,o),
(601,745,o),
(483,745,cs),
(290,745,o),
(218,718,o),
(218,649,cs),
(218,612,o),
(235,546,o),
(244,500,c),
(95,490,l),
(95,480,l),
(244,480,l),
(244,20,l),
(80,10,l),
(80,0,l)
);
}
);
width = 1619;
}
);
metricLeft = f;
metricRight = h;
},
{
color = 9;
glyphname = f_j.liga;
kernLeft = f;
kernRight = j;
lastChange = "2022-08-05 06:06:17 +0000";
layers = (
{
anchors = (
{
name = bottom_1;
pos = (191,0);
},
{
name = bottom_2;
pos = (574,0);
},
{
name = caret_1;
pos = (382.5,0);
},
{
name = top_1;
pos = (191,800);
},
{
name = top_2;
pos = (574,800);
}
);
layerId = "2660E96A-9963-4076-AFCB-E451BC6EE103";
shapes = (
{
closed = 1;
nodes = (
(215,745,o),
(112,715,o),
(79,637,cs),
(63,600,o),
(60,534,o),
(60,500,c),
(10,490,l),
(10,480,l),
(60,480,l),
(60,20,l),
(10,10,l),
(10,0,l),
(345,0,l),
(345,10,l),
(295,20,l),
(295,480,l),
(475,480,l),
(475,18,l),
(486,-44,o),
(502,-101,o),
(502,-141,cs),
(502,-181,o),
(487,-205,o),
(437,-205,cs),
(408,-205,o),
(396,-203,o),
(396,-196,cs),
(396,-185,o),
(415,-174,o),
(434,-159,cs),
(453,-143,o),
(473,-123,o),
(473,-94,cs),
(473,-36,o),
(416,-15,o),
(337,-15,cs),
(260,-15,o),
(204,-36,o),
(204,-94,cs),
(204,-173,o),
(308,-215,o),
(440,-215,cs),
(576,-215,o),
(660,-179,o),
(691,-107,cs),
(707,-70,o),
(710,-26,o),
(710,18,cs),
(710,515,l),
(440,495,l),
(295,500,l),
(284,552,o),
(268,631,o),
(268,671,cs),
(268,712,o),
(303,735,o),
(367,735,cs),
(439,735,o),
(502,718,o),
(502,695,cs),
(502,676,o),
(463,642,o),
(463,606,cs),
(463,559,o),
(511,529,o),
(588,529,cs),
(668,529,o),
(718,562,o),
(718,615,cs),
(718,691,o),
(576,745,o),
(370,745,cs)
);
}
);
width = 763;
},
{
anchors = (
{
name = bottom_1;
pos = (345,0);
},
{
name = bottom_2;
pos = (1036,0);
},
{
name = caret_1;
pos = (690.5,0);
},
{
name = top_1;
pos = (345,800);
},
{
name = top_2;
pos = (1036,800);
}
);
layerId = "DF54607F-DD82-41E6-B2E3-81CA6D0E5C47";
shapes = (
{
closed = 1;
nodes = (
(343,745,o),
(207,718,o),
(122,649,cs),
(81,616,o),
(61,552,o),
(60,500,c),
(10,490,l),
(10,480,l),
(60,480,l),
(60,20,l),
(10,10,l),
(10,0,l),
(630,0,l),
(630,10,l),
(580,20,l),
(580,480,l),
(798,480,l),
(798,20,l),
(809,-42,o),
(824,-98,o),
(824,-138,cs),
(824,-178,o),
(809,-202,o),
(760,-202,cs),
(741,-202,o),
(736,-198,o),
(736,-190,cs),
(736,-180,o),
(751,-167,o),
(768,-152,cs),
(785,-135,o),
(804,-117,o),
(804,-99,cs),
(804,-30,o),
(699,-16,o),
(503,-16,cs),
(349,-16,o),
(240,-31,o),
(240,-88,cs),
(240,-173,o),
(481,-215,o),
(763,-215,cs),
(1035,-215,o),
(1171,-186,o),
(1256,-117,cs),
(1297,-84,o),
(1318,-42,o),
(1318,10,cs),
(1318,515,l),
(697,495,l),
(580,500,l),
(569,552,o),
(554,630,o),
(554,670,cs),
(554,710,o),
(569,734,o),
(669,734,cs),
(765,734,o),
(814,724,o),
(814,702,cs),
(814,686,o),
(788,667,o),
(788,622,cs),
(788,562,o),
(883,529,o),
(1054,529,cs),
(1227,529,o),
(1323,562,o),
(1323,620,cs),
(1323,704,o),
(1115,745,o),
(669,745,cs)
);
}
);
width = 1368;
},
{
anchors = (
{
name = bottom_1;
pos = (153,0);
},
{
name = bottom_2;
pos = (460,0);
},
{
name = caret_1;
pos = (306.5,0);
},
{
name = top_1;
pos = (153,800);
},
{
name = top_2;
pos = (460,800);
}
);
layerId = "A5088515-37FF-452F-BD44-18A7A5EF88F0";
shapes = (
{
closed = 1;
nodes = (
(172,745,o),
(122,715,o),
(122,637,cs),
(122,602,o),
(127,541,o),
(130,500,c),
(60,490,l),
(60,480,l),
(130,480,l),
(130,20,l),
(60,10,l),
(60,0,l),
(224,0,l),
(224,10,l),
(144,20,l),
(144,480,l),
(472,479,l),
(472,0,l),
(476,-40,o),
(480,-73,o),
(480,-107,cs),
(480,-174,o),
(454,-204,o),
(395,-204,cs),
(370,-204,o),
(362,-201,o),
(362,-195,cs),
(362,-190,o),
(370,-182,o),
(379,-171,cs),
(388,-160,o),
(398,-146,o),
(398,-131,cs),
(398,-106,o),
(372,-93,o),
(346,-93,cs),
(320,-93,o),
(294,-106,o),
(294,-134,cs),
(294,-183,o),
(337,-215,o),
(395,-215,cs),
(464,-215,o),
(494,-182,o),
(494,-107,cs),
(494,-72,o),
(489,-41,o),
(486,0,c),
(486,515,l),
(297,489,l),
(144,500,l),
(140,540,o),
(136,603,o),
(136,637,cs),
(136,692,o),
(161,734,o),
(312,734,cs),
(383,734,o),
(456,712,o),
(456,684,cs),
(456,666,o),
(420,642,o),
(420,614,cs),
(420,592,o),
(441,576,o),
(471,576,cs),
(500,576,o),
(521,595,o),
(521,623,cs),
(521,691,o),
(430,745,o),
(312,745,cs)
);
}
);
width = 611;
},
{
anchors = (
{
name = bottom_1;
pos = (230,0);
},
{
name = bottom_2;
pos = (689,0);
},
{
name = caret_1;
pos = (459.5,0);
},
{
name = top_1;
pos = (230,800);
},
{
name = top_2;
pos = (689,800);
}
);
layerId = "35A90D60-3AD4-435C-9F8B-D1CA483F6F66";
shapes = (
{
closed = 1;
nodes = (
(290,745,o),
(218,718,o),
(218,649,cs),
(218,612,o),
(235,546,o),
(244,500,c),
(95,491,l),
(95,481,l),
(244,481,l),
(244,20,l),
(80,10,l),
(80,0,l),
(445,0,l),
(445,10,l),
(258,20,l),
(258,481,l),
(764,480,l),
(764,0,l),
(773,-44,o),
(790,-81,o),
(790,-119,cs),
(790,-178,o),
(728,-204,o),
(585,-204,cs),
(525,-204,o),
(507,-201,o),
(507,-195,cs),
(508,-189,o),
(526,-181,o),
(545,-170,cs),
(563,-159,o),
(581,-146,o),
(581,-131,cs),
(581,-106,o),
(530,-93,o),
(469,-93,cs),
(399,-93,o),
(358,-108,o),
(358,-134,cs),
(358,-183,o),
(448,-215,o),
(585,-215,cs),
(737,-215,o),
(804,-186,o),
(804,-119,cs),
(804,-82,o),
(787,-46,o),
(778,0,c),
(778,515,l),
(524,489,l),
(258,500,l),
(249,544,o),
(232,611,o),
(232,649,cs),
(232,697,o),
(277,734,o),
(502,734,cs),
(617,734,o),
(710,700,o),
(710,681,cs),
(710,663,o),
(692,643,o),
(692,621,cs),
(692,593,o),
(717,576,o),
(758,576,cs),
(797,576,o),
(822,595,o),
(822,624,cs),
(822,682,o),
(694,745,o),
(502,745,cs)
);
}
);
width = 912;
}
);
metricLeft = f;
metricRight = j;
},
{
color = 1;
glyphname = f_k.liga;
kernLeft = f;
kernRight = k;
lastChange = "2022-08-05 06:06:17 +0000";
layers = (
{
anchors = (
{
name = bottom_1;
pos = (295,0);
},
{
name = bottom_2;
pos = (823,0);
},
{
name = caret_1;
pos = (559,0);
},
{
name = top_1;
pos = (295,800);
},
{
name = top_2;
pos = (823,800);
}
);
layerId = "2660E96A-9963-4076-AFCB-E451BC6EE103";
shapes = (
{
closed = 1;
nodes = (
(345,0,l),
(345,10,l),
(295,20,l),
(295,485,l),
(385,485,l),
(385,500,l),
(295,500,l),
(284,552,o),
(268,631,o),
(268,671,cs),
(268,712,o),
(303,735,o),
(367,735,cs),
(440,735,o),
(476,697,o),
(476,619,cs),
(476,25,l),
(426,10,l),
(426,0,l),
(761,0,l),
(761,10,l),
(711,25,l),
(711,745,l),
(517,718,l),
(472,734,o),
(410,745,o),
(367,745,cs),
(192,745,o),
(112,715,o),
(79,637,cs),
(63,600,o),
(60,534,o),
(60,500,c),
(10,490,l),
(10,480,l),
(60,480,l),
(60,20,l),
(10,10,l),
(10,0,l)
);
},
{
closed = 1;
nodes = (
(1000,-15,o),
(1036,-6,o),
(1075,15,c),
(1075,25,l),
(1070,24,o),
(1065,26,o),
(1060,32,cs),
(1040,52,o),
(1017,111,o),
(1003,167,cs),
(991,213,o),
(980,260,o),
(968,306,c),
(839,305,l),
(839,317,l),
(888,343,o),
(928,366,o),
(958,389,cs),
(1003,423,o),
(1026,457,o),
(1026,502,cs),
(1026,569,o),
(968,616,o),
(886,616,cs),
(816,616,o),
(766,581,o),
(766,531,cs),
(766,488,o),
(796,459,o),
(856,446,cs),
(934,430,o),
(960,422,o),
(960,413,cs),
(960,399,o),
(917,371,o),
(849,339,cs),
(791,312,o),
(745,295,o),
(701,287,c),
(701,270,l),
(728,270,l),
(739,226,o),
(751,188,o),
(764,138,cs),
(789,43,o),
(853,-15,o),
(949,-15,cs)
);
}
);
width = 1087;
},
{
anchors = (
{
name = bottom_1;
pos = (491,0);
},
{
name = bottom_2;
pos = (1474,0);
},
{
name = caret_1;
pos = (982.5,0);
},
{
name = top_1;
pos = (491,800);
},
{
name = top_2;
pos = (1474,800);
}
);
layerId = "DF54607F-DD82-41E6-B2E3-81CA6D0E5C47";
shapes = (
{
closed = 1;
nodes = (
(630,0,l),
(630,10,l),
(580,20,l),
(580,485,l),
(670,485,l),
(670,500,l),
(580,500,l),
(569,552,o),
(554,630,o),
(554,670,cs),
(554,710,o),
(569,734,o),
(648,734,cs),
(699,734,o),
(798,730,o),
(798,654,cs),
(798,20,l),
(748,10,l),
(748,0,l),
(1368,0,l),
(1368,10,l),
(1318,20,l),
(1318,745,l),
(938,717,l),
(848,736,o),
(721,745,o),
(615,745,cs),
(343,745,o),
(207,718,o),
(122,649,cs),
(81,616,o),
(61,552,o),
(60,500,c),
(10,490,l),
(10,480,l),
(60,480,l),
(60,20,l),
(10,10,l),
(10,0,l)
);
},
{
closed = 1;
nodes = (
(1788,-15,o),
(1896,3,o),
(1951,15,c),
(1951,25,l),
(1946,24,o),
(1940,27,o),
(1935,33,cs),
(1915,54,o),
(1893,112,o),
(1879,167,cs),
(1867,213,o),
(1856,260,o),
(1844,306,c),
(1502,305,l),
(1502,317,l),
(1559,331,o),
(1657,355,o),
(1752,387,cs),
(1887,432,o),
(1954,474,o),
(1954,512,cs),
(1954,570,o),
(1828,616,o),
(1668,616,cs),
(1513,616,o),
(1392,579,o),
(1392,531,cs),
(1392,493,o),
(1458,466,o),
(1591,451,cs),
(1737,433,o),
(1786,425,o),
(1786,419,cs),
(1786,407,o),
(1676,375,o),
(1557,345,cs),
(1469,322,o),
(1377,301,o),
(1308,287,c),
(1308,270,l),
(1335,270,l),
(1347,226,o),
(1359,182,o),
(1371,138,cs),
(1404,17,o),
(1534,-15,o),
(1680,-15,cs)
);
}
);
width = 1965;
},
{
anchors = (
{
name = bottom_1;
pos = (210,0);
},
{
name = bottom_2;
pos = (631,0);
},
{
name = caret_1;
pos = (420.5,0);
},
{
name = top_1;
pos = (210,800);
},
{
name = top_2;
pos = (631,800);
}
);
layerId = "A5088515-37FF-452F-BD44-18A7A5EF88F0";
shapes = (
{
closed = 1;
nodes = (
(224,0,l),
(224,10,l),
(144,20,l),
(144,480,l),
(279,480,l),
(279,490,l),
(144,500,l),
(140,540,o),
(136,603,o),
(136,637,cs),
(136,692,o),
(161,734,o),
(312,734,cs),
(428,734,o),
(472,705,o),
(472,628,cs),
(472,20,l),
(412,10,l),
(412,0,l),
(546,0,l),
(546,10,l),
(486,20,l),
(486,745,l),
(439,729,l),
(403,739,o),
(362,745,o),
(312,745,cs),
(172,745,o),
(122,715,o),
(122,637,cs),
(122,602,o),
(127,541,o),
(130,500,c),
(60,490,l),
(60,480,l),
(130,480,l),
(130,20,l),
(60,10,l),
(60,0,l)
);
},
{
closed = 1;
nodes = (
(784,-15,o),
(792,-12,o),
(801,-4,c),
(801,10,l),
(793,2,o),
(786,-1,o),
(779,-1,cs),
(744,-1,o),
(704,68,o),
(656,139,cs),
(612,205,o),
(581,272,o),
(573,287,c),
(550,287,l),
(550,297,l),
(607,328,o),
(647,352,o),
(670,368,cs),
(720,404,o),
(745,436,o),
(745,466,c),
(743,495,o),
(719,515,o),
(686,515,cs),
(650,515,o),
(622,493,o),
(622,466,cs),
(622,446,o),
(633,433,o),
(657,422,cs),
(680,412,o),
(688,407,o),
(688,402,cs),
(688,392,o),
(669,378,o),
(613,345,cs),
(566,318,o),
(511,291,o),
(476,288,c),
(476,278,l),
(562,278,l),
(569,265,o),
(601,197,o),
(647,130,cs),
(697,57,o),
(740,-15,o),
(776,-15,cs)
);
}
);
width = 841;
},
{
anchors = (
{
name = bottom_1;
pos = (347,0);
},
{
name = bottom_2;
pos = (1042,0);
},
{
name = caret_1;
pos = (694.5,0);
},
{
name = top_1;
pos = (347,800);
},
{
name = top_2;
pos = (1042,800);
}
);
layerId = "35A90D60-3AD4-435C-9F8B-D1CA483F6F66";
shapes = (
{
closed = 1;
nodes = (
(445,0,l),
(445,10,l),
(258,20,l),
(258,480,l),
(524,480,l),
(524,490,l),
(258,500,l),
(249,544,o),
(232,611,o),
(232,649,cs),
(232,697,o),
(277,734,o),
(490,734,cs),
(688,734,o),
(764,715,o),
(764,664,cs),
(764,20,l),
(654,10,l),
(654,0,l),
(888,0,l),
(888,10,l),
(778,20,l),
(778,745,l),
(729,726,l),
(653,742,o),
(601,745,o),
(483,745,cs),
(290,745,o),
(218,718,o),
(218,649,cs),
(218,612,o),
(235,546,o),
(244,500,c),
(95,490,l),
(95,480,l),
(244,480,l),
(244,20,l),
(80,10,l),
(80,0,l)
);
},
{
closed = 1;
nodes = (
(1307,-15,o),
(1322,-12,o),
(1339,-4,c),
(1339,10,l),
(1324,2,o),
(1311,-1,o),
(1298,-1,cs),
(1245,-1,o),
(1185,35,o),
(1059,141,cs),
(1005,188,o),
(949,240,o),
(904,287,c),
(862,287,l),
(862,290,l),
(945,314,o),
(1013,336,o),
(1067,357,cs),
(1182,400,o),
(1234,435,o),
(1234,467,c),
(1230,499,o),
(1177,516,o),
(1120,515,cs),
(1064,514,o),
(1001,497,o),
(1001,466,cs),
(1001,446,o),
(1025,431,o),
(1074,422,cs),
(1126,412,o),
(1135,408,o),
(1135,404,cs),
(1135,396,o),
(1063,366,o),
(967,335,cs),
(895,311,o),
(816,290,o),
(773,288,c),
(773,278,l),
(890,278,l),
(946,222,o),
(1008,165,o),
(1050,130,cs),
(1182,21,o),
(1243,-15,o),
(1292,-15,cs)
);
}
);
width = 1389;
}
);
metricLeft = f;
metricRight = k;
},
{
color = 9;
glyphname = fi;
kernLeft = f;
kernRight = i;
lastChange = "2022-08-05 06:06:17 +0000";
layers = (
{
anchors = (
{
name = caret_1;
pos = (385,0);
}
);
layerId = "2660E96A-9963-4076-AFCB-E451BC6EE103";
shapes = (
{
closed = 1;
nodes = (
(345,0,l),
(345,10,l),
(295,20,l),
(295,480,l),
(475,480,l),
(475,25,l),
(425,10,l),
(425,0,l),
(760,0,l),
(760,10,l),
(710,25,l),
(710,515,l),
(440,495,l),
(295,500,l),
(284,552,o),
(268,631,o),
(268,671,cs),
(268,712,o),
(303,735,o),
(367,735,cs),
(439,735,o),
(502,718,o),
(502,695,cs),
(502,676,o),
(463,642,o),
(463,606,cs),
(463,559,o),
(511,529,o),
(588,529,cs),
(668,529,o),
(718,562,o),
(718,615,cs),
(718,691,o),
(576,745,o),
(370,745,cs),
(195,745,o),
(112,715,o),
(79,637,cs),
(63,600,o),
(60,534,o),
(60,500,c),
(10,490,l),
(10,480,l),
(60,480,l),
(60,20,l),
(10,10,l),
(10,0,l)
);
}
);
width = 770;
},
{
anchors = (
{
name = caret_1;
pos = (689,0);
}
);
layerId = "DF54607F-DD82-41E6-B2E3-81CA6D0E5C47";
shapes = (
{
closed = 1;
nodes = (
(630,0,l),
(630,10,l),
(580,20,l),
(580,480,l),
(798,480,l),
(798,20,l),
(748,10,l),
(748,0,l),
(1368,0,l),
(1368,10,l),
(1318,20,l),
(1318,515,l),
(697,495,l),
(580,500,l),
(569,552,o),
(554,630,o),
(554,670,cs),
(554,710,o),
(569,734,o),
(669,734,cs),
(765,734,o),
(814,724,o),
(814,702,cs),
(814,686,o),
(788,667,o),
(788,622,cs),
(788,562,o),
(883,529,o),
(1054,529,cs),
(1227,529,o),
(1323,562,o),
(1323,620,cs),
(1323,704,o),
(1115,745,o),
(669,745,cs),
(343,745,o),
(207,718,o),
(122,649,cs),
(81,616,o),
(61,552,o),
(60,500,c),
(10,490,l),
(10,480,l),
(60,480,l),
(60,20,l),
(10,10,l),
(10,0,l)
);
}
);
width = 1378;
},
{
anchors = (
{
name = caret_1;
pos = (308,0);
}
);
layerId = "A5088515-37FF-452F-BD44-18A7A5EF88F0";
shapes = (
{
closed = 1;
nodes = (
(224,0,l),
(224,10,l),
(144,20,l),
(144,480,l),
(472,480,l),
(472,20,l),
(412,10,l),
(412,0,l),
(546,0,l),
(546,10,l),
(486,20,l),
(486,515,l),
(297,489,l),
(144,500,l),
(140,540,o),
(136,603,o),
(136,637,cs),
(136,692,o),
(161,734,o),
(312,734,cs),
(383,734,o),
(456,712,o),
(456,684,cs),
(456,666,o),
(420,642,o),
(420,614,cs),
(420,592,o),
(441,576,o),
(471,576,cs),
(500,576,o),
(521,595,o),
(521,623,cs),
(521,691,o),
(430,745,o),
(312,745,cs),
(172,745,o),
(122,715,o),
(122,637,cs),
(122,602,o),
(127,541,o),
(130,500,c),
(60,490,l),
(60,480,l),
(130,480,l),
(130,20,l),
(60,10,l),
(60,0,l)
);
}
);
width = 616;
},
{
anchors = (
{
name = caret_1;
pos = (484,0);
}
);
layerId = "35A90D60-3AD4-435C-9F8B-D1CA483F6F66";
shapes = (
{
closed = 1;
nodes = (
(445,0,l),
(445,10,l),
(258,20,l),
(258,480,l),
(764,480,l),
(764,20,l),
(654,10,l),
(654,0,l),
(888,0,l),
(888,10,l),
(778,20,l),
(778,515,l),
(524,489,l),
(258,500,l),
(249,544,o),
(232,611,o),
(232,649,cs),
(232,697,o),
(277,734,o),
(502,734,cs),
(617,734,o),
(710,700,o),
(710,681,cs),
(710,663,o),
(692,643,o),
(692,621,cs),
(692,593,o),
(717,576,o),
(758,576,cs),
(797,576,o),
(822,595,o),
(822,624,cs),
(822,682,o),
(694,745,o),
(502,745,cs),
(290,745,o),
(218,718,o),
(218,649,cs),
(218,612,o),
(235,546,o),
(244,500,c),
(95,490,l),
(95,480,l),
(244,480,l),
(244,20,l),
(80,10,l),
(80,0,l)
);
}
);
width = 968;
}
);
metricLeft = f;
metricRight = i;
unicode = 64257;
},
{
color = 1;
glyphname = fl;
kernLeft = f;
kernRight = l;
lastChange = "2022-08-05 06:06:17 +0000";
layers = (
{
anchors = (
{
name = caret_1;
pos = (385.5,0);
}
);
layerId = "2660E96A-9963-4076-AFCB-E451BC6EE103";
shapes = (
{
closed = 1;
nodes = (
(345,0,l),
(345,10,l),
(295,20,l),
(295,485,l),
(385,485,l),
(385,500,l),
(295,500,l),
(284,552,o),
(268,631,o),
(268,671,cs),
(268,712,o),
(303,735,o),
(367,735,cs),
(440,735,o),
(476,697,o),
(476,619,cs),
(476,25,l),
(426,10,l),
(426,0,l),
(761,0,l),
(761,10,l),
(711,25,l),
(711,745,l),
(517,718,l),
(472,734,o),
(410,745,o),
(367,745,cs),
(192,745,o),
(112,715,o),
(79,637,cs),
(63,600,o),
(60,534,o),
(60,500,c),
(10,490,l),
(10,480,l),
(60,480,l),
(60,20,l),
(10,10,l),
(10,0,l)
);
}
);
width = 771;
},
{
anchors = (
{
name = caret_1;
pos = (689,0);
}
);
layerId = "DF54607F-DD82-41E6-B2E3-81CA6D0E5C47";
shapes = (
{
closed = 1;
nodes = (
(630,0,l),
(630,10,l),
(580,20,l),
(580,485,l),
(670,485,l),
(670,500,l),
(580,500,l),
(569,552,o),
(554,630,o),
(554,670,cs),
(554,710,o),
(569,734,o),
(648,734,cs),
(699,734,o),
(798,730,o),
(798,654,cs),
(798,20,l),
(748,10,l),
(748,0,l),
(1368,0,l),
(1368,10,l),
(1318,20,l),
(1318,745,l),
(938,717,l),
(848,736,o),
(721,745,o),
(615,745,cs),
(343,745,o),
(207,718,o),
(122,649,cs),
(81,616,o),
(61,552,o),
(60,500,c),
(10,490,l),
(10,480,l),
(60,480,l),
(60,20,l),
(10,10,l),
(10,0,l)
);
}
);
width = 1378;
},
{
anchors = (
{
name = caret_1;
pos = (298,0);
}
);
layerId = "A5088515-37FF-452F-BD44-18A7A5EF88F0";
shapes = (
{
closed = 1;
nodes = (
(224,0,l),
(224,10,l),
(144,20,l),
(144,480,l),
(279,480,l),
(279,490,l),
(144,500,l),
(140,540,o),
(136,603,o),
(136,637,cs),
(136,692,o),
(161,734,o),
(312,734,cs),
(428,734,o),
(472,705,o),
(472,628,c),
(472,20,l),
(412,10,l),
(412,0,l),
(546,0,l),
(546,10,l),
(486,20,l),
(486,745,l),
(439,729,l),
(403,739,o),
(362,745,o),
(312,745,cs),
(172,745,o),
(122,715,o),
(122,637,cs),
(122,602,o),
(127,541,o),
(130,500,c),
(60,490,l),
(60,480,l),
(130,480,l),
(130,20,l),
(60,10,l),
(60,0,l)
);
}
);
width = 596;
},
{
anchors = (
{
name = caret_1;
pos = (479,0);
}
);
layerId = "35A90D60-3AD4-435C-9F8B-D1CA483F6F66";
shapes = (
{
closed = 1;
nodes = (
(445,0,l),
(445,10,l),
(258,20,l),
(258,480,l),
(524,480,l),
(524,490,l),
(258,500,l),
(249,544,o),
(232,611,o),
(232,649,cs),
(232,697,o),
(277,734,o),
(490,734,cs),
(688,734,o),
(764,715,o),
(764,664,c),
(764,20,l),
(654,10,l),
(654,0,l),
(888,0,l),
(888,10,l),
(778,20,l),
(778,745,l),
(729,726,l),
(653,742,o),
(601,745,o),
(483,745,cs),
(290,745,o),
(218,718,o),
(218,649,cs),
(218,612,o),
(235,546,o),
(244,500,c),
(95,490,l),
(95,480,l),
(244,480,l),
(244,20,l),
(80,10,l),
(80,0,l)
);
}
);
width = 958;
}
);
metricLeft = f;
metricRight = l;
unicode = 64258;
},
{
color = 4;
glyphname = ordfeminine;
kernLeft = quote2;
kernRight = quote;
lastChange = "2022-08-05 06:06:17 +0000";
layers = (
{
layerId = "2660E96A-9963-4076-AFCB-E451BC6EE103";
shapes = (
{
closed = 1;
nodes = (
(175,465,o),
(194,521,o),
(201,538,c),
(208,533,l),
(208,485,o),
(237,465,o),
(277,465,cs),
(298,465,o),
(321,472,o),
(344,482,c),
(344,492,l),
(339,488,o),
(334,488,o),
(329,490,cs),
(323,493,o),
(319,499,o),
(319,510,cs),
(319,613,ls),
(319,702,o),
(275,718,o),
(196,718,cs),
(120,718,o),
(60,685,o),
(60,644,cs),
(60,623,o),
(83,606,o),
(112,606,cs),
(148,606,o),
(169,625,o),
(169,643,cs),
(169,658,o),
(161,666,o),
(139,674,cs),
(117,681,o),
(110,685,o),
(110,689,cs),
(110,695,o),
(133,699,o),
(162,699,cs),
(213,699,o),
(210,670,o),
(208,605,c),
(154,605,o),
(50,595,o),
(50,525,cs),
(50,483,o),
(80,465,o),
(120,465,cs)
);
},
{
closed = 1;
nodes = (
(344,416,l),
(344,429,l),
(50,429,l),
(50,416,l)
);
},
{
closed = 1;
nodes = (
(156,510,o),
(152,519,o),
(152,531,cs),
(152,554,o),
(173,592,o),
(208,592,c),
(208,581,l),
(194,537,o),
(182,510,o),
(166,510,cs)
);
}
);
width = 394;
},
{
layerId = "DF54607F-DD82-41E6-B2E3-81CA6D0E5C47";
shapes = (
{
closed = 1;
nodes = (
(318,465,o),
(351,521,o),
(365,538,c),
(374,533,l),
(374,485,o),
(441,465,o),
(521,465,cs),
(563,465,o),
(588,472,o),
(634,482,c),
(634,492,l),
(625,490,o),
(618,491,o),
(613,493,cs),
(607,496,o),
(604,503,o),
(604,510,cs),
(604,613,ls),
(604,702,o),
(517,718,o),
(360,718,cs),
(249,718,o),
(90,693,o),
(90,648,cs),
(90,621,o),
(127,606,o),
(193,606,cs),
(262,606,o),
(306,623,o),
(306,651,cs),
(306,668,o),
(290,677,o),
(253,681,cs),
(220,684,o),
(209,686,o),
(209,689,cs),
(209,695,o),
(243,699,o),
(292,699,cs),
(374,699,o),
(378,670,o),
(374,605,c),
(267,605,o),
(70,595,o),
(70,525,cs),
(70,483,o),
(130,465,o),
(209,465,cs)
);
},
{
closed = 1;
nodes = (
(634,416,l),
(634,429,l),
(70,429,l),
(70,416,l)
);
},
{
closed = 1;
nodes = (
(298,510,o),
(291,519,o),
(291,530,cs),
(290,553,o),
(312,592,o),
(374,592,c),
(374,581,l),
(346,537,o),
(332,510,o),
(307,510,cs)
);
}
);
width = 704;
},
{
layerId = "A5088515-37FF-452F-BD44-18A7A5EF88F0";
shapes = (
{
closed = 1;
nodes = (
(167,465,o),
(204,491,o),
(236,539,c),
(245,534,l),
(245,479,o),
(248,465,o),
(276,465,cs),
(296,465,o),
(303,478,o),
(304,478,c),
(304,488,l),
(297,483,o),
(287,478,o),
(276,478,cs),
(264,478,o),
(258,487,o),
(258,515,c),
(258,612,l),
(258,697,o),
(242,718,o),
(177,718,cs),
(119,718,o),
(71,683,o),
(71,649,cs),
(71,628,o),
(84,617,o),
(107,617,cs),
(124,617,o),
(137,627,o),
(137,640,cs),
(137,649,o),
(130,656,o),
(115,661,cs),
(103,665,o),
(99,668,o),
(99,671,cs),
(99,678,o),
(127,705,o),
(177,705,cs),
(231,705,o),
(245,686,o),
(245,612,c),
(139,611,o),
(65,573,o),
(65,520,cs),
(65,485,o),
(88,465,o),
(127,465,cs)
);
},
{
closed = 1;
nodes = (
(311,416,l),
(311,429,l),
(60,429,l),
(60,416,l)
);
},
{
closed = 1;
nodes = (
(96,478,o),
(78,494,o),
(78,520,cs),
(78,566,o),
(147,599,o),
(245,599,c),
(245,584,l),
(222,525,o),
(170,478,o),
(127,478,cs)
);
}
);
width = 371;
},
{
layerId = "35A90D60-3AD4-435C-9F8B-D1CA483F6F66";
shapes = (
{
closed = 1;
nodes = (
(237,465,o),
(315,491,o),
(366,539,c),
(375,534,l),
(375,482,o),
(385,465,o),
(414,465,cs),
(437,465,o),
(453,478,o),
(454,478,c),
(454,488,l),
(447,483,o),
(429,478,o),
(415,478,cs),
(395,478,o),
(388,490,o),
(388,525,cs),
(388,612,l),
(388,692,o),
(356,718,o),
(258,718,cs),
(164,718,o),
(91,688,o),
(91,649,cs),
(91,628,o),
(110,617,o),
(143,617,cs),
(178,617,o),
(197,626,o),
(197,642,cs),
(197,652,o),
(188,658,o),
(164,663,cs),
(146,667,o),
(137,672,o),
(137,679,cs),
(137,694,o),
(190,705,o),
(258,705,cs),
(346,705,o),
(375,682,o),
(375,612,c),
(213,610,o),
(85,565,o),
(85,510,cs),
(85,482,o),
(113,465,o),
(157,465,cs)
);
},
{
closed = 1;
nodes = (
(461,416,l),
(461,429,l),
(80,429,l),
(80,416,l)
);
},
{
closed = 1;
nodes = (
(121,478,o),
(98,490,o),
(98,510,cs),
(98,560,o),
(220,599,o),
(375,599,c),
(375,574,l),
(342,515,o),
(240,478,o),
(157,478,cs)
);
}
);
width = 541;
}
);
unicode = 170;
},
{
color = 4;
glyphname = ordmasculine;
kernLeft = quote2;
kernRight = quote;
lastChange = "2022-08-05 06:06:17 +0000";
layers = (
{
layerId = "2660E96A-9963-4076-AFCB-E451BC6EE103";
shapes = (
{
closed = 1;
nodes = (
(286,465,o),
(334,525,o),
(335,589,cs),
(336,662,o),
(284,718,o),
(193,718,cs),
(104,718,o),
(50,662,o),
(50,589,cs),
(50,525,o),
(94,465,o),
(193,465,cs)
);
},
{
closed = 1;
nodes = (
(335,416,l),
(335,429,l),
(50,429,l),
(50,416,l)
);
},
{
closed = 1;
nodes = (
(168,480,o),
(166,531,o),
(166,589,cs),
(166,652,o),
(169,703,o),
(193,703,cs),
(217,703,o),
(218,652,o),
(219,589,cs),
(220,530,o),
(215,480,o),
(193,480,cs)
);
}
);
width = 385;
},
{
layerId = "DF54607F-DD82-41E6-B2E3-81CA6D0E5C47";
shapes = (
{
closed = 1;
nodes = (
(554,465,o),
(652,525,o),
(654,589,cs),
(656,662,o),
(549,718,o),
(363,718,cs),
(181,718,o),
(70,662,o),
(70,589,cs),
(70,525,o),
(160,465,o),
(363,465,cs)
);
},
{
closed = 1;
nodes = (
(654,416,l),
(654,429,l),
(70,429,l),
(70,416,l)
);
},
{
closed = 1;
nodes = (
(312,480,o),
(308,531,o),
(308,589,cs),
(308,652,o),
(314,703,o),
(363,703,cs),
(412,703,o),
(414,652,o),
(416,589,cs),
(418,530,o),
(408,480,o),
(363,480,cs)
);
}
);
width = 724;
},
{
layerId = "A5088515-37FF-452F-BD44-18A7A5EF88F0";
shapes = (
{
closed = 1;
nodes = (
(250,465,o),
(293,513,o),
(293,590,c),
(293,669,o),
(250,718,o),
(181,718,c),
(113,718,o),
(70,669,o),
(70,590,c),
(70,513,o),
(113,465,o),
(181,465,c)
);
},
{
closed = 1;
nodes = (
(303,416,l),
(303,429,l),
(60,429,l),
(60,416,l)
);
},
{
closed = 1;
nodes = (
(122,480,o),
(85,522,o),
(85,590,c),
(85,659,o),
(122,703,o),
(181,703,c),
(241,703,o),
(278,659,o),
(278,590,c),
(278,522,o),
(241,480,o),
(181,480,c)
);
}
);
width = 363;
},
{
layerId = "35A90D60-3AD4-435C-9F8B-D1CA483F6F66";
shapes = (
{
closed = 1;
nodes = (
(346,465,o),
(413,517,o),
(413,590,c),
(413,665,o),
(346,718,o),
(251,718,c),
(157,718,o),
(90,665,o),
(90,590,c),
(90,517,o),
(157,465,o),
(251,465,c)
);
},
{
closed = 1;
nodes = (
(423,416,l),
(423,429,l),
(80,429,l),
(80,416,l)
);
},
{
closed = 1;
nodes = (
(164,478,o),
(103,524,o),
(103,590,c),
(103,657,o),
(164,705,o),
(251,705,c),
(338,705,o),
(400,657,o),
(400,590,c),
(400,524,o),
(338,478,o),
(251,478,c)
);
}
);
width = 503;
}
);
unicode = 186;
},
